M48
;DRILL file {KiCad (5.0.0-rc3)} date Wed Aug 22 20:47:15 2018
;FORMAT={-:-/ absolute / inch / decimal}
FMAT,2
INCH,TZ
T1C0.0102
T2C0.0157
T3C0.0197
T4C0.0217
T5C0.0236
T6C0.0315
T7C0.0551
%
G90
G05
M72
T1
X0.8516Y-0.9374
X0.8695Y-0.9807
X0.8927Y-0.9807
X0.9056Y-1.083
X0.9173Y-0.7244
X0.922Y-1.0666
X1.0098Y-0.7232
X1.0402Y-0.9629
X1.0402Y-0.986
X1.1949Y-0.9071
X1.2008Y-0.7583
X1.3508Y-1.1445
X1.352Y-1.2138
X1.3768Y-1.1098
X1.6268Y-0.8909
X1.6287Y-0.7417
X1.6287Y-0.8157
X1.6287Y-0.985
X1.6287Y-1.0677
X1.6299Y-1.1673
T2
X0.761Y-0.8043
X0.761Y-0.9409
X0.7644Y-1.1715
X1.0047Y-1.1894
X1.0071Y-1.0831
X1.0433Y-0.9287
X1.1472Y-1.1677
X1.7087Y-0.6917
T4
X1.3616Y-0.766
X1.3616Y-0.8251
X1.3616Y-0.8841
X1.3616Y-0.9432
X1.3616Y-1.0023
X1.3616Y-1.0613
X1.4207Y-0.7267
X1.4207Y-0.7857
X1.4207Y-0.8448
X1.4207Y-0.9038
X1.4207Y-0.9629
X1.4207Y-1.0219
X1.4207Y-1.081
X1.4797Y-0.7463
X1.4797Y-0.8054
X1.4797Y-0.8645
X1.4797Y-0.9235
X1.4797Y-0.9826
X1.4797Y-1.0416
X1.4797Y-1.1007
T7
X1.7447Y-0.9432
T3
X0.8077Y-1.2296G85X0.8077Y-1.2552
G05
X1.0833Y-1.2296G85X1.0833Y-1.2552
G05
T4
X0.8412Y-1.1361G85X0.853Y-1.1361
G05
X1.038Y-1.1361G85X1.0498Y-1.1361
G05
T5
X1.4227Y-0.6184G85X1.462Y-0.6184
G05
X1.4227Y-1.268G85X1.462Y-1.268
G05
X1.6896Y-0.6184G85X1.729Y-0.6184
G05
X1.6896Y-1.268G85X1.729Y-1.268
G05
T6
X0.7329Y-0.7731G85X0.7132Y-0.7731
G05
X0.7329Y-0.8889G85X0.7132Y-0.8889
G05
X1.0557Y-0.7731G85X1.036Y-0.7731
G05
X1.0557Y-0.8889G85X1.036Y-0.8889
G05
T0
M30
