G04 #@! TF.GenerationSoftware,KiCad,Pcbnew,(5.0.0-rc3)*
G04 #@! TF.CreationDate,2019-02-20T21:17:10+01:00*
G04 #@! TF.ProjectId,Adapter,416461707465722E6B696361645F7063,rev?*
G04 #@! TF.SameCoordinates,Original*
G04 #@! TF.FileFunction,Soldermask,Bot*
G04 #@! TF.FilePolarity,Negative*
%FSLAX46Y46*%
G04 Gerber Fmt 4.6, Leading zero omitted, Abs format (unit mm)*
G04 Created by KiCad (PCBNEW (5.0.0-rc3)) date Wed Feb 20 21:17:10 2019*
%MOMM*%
%LPD*%
G01*
G04 APERTURE LIST*
%ADD10C,0.100000*%
G04 APERTURE END LIST*
D10*
G36*
X42551928Y-82136214D02*
X42698014Y-82180529D01*
X42832650Y-82252493D01*
X42950659Y-82349341D01*
X43047507Y-82467350D01*
X43119471Y-82601986D01*
X43163786Y-82748072D01*
X43178749Y-82900000D01*
X43163786Y-83051928D01*
X43119471Y-83198014D01*
X43047507Y-83332650D01*
X42950659Y-83450659D01*
X42832650Y-83547507D01*
X42698014Y-83619471D01*
X42551928Y-83663786D01*
X42438067Y-83675000D01*
X42361933Y-83675000D01*
X42248072Y-83663786D01*
X42101986Y-83619471D01*
X41967350Y-83547507D01*
X41849341Y-83450659D01*
X41752493Y-83332650D01*
X41680529Y-83198014D01*
X41636214Y-83051928D01*
X41621251Y-82900000D01*
X41636214Y-82748072D01*
X41680529Y-82601986D01*
X41752493Y-82467350D01*
X41849341Y-82349341D01*
X41967350Y-82252493D01*
X42101986Y-82180529D01*
X42248072Y-82136214D01*
X42361933Y-82125000D01*
X42438067Y-82125000D01*
X42551928Y-82136214D01*
X42551928Y-82136214D01*
G37*
G36*
X35551928Y-82136214D02*
X35698014Y-82180529D01*
X35832650Y-82252493D01*
X35950659Y-82349341D01*
X36047507Y-82467350D01*
X36119471Y-82601986D01*
X36163786Y-82748072D01*
X36178749Y-82900000D01*
X36163786Y-83051928D01*
X36119471Y-83198014D01*
X36047507Y-83332650D01*
X35950659Y-83450659D01*
X35832650Y-83547507D01*
X35698014Y-83619471D01*
X35551928Y-83663786D01*
X35438067Y-83675000D01*
X35361933Y-83675000D01*
X35248072Y-83663786D01*
X35101986Y-83619471D01*
X34967350Y-83547507D01*
X34849341Y-83450659D01*
X34752493Y-83332650D01*
X34680529Y-83198014D01*
X34636214Y-83051928D01*
X34621251Y-82900000D01*
X34636214Y-82748072D01*
X34680529Y-82601986D01*
X34752493Y-82467350D01*
X34849341Y-82349341D01*
X34967350Y-82252493D01*
X35101986Y-82180529D01*
X35248072Y-82136214D01*
X35361933Y-82125000D01*
X35438067Y-82125000D01*
X35551928Y-82136214D01*
X35551928Y-82136214D01*
G37*
G36*
X53816594Y-79885924D02*
X53900635Y-79902641D01*
X54032576Y-79957293D01*
X54032577Y-79957294D01*
X54151324Y-80036638D01*
X54252302Y-80137616D01*
X54252304Y-80137619D01*
X54331647Y-80256364D01*
X54386299Y-80388305D01*
X54414160Y-80528374D01*
X54414160Y-80671186D01*
X54386299Y-80811255D01*
X54331647Y-80943196D01*
X54313110Y-80970938D01*
X54252302Y-81061944D01*
X54151324Y-81162922D01*
X54151321Y-81162924D01*
X54032576Y-81242267D01*
X53900635Y-81296919D01*
X53816594Y-81313636D01*
X53760568Y-81324780D01*
X53617752Y-81324780D01*
X53561726Y-81313636D01*
X53477685Y-81296919D01*
X53345744Y-81242267D01*
X53226999Y-81162924D01*
X53226996Y-81162922D01*
X53126018Y-81061944D01*
X53065210Y-80970938D01*
X53046673Y-80943196D01*
X52992021Y-80811255D01*
X52964160Y-80671186D01*
X52964160Y-80528374D01*
X52992021Y-80388305D01*
X53046673Y-80256364D01*
X53126016Y-80137619D01*
X53126018Y-80137616D01*
X53226996Y-80036638D01*
X53345743Y-79957294D01*
X53345744Y-79957293D01*
X53477685Y-79902641D01*
X53561726Y-79885924D01*
X53617752Y-79874780D01*
X53760568Y-79874780D01*
X53816594Y-79885924D01*
X53816594Y-79885924D01*
G37*
G36*
X29864612Y-78798037D02*
X30092096Y-78892264D01*
X30296831Y-79029064D01*
X30470936Y-79203169D01*
X30607736Y-79407904D01*
X30701963Y-79635388D01*
X30750000Y-79876885D01*
X30750000Y-80123115D01*
X30701963Y-80364612D01*
X30607736Y-80592096D01*
X30470936Y-80796831D01*
X30296831Y-80970936D01*
X30092096Y-81107736D01*
X29864612Y-81201963D01*
X29623115Y-81250000D01*
X29376885Y-81250000D01*
X29135388Y-81201963D01*
X28907904Y-81107736D01*
X28703169Y-80970936D01*
X28529064Y-80796831D01*
X28392264Y-80592096D01*
X28298037Y-80364612D01*
X28250000Y-80123115D01*
X28250000Y-79876885D01*
X28298037Y-79635388D01*
X28392264Y-79407904D01*
X28529064Y-79203169D01*
X28703169Y-79029064D01*
X28907904Y-78892264D01*
X29135388Y-78798037D01*
X29376885Y-78750000D01*
X29623115Y-78750000D01*
X29864612Y-78798037D01*
X29864612Y-78798037D01*
G37*
G36*
X67864612Y-78798037D02*
X68092096Y-78892264D01*
X68296831Y-79029064D01*
X68470936Y-79203169D01*
X68607736Y-79407904D01*
X68701963Y-79635388D01*
X68750000Y-79876885D01*
X68750000Y-80123115D01*
X68701963Y-80364612D01*
X68607736Y-80592096D01*
X68470936Y-80796831D01*
X68296831Y-80970936D01*
X68092096Y-81107736D01*
X67864612Y-81201963D01*
X67623115Y-81250000D01*
X67376885Y-81250000D01*
X67135388Y-81201963D01*
X66907904Y-81107736D01*
X66703169Y-80970936D01*
X66529064Y-80796831D01*
X66392264Y-80592096D01*
X66298037Y-80364612D01*
X66250000Y-80123115D01*
X66250000Y-79876885D01*
X66298037Y-79635388D01*
X66392264Y-79407904D01*
X66529064Y-79203169D01*
X66703169Y-79029064D01*
X66907904Y-78892264D01*
X67135388Y-78798037D01*
X67376885Y-78750000D01*
X67623115Y-78750000D01*
X67864612Y-78798037D01*
X67864612Y-78798037D01*
G37*
G36*
X41522521Y-79584043D02*
X41640334Y-79619781D01*
X41748911Y-79677817D01*
X41844080Y-79755920D01*
X41922183Y-79851089D01*
X41980219Y-79959666D01*
X42015957Y-80077479D01*
X42028024Y-80200000D01*
X42015957Y-80322521D01*
X41980219Y-80440334D01*
X41922183Y-80548911D01*
X41844080Y-80644080D01*
X41748911Y-80722183D01*
X41640334Y-80780219D01*
X41522521Y-80815957D01*
X41430704Y-80825000D01*
X41369296Y-80825000D01*
X41277479Y-80815957D01*
X41159666Y-80780219D01*
X41051089Y-80722183D01*
X40955920Y-80644080D01*
X40877817Y-80548911D01*
X40819781Y-80440334D01*
X40784043Y-80322521D01*
X40771976Y-80200000D01*
X40784043Y-80077479D01*
X40819781Y-79959666D01*
X40877817Y-79851089D01*
X40955920Y-79755920D01*
X41051089Y-79677817D01*
X41159666Y-79619781D01*
X41277479Y-79584043D01*
X41369296Y-79575000D01*
X41430704Y-79575000D01*
X41522521Y-79584043D01*
X41522521Y-79584043D01*
G37*
G36*
X36522521Y-79584043D02*
X36640334Y-79619781D01*
X36748911Y-79677817D01*
X36844080Y-79755920D01*
X36922183Y-79851089D01*
X36980219Y-79959666D01*
X37015957Y-80077479D01*
X37028024Y-80200000D01*
X37015957Y-80322521D01*
X36980219Y-80440334D01*
X36922183Y-80548911D01*
X36844080Y-80644080D01*
X36748911Y-80722183D01*
X36640334Y-80780219D01*
X36522521Y-80815957D01*
X36430704Y-80825000D01*
X36369296Y-80825000D01*
X36277479Y-80815957D01*
X36159666Y-80780219D01*
X36051089Y-80722183D01*
X35955920Y-80644080D01*
X35877817Y-80548911D01*
X35819781Y-80440334D01*
X35784043Y-80322521D01*
X35771976Y-80200000D01*
X35784043Y-80077479D01*
X35819781Y-79959666D01*
X35877817Y-79851089D01*
X35955920Y-79755920D01*
X36051089Y-79677817D01*
X36159666Y-79619781D01*
X36277479Y-79584043D01*
X36369296Y-79575000D01*
X36430704Y-79575000D01*
X36522521Y-79584043D01*
X36522521Y-79584043D01*
G37*
G36*
X45555157Y-78758060D02*
X45566582Y-78759185D01*
X45627844Y-78777769D01*
X45689107Y-78796353D01*
X45753937Y-78831005D01*
X45802024Y-78856708D01*
X45802025Y-78856709D01*
X45802027Y-78856710D01*
X45901003Y-78937937D01*
X45982230Y-79036912D01*
X46042587Y-79149832D01*
X46079755Y-79272358D01*
X46089160Y-79367848D01*
X46089160Y-80031712D01*
X46079755Y-80127202D01*
X46042587Y-80249728D01*
X45982230Y-80362648D01*
X45901003Y-80461623D01*
X45802028Y-80542850D01*
X45689108Y-80603207D01*
X45627845Y-80621791D01*
X45566583Y-80640375D01*
X45555158Y-80641500D01*
X45439160Y-80652925D01*
X45323163Y-80641500D01*
X45311738Y-80640375D01*
X45250476Y-80621791D01*
X45189213Y-80603207D01*
X45076293Y-80542850D01*
X44977318Y-80461623D01*
X44896091Y-80362648D01*
X44835733Y-80249728D01*
X44798565Y-80127202D01*
X44789160Y-80031712D01*
X44789160Y-79367849D01*
X44798565Y-79272359D01*
X44798566Y-79272357D01*
X44835733Y-79149834D01*
X44835733Y-79149833D01*
X44896090Y-79036913D01*
X44977317Y-78937937D01*
X45076292Y-78856710D01*
X45189212Y-78796353D01*
X45250475Y-78777769D01*
X45311737Y-78759185D01*
X45323162Y-78758060D01*
X45439160Y-78746635D01*
X45555157Y-78758060D01*
X45555157Y-78758060D01*
G37*
G36*
X62055157Y-78758060D02*
X62066582Y-78759185D01*
X62127844Y-78777769D01*
X62189107Y-78796353D01*
X62253937Y-78831005D01*
X62302024Y-78856708D01*
X62302025Y-78856709D01*
X62302027Y-78856710D01*
X62401003Y-78937937D01*
X62482230Y-79036912D01*
X62542587Y-79149832D01*
X62579755Y-79272358D01*
X62589160Y-79367848D01*
X62589160Y-80031712D01*
X62579755Y-80127202D01*
X62542587Y-80249728D01*
X62482230Y-80362648D01*
X62401003Y-80461623D01*
X62302028Y-80542850D01*
X62189108Y-80603207D01*
X62127845Y-80621791D01*
X62066583Y-80640375D01*
X62055158Y-80641500D01*
X61939160Y-80652925D01*
X61823163Y-80641500D01*
X61811738Y-80640375D01*
X61750476Y-80621791D01*
X61689213Y-80603207D01*
X61576293Y-80542850D01*
X61477318Y-80461623D01*
X61396091Y-80362648D01*
X61335733Y-80249728D01*
X61298565Y-80127202D01*
X61289160Y-80031712D01*
X61289160Y-79367849D01*
X61298565Y-79272359D01*
X61298566Y-79272357D01*
X61335733Y-79149834D01*
X61335733Y-79149833D01*
X61396090Y-79036913D01*
X61477317Y-78937937D01*
X61576292Y-78856710D01*
X61689212Y-78796353D01*
X61750475Y-78777769D01*
X61811737Y-78759185D01*
X61823162Y-78758060D01*
X61939160Y-78746635D01*
X62055157Y-78758060D01*
X62055157Y-78758060D01*
G37*
G36*
X45555157Y-71778060D02*
X45566582Y-71779185D01*
X45627844Y-71797769D01*
X45689107Y-71816353D01*
X45753937Y-71851005D01*
X45802024Y-71876708D01*
X45802025Y-71876709D01*
X45802027Y-71876710D01*
X45901003Y-71957937D01*
X45982230Y-72056912D01*
X46042587Y-72169832D01*
X46079755Y-72292358D01*
X46089160Y-72387848D01*
X46089160Y-73451712D01*
X46079755Y-73547202D01*
X46042587Y-73669728D01*
X45982230Y-73782648D01*
X45901003Y-73881623D01*
X45802028Y-73962850D01*
X45689108Y-74023207D01*
X45627845Y-74041791D01*
X45566583Y-74060375D01*
X45555158Y-74061500D01*
X45439160Y-74072925D01*
X45323163Y-74061500D01*
X45311738Y-74060375D01*
X45250476Y-74041791D01*
X45189213Y-74023207D01*
X45076293Y-73962850D01*
X44977318Y-73881623D01*
X44896091Y-73782648D01*
X44835734Y-73669728D01*
X44798566Y-73547202D01*
X44789161Y-73451712D01*
X44789160Y-72387849D01*
X44798565Y-72292359D01*
X44798566Y-72292357D01*
X44835733Y-72169834D01*
X44835733Y-72169833D01*
X44896090Y-72056913D01*
X44977317Y-71957937D01*
X45076292Y-71876710D01*
X45189212Y-71816353D01*
X45250475Y-71797769D01*
X45311737Y-71779185D01*
X45323162Y-71778060D01*
X45439160Y-71766635D01*
X45555157Y-71778060D01*
X45555157Y-71778060D01*
G37*
G36*
X62055157Y-71778060D02*
X62066582Y-71779185D01*
X62127844Y-71797769D01*
X62189107Y-71816353D01*
X62253937Y-71851005D01*
X62302024Y-71876708D01*
X62302025Y-71876709D01*
X62302027Y-71876710D01*
X62401003Y-71957937D01*
X62482230Y-72056912D01*
X62542587Y-72169832D01*
X62579755Y-72292358D01*
X62589160Y-72387848D01*
X62589160Y-73451712D01*
X62579755Y-73547202D01*
X62542587Y-73669728D01*
X62482230Y-73782648D01*
X62401003Y-73881623D01*
X62302028Y-73962850D01*
X62189108Y-74023207D01*
X62127845Y-74041791D01*
X62066583Y-74060375D01*
X62055158Y-74061500D01*
X61939160Y-74072925D01*
X61823163Y-74061500D01*
X61811738Y-74060375D01*
X61750476Y-74041791D01*
X61689213Y-74023207D01*
X61576293Y-73962850D01*
X61477318Y-73881623D01*
X61396091Y-73782648D01*
X61335734Y-73669728D01*
X61298566Y-73547202D01*
X61289161Y-73451712D01*
X61289160Y-72387849D01*
X61298565Y-72292359D01*
X61298566Y-72292357D01*
X61335733Y-72169834D01*
X61335733Y-72169833D01*
X61396090Y-72056913D01*
X61477317Y-71957937D01*
X61576292Y-71876710D01*
X61689212Y-71816353D01*
X61750475Y-71797769D01*
X61811737Y-71779185D01*
X61823162Y-71778060D01*
X61939160Y-71766635D01*
X62055157Y-71778060D01*
X62055157Y-71778060D01*
G37*
G36*
X28566630Y-46192299D02*
X28726855Y-46240903D01*
X28874520Y-46319831D01*
X29003949Y-46426051D01*
X29110169Y-46555480D01*
X29189097Y-46703145D01*
X29237701Y-46863370D01*
X29254112Y-47030000D01*
X29237701Y-47196630D01*
X29189097Y-47356855D01*
X29110169Y-47504520D01*
X29003949Y-47633949D01*
X28874520Y-47740169D01*
X28726855Y-47819097D01*
X28566630Y-47867701D01*
X28441752Y-47880000D01*
X28358248Y-47880000D01*
X28233370Y-47867701D01*
X28073145Y-47819097D01*
X27925480Y-47740169D01*
X27796051Y-47633949D01*
X27689831Y-47504520D01*
X27610903Y-47356855D01*
X27562299Y-47196630D01*
X27545888Y-47030000D01*
X27562299Y-46863370D01*
X27610903Y-46703145D01*
X27689831Y-46555480D01*
X27796051Y-46426051D01*
X27925480Y-46319831D01*
X28073145Y-46240903D01*
X28233370Y-46192299D01*
X28358248Y-46180000D01*
X28441752Y-46180000D01*
X28566630Y-46192299D01*
X28566630Y-46192299D01*
G37*
G36*
X28566630Y-43652299D02*
X28726855Y-43700903D01*
X28874520Y-43779831D01*
X29003949Y-43886051D01*
X29110169Y-44015480D01*
X29189097Y-44163145D01*
X29237701Y-44323370D01*
X29254112Y-44490000D01*
X29237701Y-44656630D01*
X29189097Y-44816855D01*
X29110169Y-44964520D01*
X29003949Y-45093949D01*
X28874520Y-45200169D01*
X28726855Y-45279097D01*
X28566630Y-45327701D01*
X28441752Y-45340000D01*
X28358248Y-45340000D01*
X28233370Y-45327701D01*
X28073145Y-45279097D01*
X27925480Y-45200169D01*
X27796051Y-45093949D01*
X27689831Y-44964520D01*
X27610903Y-44816855D01*
X27562299Y-44656630D01*
X27545888Y-44490000D01*
X27562299Y-44323370D01*
X27610903Y-44163145D01*
X27689831Y-44015480D01*
X27796051Y-43886051D01*
X27925480Y-43779831D01*
X28073145Y-43700903D01*
X28233370Y-43652299D01*
X28358248Y-43640000D01*
X28441752Y-43640000D01*
X28566630Y-43652299D01*
X28566630Y-43652299D01*
G37*
G36*
X59894799Y-42847489D02*
X59940543Y-42866437D01*
X59953941Y-42871986D01*
X59953942Y-42871987D01*
X59953945Y-42871988D01*
X60007176Y-42907556D01*
X60052444Y-42952824D01*
X60088012Y-43006055D01*
X60112511Y-43065201D01*
X60125000Y-43127990D01*
X60125000Y-43192010D01*
X60112511Y-43254799D01*
X60088012Y-43313945D01*
X60052444Y-43367176D01*
X60007176Y-43412444D01*
X59953945Y-43448012D01*
X59953942Y-43448013D01*
X59953941Y-43448014D01*
X59940543Y-43453563D01*
X59894799Y-43472511D01*
X59832010Y-43485000D01*
X59767990Y-43485000D01*
X59705201Y-43472511D01*
X59659457Y-43453563D01*
X59646059Y-43448014D01*
X59646058Y-43448013D01*
X59646055Y-43448012D01*
X59592824Y-43412444D01*
X59547556Y-43367176D01*
X59511988Y-43313945D01*
X59487489Y-43254799D01*
X59475000Y-43192010D01*
X59475000Y-43127990D01*
X59487489Y-43065201D01*
X59511988Y-43006055D01*
X59547556Y-42952824D01*
X59592824Y-42907556D01*
X59646055Y-42871988D01*
X59646058Y-42871987D01*
X59646059Y-42871986D01*
X59659457Y-42866437D01*
X59705201Y-42847489D01*
X59767990Y-42835000D01*
X59832010Y-42835000D01*
X59894799Y-42847489D01*
X59894799Y-42847489D01*
G37*
G36*
X52813712Y-42839702D02*
X52874972Y-42858285D01*
X52912614Y-42878406D01*
X52931434Y-42888465D01*
X52980921Y-42929079D01*
X53000409Y-42952824D01*
X53021534Y-42978565D01*
X53051715Y-43035028D01*
X53070298Y-43096288D01*
X53076572Y-43160000D01*
X53070298Y-43223712D01*
X53051715Y-43284972D01*
X53036230Y-43313941D01*
X53021535Y-43341434D01*
X52980921Y-43390921D01*
X52931434Y-43431535D01*
X52912614Y-43441594D01*
X52874972Y-43461715D01*
X52813712Y-43480298D01*
X52765965Y-43485000D01*
X52434035Y-43485000D01*
X52386288Y-43480298D01*
X52325028Y-43461715D01*
X52287386Y-43441594D01*
X52268566Y-43431535D01*
X52219079Y-43390921D01*
X52178465Y-43341434D01*
X52163770Y-43313941D01*
X52148285Y-43284972D01*
X52129702Y-43223712D01*
X52123428Y-43160000D01*
X52129702Y-43096288D01*
X52148285Y-43035028D01*
X52178466Y-42978565D01*
X52199592Y-42952824D01*
X52219079Y-42929079D01*
X52268566Y-42888465D01*
X52287386Y-42878406D01*
X52325028Y-42858285D01*
X52386288Y-42839702D01*
X52434035Y-42835000D01*
X52765965Y-42835000D01*
X52813712Y-42839702D01*
X52813712Y-42839702D01*
G37*
G36*
X29250000Y-42800000D02*
X27550000Y-42800000D01*
X27550000Y-41100000D01*
X29250000Y-41100000D01*
X29250000Y-42800000D01*
X29250000Y-42800000D01*
G37*
G36*
X52148414Y-41215788D02*
X52223814Y-41238660D01*
X52293303Y-41275803D01*
X52354211Y-41325789D01*
X52404197Y-41386697D01*
X52441340Y-41456186D01*
X52464212Y-41531586D01*
X52470000Y-41590353D01*
X52470000Y-42229647D01*
X52464212Y-42288414D01*
X52441340Y-42363814D01*
X52404197Y-42433303D01*
X52404195Y-42433305D01*
X52354211Y-42494211D01*
X52293304Y-42544197D01*
X52223817Y-42581338D01*
X52223813Y-42581340D01*
X52148413Y-42604212D01*
X52070000Y-42611935D01*
X51991586Y-42604212D01*
X51916186Y-42581340D01*
X51846697Y-42544197D01*
X51785789Y-42494211D01*
X51735803Y-42433304D01*
X51698662Y-42363817D01*
X51698661Y-42363814D01*
X51698660Y-42363813D01*
X51675788Y-42288413D01*
X51670000Y-42229646D01*
X51670000Y-41590355D01*
X51675789Y-41531588D01*
X51675789Y-41531586D01*
X51698661Y-41456186D01*
X51735804Y-41386697D01*
X51785790Y-41325789D01*
X51846698Y-41275803D01*
X51916187Y-41238660D01*
X51991587Y-41215788D01*
X52070000Y-41208065D01*
X52148414Y-41215788D01*
X52148414Y-41215788D01*
G37*
G36*
X60408414Y-41215788D02*
X60483814Y-41238660D01*
X60553303Y-41275803D01*
X60614211Y-41325789D01*
X60664197Y-41386697D01*
X60701340Y-41456186D01*
X60724212Y-41531586D01*
X60730000Y-41590353D01*
X60730000Y-42229647D01*
X60724212Y-42288414D01*
X60701340Y-42363814D01*
X60664197Y-42433303D01*
X60664195Y-42433305D01*
X60614211Y-42494211D01*
X60553304Y-42544197D01*
X60483817Y-42581338D01*
X60483813Y-42581340D01*
X60408413Y-42604212D01*
X60330000Y-42611935D01*
X60251586Y-42604212D01*
X60176186Y-42581340D01*
X60106697Y-42544197D01*
X60045789Y-42494211D01*
X59995803Y-42433304D01*
X59958662Y-42363817D01*
X59958661Y-42363814D01*
X59958660Y-42363813D01*
X59935788Y-42288413D01*
X59930000Y-42229646D01*
X59930000Y-41590355D01*
X59935789Y-41531588D01*
X59935789Y-41531586D01*
X59958661Y-41456186D01*
X59995804Y-41386697D01*
X60045790Y-41325789D01*
X60106698Y-41275803D01*
X60176187Y-41238660D01*
X60251587Y-41215788D01*
X60330000Y-41208065D01*
X60408414Y-41215788D01*
X60408414Y-41215788D01*
G37*
G36*
X29864612Y-36798037D02*
X30092096Y-36892264D01*
X30296831Y-37029064D01*
X30470936Y-37203169D01*
X30607736Y-37407904D01*
X30701963Y-37635388D01*
X30750000Y-37876885D01*
X30750000Y-38123115D01*
X30701963Y-38364612D01*
X30607736Y-38592096D01*
X30470936Y-38796831D01*
X30296831Y-38970936D01*
X30092096Y-39107736D01*
X29864612Y-39201963D01*
X29623115Y-39250000D01*
X29376885Y-39250000D01*
X29135388Y-39201963D01*
X28907904Y-39107736D01*
X28703169Y-38970936D01*
X28529064Y-38796831D01*
X28392264Y-38592096D01*
X28298037Y-38364612D01*
X28250000Y-38123115D01*
X28250000Y-37876885D01*
X28298037Y-37635388D01*
X28392264Y-37407904D01*
X28529064Y-37203169D01*
X28703169Y-37029064D01*
X28907904Y-36892264D01*
X29135388Y-36798037D01*
X29376885Y-36750000D01*
X29623115Y-36750000D01*
X29864612Y-36798037D01*
X29864612Y-36798037D01*
G37*
G36*
X67864612Y-36798037D02*
X68092096Y-36892264D01*
X68296831Y-37029064D01*
X68470936Y-37203169D01*
X68607736Y-37407904D01*
X68701963Y-37635388D01*
X68750000Y-37876885D01*
X68750000Y-38123115D01*
X68701963Y-38364612D01*
X68607736Y-38592096D01*
X68470936Y-38796831D01*
X68296831Y-38970936D01*
X68092096Y-39107736D01*
X67864612Y-39201963D01*
X67623115Y-39250000D01*
X67376885Y-39250000D01*
X67135388Y-39201963D01*
X66907904Y-39107736D01*
X66703169Y-38970936D01*
X66529064Y-38796831D01*
X66392264Y-38592096D01*
X66298037Y-38364612D01*
X66250000Y-38123115D01*
X66250000Y-37876885D01*
X66298037Y-37635388D01*
X66392264Y-37407904D01*
X66529064Y-37203169D01*
X66703169Y-37029064D01*
X66907904Y-36892264D01*
X67135388Y-36798037D01*
X67376885Y-36750000D01*
X67623115Y-36750000D01*
X67864612Y-36798037D01*
X67864612Y-36798037D01*
G37*
G36*
X39586630Y-36162299D02*
X39746855Y-36210903D01*
X39894520Y-36289831D01*
X40023949Y-36396051D01*
X40130169Y-36525480D01*
X40209097Y-36673145D01*
X40257701Y-36833370D01*
X40274112Y-37000000D01*
X40257701Y-37166630D01*
X40209097Y-37326855D01*
X40130169Y-37474520D01*
X40023949Y-37603949D01*
X39894520Y-37710169D01*
X39746855Y-37789097D01*
X39586630Y-37837701D01*
X39461752Y-37850000D01*
X39378248Y-37850000D01*
X39253370Y-37837701D01*
X39093145Y-37789097D01*
X38945480Y-37710169D01*
X38816051Y-37603949D01*
X38709831Y-37474520D01*
X38630903Y-37326855D01*
X38582299Y-37166630D01*
X38565888Y-37000000D01*
X38582299Y-36833370D01*
X38630903Y-36673145D01*
X38709831Y-36525480D01*
X38816051Y-36396051D01*
X38945480Y-36289831D01*
X39093145Y-36210903D01*
X39253370Y-36162299D01*
X39378248Y-36150000D01*
X39461752Y-36150000D01*
X39586630Y-36162299D01*
X39586630Y-36162299D01*
G37*
G36*
X47206630Y-36162299D02*
X47366855Y-36210903D01*
X47514520Y-36289831D01*
X47643949Y-36396051D01*
X47750169Y-36525480D01*
X47829097Y-36673145D01*
X47877701Y-36833370D01*
X47894112Y-37000000D01*
X47877701Y-37166630D01*
X47829097Y-37326855D01*
X47750169Y-37474520D01*
X47643949Y-37603949D01*
X47514520Y-37710169D01*
X47366855Y-37789097D01*
X47206630Y-37837701D01*
X47081752Y-37850000D01*
X46998248Y-37850000D01*
X46873370Y-37837701D01*
X46713145Y-37789097D01*
X46565480Y-37710169D01*
X46436051Y-37603949D01*
X46329831Y-37474520D01*
X46250903Y-37326855D01*
X46202299Y-37166630D01*
X46185888Y-37000000D01*
X46202299Y-36833370D01*
X46250903Y-36673145D01*
X46329831Y-36525480D01*
X46436051Y-36396051D01*
X46565480Y-36289831D01*
X46713145Y-36210903D01*
X46873370Y-36162299D01*
X46998248Y-36150000D01*
X47081752Y-36150000D01*
X47206630Y-36162299D01*
X47206630Y-36162299D01*
G37*
G36*
X44666630Y-36162299D02*
X44826855Y-36210903D01*
X44974520Y-36289831D01*
X45103949Y-36396051D01*
X45210169Y-36525480D01*
X45289097Y-36673145D01*
X45337701Y-36833370D01*
X45354112Y-37000000D01*
X45337701Y-37166630D01*
X45289097Y-37326855D01*
X45210169Y-37474520D01*
X45103949Y-37603949D01*
X44974520Y-37710169D01*
X44826855Y-37789097D01*
X44666630Y-37837701D01*
X44541752Y-37850000D01*
X44458248Y-37850000D01*
X44333370Y-37837701D01*
X44173145Y-37789097D01*
X44025480Y-37710169D01*
X43896051Y-37603949D01*
X43789831Y-37474520D01*
X43710903Y-37326855D01*
X43662299Y-37166630D01*
X43645888Y-37000000D01*
X43662299Y-36833370D01*
X43710903Y-36673145D01*
X43789831Y-36525480D01*
X43896051Y-36396051D01*
X44025480Y-36289831D01*
X44173145Y-36210903D01*
X44333370Y-36162299D01*
X44458248Y-36150000D01*
X44541752Y-36150000D01*
X44666630Y-36162299D01*
X44666630Y-36162299D01*
G37*
G36*
X42126630Y-36162299D02*
X42286855Y-36210903D01*
X42434520Y-36289831D01*
X42563949Y-36396051D01*
X42670169Y-36525480D01*
X42749097Y-36673145D01*
X42797701Y-36833370D01*
X42814112Y-37000000D01*
X42797701Y-37166630D01*
X42749097Y-37326855D01*
X42670169Y-37474520D01*
X42563949Y-37603949D01*
X42434520Y-37710169D01*
X42286855Y-37789097D01*
X42126630Y-37837701D01*
X42001752Y-37850000D01*
X41918248Y-37850000D01*
X41793370Y-37837701D01*
X41633145Y-37789097D01*
X41485480Y-37710169D01*
X41356051Y-37603949D01*
X41249831Y-37474520D01*
X41170903Y-37326855D01*
X41122299Y-37166630D01*
X41105888Y-37000000D01*
X41122299Y-36833370D01*
X41170903Y-36673145D01*
X41249831Y-36525480D01*
X41356051Y-36396051D01*
X41485480Y-36289831D01*
X41633145Y-36210903D01*
X41793370Y-36162299D01*
X41918248Y-36150000D01*
X42001752Y-36150000D01*
X42126630Y-36162299D01*
X42126630Y-36162299D01*
G37*
G36*
X37730000Y-37850000D02*
X36030000Y-37850000D01*
X36030000Y-36150000D01*
X37730000Y-36150000D01*
X37730000Y-37850000D01*
X37730000Y-37850000D01*
G37*
G36*
X51788414Y-35265788D02*
X51863814Y-35288660D01*
X51933303Y-35325803D01*
X51994211Y-35375789D01*
X52044197Y-35436697D01*
X52081340Y-35506186D01*
X52104212Y-35581586D01*
X52110000Y-35640353D01*
X52110000Y-36279647D01*
X52104212Y-36338414D01*
X52081340Y-36413814D01*
X52044197Y-36483303D01*
X52044195Y-36483305D01*
X51994211Y-36544211D01*
X51933304Y-36594197D01*
X51863817Y-36631338D01*
X51863813Y-36631340D01*
X51788413Y-36654212D01*
X51710000Y-36661935D01*
X51631586Y-36654212D01*
X51556186Y-36631340D01*
X51486697Y-36594197D01*
X51425789Y-36544211D01*
X51375803Y-36483304D01*
X51338662Y-36413817D01*
X51338661Y-36413814D01*
X51338660Y-36413813D01*
X51315788Y-36338413D01*
X51310000Y-36279646D01*
X51310000Y-35640355D01*
X51315789Y-35581588D01*
X51315789Y-35581586D01*
X51338661Y-35506186D01*
X51375804Y-35436697D01*
X51425790Y-35375789D01*
X51486698Y-35325803D01*
X51556187Y-35288660D01*
X51631587Y-35265788D01*
X51710000Y-35258065D01*
X51788414Y-35265788D01*
X51788414Y-35265788D01*
G37*
G36*
X60768414Y-35265788D02*
X60843814Y-35288660D01*
X60913303Y-35325803D01*
X60974211Y-35375789D01*
X61024197Y-35436697D01*
X61061340Y-35506186D01*
X61084212Y-35581586D01*
X61090000Y-35640353D01*
X61090000Y-36279647D01*
X61084212Y-36338414D01*
X61061340Y-36413814D01*
X61024197Y-36483303D01*
X61024195Y-36483305D01*
X60974211Y-36544211D01*
X60913304Y-36594197D01*
X60843817Y-36631338D01*
X60843813Y-36631340D01*
X60768413Y-36654212D01*
X60690000Y-36661935D01*
X60611586Y-36654212D01*
X60536186Y-36631340D01*
X60466697Y-36594197D01*
X60405789Y-36544211D01*
X60355803Y-36483304D01*
X60318662Y-36413817D01*
X60318661Y-36413814D01*
X60318660Y-36413813D01*
X60295788Y-36338413D01*
X60290000Y-36279646D01*
X60290000Y-35640355D01*
X60295789Y-35581588D01*
X60295789Y-35581586D01*
X60318661Y-35506186D01*
X60355804Y-35436697D01*
X60405790Y-35375789D01*
X60466698Y-35325803D01*
X60536187Y-35288660D01*
X60611587Y-35265788D01*
X60690000Y-35258065D01*
X60768414Y-35265788D01*
X60768414Y-35265788D01*
G37*
M02*
