G04 #@! TF.GenerationSoftware,KiCad,Pcbnew,(5.0.0-rc3)*
G04 #@! TF.CreationDate,2018-08-22T20:47:19+02:00*
G04 #@! TF.ProjectId,Adapter,416461707465722E6B696361645F7063,rev?*
G04 #@! TF.SameCoordinates,Original*
G04 #@! TF.FileFunction,Copper,L1,Top,Signal*
G04 #@! TF.FilePolarity,Positive*
%FSLAX46Y46*%
G04 Gerber Fmt 4.6, Leading zero omitted, Abs format (unit mm)*
G04 Created by KiCad (PCBNEW (5.0.0-rc3)) date Wed Aug 22 20:47:19 2018*
%MOMM*%
%LPD*%
G01*
G04 APERTURE LIST*
G04 #@! TA.AperFunction,SMDPad,CuDef*
%ADD10R,1.000000X1.000000*%
G04 #@! TD*
G04 #@! TA.AperFunction,ComponentPad*
%ADD11C,2.400000*%
G04 #@! TD*
G04 #@! TA.AperFunction,ComponentPad*
%ADD12C,1.000000*%
G04 #@! TD*
G04 #@! TA.AperFunction,ComponentPad*
%ADD13R,1.000000X1.000000*%
G04 #@! TD*
G04 #@! TA.AperFunction,ComponentPad*
%ADD14O,2.200000X1.200000*%
G04 #@! TD*
G04 #@! TA.AperFunction,SMDPad,CuDef*
%ADD15R,1.800000X3.400000*%
G04 #@! TD*
G04 #@! TA.AperFunction,BGAPad,CuDef*
%ADD16C,1.000000*%
G04 #@! TD*
G04 #@! TA.AperFunction,Conductor*
%ADD17C,0.100000*%
G04 #@! TD*
G04 #@! TA.AperFunction,SMDPad,CuDef*
%ADD18C,0.975000*%
G04 #@! TD*
G04 #@! TA.AperFunction,ComponentPad*
%ADD19O,1.700000X1.200000*%
G04 #@! TD*
G04 #@! TA.AperFunction,SMDPad,CuDef*
%ADD20R,0.300000X1.300000*%
G04 #@! TD*
G04 #@! TA.AperFunction,SMDPad,CuDef*
%ADD21R,0.400000X1.350000*%
G04 #@! TD*
G04 #@! TA.AperFunction,ComponentPad*
%ADD22O,1.250000X0.950000*%
G04 #@! TD*
G04 #@! TA.AperFunction,ComponentPad*
%ADD23O,1.000000X1.550000*%
G04 #@! TD*
G04 #@! TA.AperFunction,ViaPad*
%ADD24C,0.460000*%
G04 #@! TD*
G04 #@! TA.AperFunction,ViaPad*
%ADD25C,0.700000*%
G04 #@! TD*
G04 #@! TA.AperFunction,Conductor*
%ADD26C,0.101000*%
G04 #@! TD*
G04 #@! TA.AperFunction,Conductor*
%ADD27C,0.270000*%
G04 #@! TD*
G04 #@! TA.AperFunction,Conductor*
%ADD28C,0.500000*%
G04 #@! TD*
G04 #@! TA.AperFunction,Conductor*
%ADD29C,0.200000*%
G04 #@! TD*
G04 #@! TA.AperFunction,Conductor*
%ADD30C,0.220000*%
G04 #@! TD*
G04 #@! TA.AperFunction,Conductor*
%ADD31C,0.190000*%
G04 #@! TD*
G04 #@! TA.AperFunction,Conductor*
%ADD32C,0.357000*%
G04 #@! TD*
G04 APERTURE END LIST*
D10*
G04 #@! TO.P,D2+,1*
G04 #@! TO.N,/D2-*
X23650000Y-16920000D03*
G04 #@! TD*
G04 #@! TO.P,D2-,1*
G04 #@! TO.N,/D2+*
X22094999Y-16925001D03*
G04 #@! TD*
D11*
G04 #@! TO.P,J2,SH*
G04 #@! TO.N,GND*
X44315575Y-23957256D03*
D12*
G04 #@! TO.P,J2,2*
X37585575Y-18957256D03*
G04 #@! TO.P,J2,5*
X37585575Y-20457256D03*
G04 #@! TO.P,J2,8*
X37585575Y-21957256D03*
G04 #@! TO.P,J2,11*
X37585575Y-23457256D03*
G04 #@! TO.P,J2,14*
G04 #@! TO.N,/CONFIG2*
X37585575Y-24957256D03*
G04 #@! TO.P,J2,17*
G04 #@! TO.N,/AUX-*
X37585575Y-26457256D03*
G04 #@! TO.P,J2,20*
G04 #@! TO.N,/DP_PWR*
X37585575Y-27957256D03*
D13*
G04 #@! TO.P,J2,1*
G04 #@! TO.N,/DP3-*
X36085575Y-18457256D03*
D12*
G04 #@! TO.P,J2,4*
G04 #@! TO.N,/DP2-*
X36085575Y-19957256D03*
G04 #@! TO.P,J2,7*
G04 #@! TO.N,/DP1-*
X36085575Y-21457256D03*
G04 #@! TO.P,J2,10*
G04 #@! TO.N,/DP0-*
X36085575Y-22957256D03*
G04 #@! TO.P,J2,13*
G04 #@! TO.N,/CONFIG1*
X36085575Y-24457256D03*
G04 #@! TO.P,J2,16*
G04 #@! TO.N,GND*
X36085575Y-25957256D03*
G04 #@! TO.P,J2,19*
G04 #@! TO.N,/RETPOW*
X36085575Y-27457256D03*
G04 #@! TO.P,J2,3*
G04 #@! TO.N,/DP3+*
X34585575Y-19457256D03*
G04 #@! TO.P,J2,6*
G04 #@! TO.N,/DP2+*
X34585575Y-20957256D03*
G04 #@! TO.P,J2,9*
G04 #@! TO.N,/DP1+*
X34585575Y-22457256D03*
G04 #@! TO.P,J2,12*
G04 #@! TO.N,/DP0+*
X34585575Y-23957256D03*
G04 #@! TO.P,J2,15*
G04 #@! TO.N,/AUX+*
X34585575Y-25457256D03*
G04 #@! TO.P,J2,18*
G04 #@! TO.N,/HPD*
X34585575Y-26957256D03*
D14*
G04 #@! TO.P,J2,SH*
G04 #@! TO.N,GND*
X43415575Y-15707256D03*
X43415575Y-32207256D03*
X36635575Y-15707256D03*
X36635575Y-32207256D03*
G04 #@! TD*
D15*
G04 #@! TO.P,GND,1*
G04 #@! TO.N,GND*
X17740574Y-30782257D03*
G04 #@! TD*
G04 #@! TO.P,5V,1*
G04 #@! TO.N,VBUS*
X17740574Y-26432257D03*
G04 #@! TD*
D16*
G04 #@! TO.P,CC2,1*
G04 #@! TO.N,/CC2*
X18960000Y-17270000D03*
G04 #@! TD*
G04 #@! TO.P,CC1,1*
G04 #@! TO.N,/CC1*
X24190000Y-24840000D03*
G04 #@! TD*
D17*
G04 #@! TO.N,GND*
G04 #@! TO.C,2k*
G36*
X30508217Y-28458430D02*
X30531878Y-28461940D01*
X30555082Y-28467752D01*
X30577604Y-28475810D01*
X30599228Y-28486038D01*
X30619745Y-28498335D01*
X30638958Y-28512585D01*
X30656682Y-28528649D01*
X30672746Y-28546373D01*
X30686996Y-28565586D01*
X30699293Y-28586103D01*
X30709521Y-28607727D01*
X30717579Y-28630249D01*
X30723391Y-28653453D01*
X30726901Y-28677114D01*
X30728075Y-28701006D01*
X30728075Y-29613506D01*
X30726901Y-29637398D01*
X30723391Y-29661059D01*
X30717579Y-29684263D01*
X30709521Y-29706785D01*
X30699293Y-29728409D01*
X30686996Y-29748926D01*
X30672746Y-29768139D01*
X30656682Y-29785863D01*
X30638958Y-29801927D01*
X30619745Y-29816177D01*
X30599228Y-29828474D01*
X30577604Y-29838702D01*
X30555082Y-29846760D01*
X30531878Y-29852572D01*
X30508217Y-29856082D01*
X30484325Y-29857256D01*
X29996825Y-29857256D01*
X29972933Y-29856082D01*
X29949272Y-29852572D01*
X29926068Y-29846760D01*
X29903546Y-29838702D01*
X29881922Y-29828474D01*
X29861405Y-29816177D01*
X29842192Y-29801927D01*
X29824468Y-29785863D01*
X29808404Y-29768139D01*
X29794154Y-29748926D01*
X29781857Y-29728409D01*
X29771629Y-29706785D01*
X29763571Y-29684263D01*
X29757759Y-29661059D01*
X29754249Y-29637398D01*
X29753075Y-29613506D01*
X29753075Y-28701006D01*
X29754249Y-28677114D01*
X29757759Y-28653453D01*
X29763571Y-28630249D01*
X29771629Y-28607727D01*
X29781857Y-28586103D01*
X29794154Y-28565586D01*
X29808404Y-28546373D01*
X29824468Y-28528649D01*
X29842192Y-28512585D01*
X29861405Y-28498335D01*
X29881922Y-28486038D01*
X29903546Y-28475810D01*
X29926068Y-28467752D01*
X29949272Y-28461940D01*
X29972933Y-28458430D01*
X29996825Y-28457256D01*
X30484325Y-28457256D01*
X30508217Y-28458430D01*
X30508217Y-28458430D01*
G37*
D18*
G04 #@! TD*
G04 #@! TO.P,2k,2*
G04 #@! TO.N,GND*
X30240575Y-29157256D03*
D17*
G04 #@! TO.N,/HPD*
G04 #@! TO.C,2k*
G36*
X32383217Y-28458430D02*
X32406878Y-28461940D01*
X32430082Y-28467752D01*
X32452604Y-28475810D01*
X32474228Y-28486038D01*
X32494745Y-28498335D01*
X32513958Y-28512585D01*
X32531682Y-28528649D01*
X32547746Y-28546373D01*
X32561996Y-28565586D01*
X32574293Y-28586103D01*
X32584521Y-28607727D01*
X32592579Y-28630249D01*
X32598391Y-28653453D01*
X32601901Y-28677114D01*
X32603075Y-28701006D01*
X32603075Y-29613506D01*
X32601901Y-29637398D01*
X32598391Y-29661059D01*
X32592579Y-29684263D01*
X32584521Y-29706785D01*
X32574293Y-29728409D01*
X32561996Y-29748926D01*
X32547746Y-29768139D01*
X32531682Y-29785863D01*
X32513958Y-29801927D01*
X32494745Y-29816177D01*
X32474228Y-29828474D01*
X32452604Y-29838702D01*
X32430082Y-29846760D01*
X32406878Y-29852572D01*
X32383217Y-29856082D01*
X32359325Y-29857256D01*
X31871825Y-29857256D01*
X31847933Y-29856082D01*
X31824272Y-29852572D01*
X31801068Y-29846760D01*
X31778546Y-29838702D01*
X31756922Y-29828474D01*
X31736405Y-29816177D01*
X31717192Y-29801927D01*
X31699468Y-29785863D01*
X31683404Y-29768139D01*
X31669154Y-29748926D01*
X31656857Y-29728409D01*
X31646629Y-29706785D01*
X31638571Y-29684263D01*
X31632759Y-29661059D01*
X31629249Y-29637398D01*
X31628075Y-29613506D01*
X31628075Y-28701006D01*
X31629249Y-28677114D01*
X31632759Y-28653453D01*
X31638571Y-28630249D01*
X31646629Y-28607727D01*
X31656857Y-28586103D01*
X31669154Y-28565586D01*
X31683404Y-28546373D01*
X31699468Y-28528649D01*
X31717192Y-28512585D01*
X31736405Y-28498335D01*
X31756922Y-28486038D01*
X31778546Y-28475810D01*
X31801068Y-28467752D01*
X31824272Y-28461940D01*
X31847933Y-28458430D01*
X31871825Y-28457256D01*
X32359325Y-28457256D01*
X32383217Y-28458430D01*
X32383217Y-28458430D01*
G37*
D18*
G04 #@! TD*
G04 #@! TO.P,2k,1*
G04 #@! TO.N,/HPD*
X32115575Y-29157256D03*
D17*
G04 #@! TO.N,VBUS*
G04 #@! TO.C,1k*
G36*
X30508217Y-31358430D02*
X30531878Y-31361940D01*
X30555082Y-31367752D01*
X30577604Y-31375810D01*
X30599228Y-31386038D01*
X30619745Y-31398335D01*
X30638958Y-31412585D01*
X30656682Y-31428649D01*
X30672746Y-31446373D01*
X30686996Y-31465586D01*
X30699293Y-31486103D01*
X30709521Y-31507727D01*
X30717579Y-31530249D01*
X30723391Y-31553453D01*
X30726901Y-31577114D01*
X30728075Y-31601006D01*
X30728075Y-32513506D01*
X30726901Y-32537398D01*
X30723391Y-32561059D01*
X30717579Y-32584263D01*
X30709521Y-32606785D01*
X30699293Y-32628409D01*
X30686996Y-32648926D01*
X30672746Y-32668139D01*
X30656682Y-32685863D01*
X30638958Y-32701927D01*
X30619745Y-32716177D01*
X30599228Y-32728474D01*
X30577604Y-32738702D01*
X30555082Y-32746760D01*
X30531878Y-32752572D01*
X30508217Y-32756082D01*
X30484325Y-32757256D01*
X29996825Y-32757256D01*
X29972933Y-32756082D01*
X29949272Y-32752572D01*
X29926068Y-32746760D01*
X29903546Y-32738702D01*
X29881922Y-32728474D01*
X29861405Y-32716177D01*
X29842192Y-32701927D01*
X29824468Y-32685863D01*
X29808404Y-32668139D01*
X29794154Y-32648926D01*
X29781857Y-32628409D01*
X29771629Y-32606785D01*
X29763571Y-32584263D01*
X29757759Y-32561059D01*
X29754249Y-32537398D01*
X29753075Y-32513506D01*
X29753075Y-31601006D01*
X29754249Y-31577114D01*
X29757759Y-31553453D01*
X29763571Y-31530249D01*
X29771629Y-31507727D01*
X29781857Y-31486103D01*
X29794154Y-31465586D01*
X29808404Y-31446373D01*
X29824468Y-31428649D01*
X29842192Y-31412585D01*
X29861405Y-31398335D01*
X29881922Y-31386038D01*
X29903546Y-31375810D01*
X29926068Y-31367752D01*
X29949272Y-31361940D01*
X29972933Y-31358430D01*
X29996825Y-31357256D01*
X30484325Y-31357256D01*
X30508217Y-31358430D01*
X30508217Y-31358430D01*
G37*
D18*
G04 #@! TD*
G04 #@! TO.P,1k,1*
G04 #@! TO.N,VBUS*
X30240575Y-32057256D03*
D17*
G04 #@! TO.N,/HPD*
G04 #@! TO.C,1k*
G36*
X32383217Y-31358430D02*
X32406878Y-31361940D01*
X32430082Y-31367752D01*
X32452604Y-31375810D01*
X32474228Y-31386038D01*
X32494745Y-31398335D01*
X32513958Y-31412585D01*
X32531682Y-31428649D01*
X32547746Y-31446373D01*
X32561996Y-31465586D01*
X32574293Y-31486103D01*
X32584521Y-31507727D01*
X32592579Y-31530249D01*
X32598391Y-31553453D01*
X32601901Y-31577114D01*
X32603075Y-31601006D01*
X32603075Y-32513506D01*
X32601901Y-32537398D01*
X32598391Y-32561059D01*
X32592579Y-32584263D01*
X32584521Y-32606785D01*
X32574293Y-32628409D01*
X32561996Y-32648926D01*
X32547746Y-32668139D01*
X32531682Y-32685863D01*
X32513958Y-32701927D01*
X32494745Y-32716177D01*
X32474228Y-32728474D01*
X32452604Y-32738702D01*
X32430082Y-32746760D01*
X32406878Y-32752572D01*
X32383217Y-32756082D01*
X32359325Y-32757256D01*
X31871825Y-32757256D01*
X31847933Y-32756082D01*
X31824272Y-32752572D01*
X31801068Y-32746760D01*
X31778546Y-32738702D01*
X31756922Y-32728474D01*
X31736405Y-32716177D01*
X31717192Y-32701927D01*
X31699468Y-32685863D01*
X31683404Y-32668139D01*
X31669154Y-32648926D01*
X31656857Y-32628409D01*
X31646629Y-32606785D01*
X31638571Y-32584263D01*
X31632759Y-32561059D01*
X31629249Y-32537398D01*
X31628075Y-32513506D01*
X31628075Y-31601006D01*
X31629249Y-31577114D01*
X31632759Y-31553453D01*
X31638571Y-31530249D01*
X31646629Y-31507727D01*
X31656857Y-31486103D01*
X31669154Y-31465586D01*
X31683404Y-31446373D01*
X31699468Y-31428649D01*
X31717192Y-31412585D01*
X31736405Y-31398335D01*
X31756922Y-31386038D01*
X31778546Y-31375810D01*
X31801068Y-31367752D01*
X31824272Y-31361940D01*
X31847933Y-31358430D01*
X31871825Y-31357256D01*
X32359325Y-31357256D01*
X32383217Y-31358430D01*
X32383217Y-31358430D01*
G37*
D18*
G04 #@! TD*
G04 #@! TO.P,1k,2*
G04 #@! TO.N,/HPD*
X32115575Y-32057256D03*
D19*
G04 #@! TO.P,J3,S1*
G04 #@! TO.N,GND*
X26565575Y-19637256D03*
X18365575Y-19637256D03*
X18365575Y-22577256D03*
X26565575Y-22577256D03*
D20*
G04 #@! TO.P,J3,B1*
X19715575Y-19357256D03*
G04 #@! TO.P,J3,A12*
X19715575Y-22857256D03*
G04 #@! TO.P,J3,B2*
G04 #@! TO.N,/DP1+*
X20215575Y-19357256D03*
G04 #@! TO.P,J3,A11*
G04 #@! TO.N,/DP0+*
X20215575Y-22857256D03*
G04 #@! TO.P,J3,B3*
G04 #@! TO.N,/DP1-*
X20715575Y-19357256D03*
G04 #@! TO.P,J3,A10*
G04 #@! TO.N,/DP0-*
X20715575Y-22857256D03*
G04 #@! TO.P,J3,B4*
G04 #@! TO.N,VBUS*
X21215575Y-19357256D03*
G04 #@! TO.P,J3,A9*
X21215575Y-22857256D03*
G04 #@! TO.P,J3,B5*
G04 #@! TO.N,/CC2*
X21715575Y-19357256D03*
G04 #@! TO.P,J3,A8*
G04 #@! TO.N,/pAUX+*
X21715575Y-22857256D03*
G04 #@! TO.P,J3,B6*
G04 #@! TO.N,/D2+*
X22215575Y-19357256D03*
G04 #@! TO.P,J3,A7*
G04 #@! TO.N,/D-*
X22215575Y-22857256D03*
G04 #@! TO.P,J3,B7*
G04 #@! TO.N,/D2-*
X22715575Y-19357256D03*
G04 #@! TO.P,J3,A6*
G04 #@! TO.N,/D+*
X22715575Y-22857256D03*
G04 #@! TO.P,J3,B8*
G04 #@! TO.N,/pAUX-*
X23215575Y-19357256D03*
G04 #@! TO.P,J3,A5*
G04 #@! TO.N,/CC1*
X23215575Y-22857256D03*
G04 #@! TO.P,J3,B9*
G04 #@! TO.N,VBUS*
X23715575Y-19357256D03*
G04 #@! TO.P,J3,A4*
X23715575Y-22857256D03*
G04 #@! TO.P,J3,B10*
G04 #@! TO.N,/DP3-*
X24215575Y-19357256D03*
G04 #@! TO.P,J3,A3*
G04 #@! TO.N,/DP2-*
X24215575Y-22857256D03*
G04 #@! TO.P,J3,B11*
G04 #@! TO.N,/DP3+*
X24715575Y-19357256D03*
G04 #@! TO.P,J3,A2*
G04 #@! TO.N,/DP2+*
X24715575Y-22857256D03*
G04 #@! TO.P,J3,B12*
G04 #@! TO.N,GND*
X25215575Y-19357256D03*
G04 #@! TO.P,J3,A1*
X25215575Y-22857256D03*
G04 #@! TD*
D21*
G04 #@! TO.P,J1,3*
G04 #@! TO.N,/D+*
X24015575Y-28857256D03*
G04 #@! TO.P,J1,4*
G04 #@! TO.N,Net-(J1-Pad4)*
X24665575Y-28857256D03*
G04 #@! TO.P,J1,5*
G04 #@! TO.N,GND*
X25315575Y-28857256D03*
G04 #@! TO.P,J1,2*
G04 #@! TO.N,/D-*
X23365575Y-28857256D03*
G04 #@! TO.P,J1,1*
G04 #@! TO.N,VBUS*
X22715575Y-28857256D03*
D22*
G04 #@! TO.P,J1,SH*
G04 #@! TO.N,N/C*
X26515575Y-28857256D03*
X21515575Y-28857256D03*
D23*
X20515575Y-31557256D03*
X27515575Y-31557256D03*
G04 #@! TD*
D24*
G04 #@! TO.N,/D+*
X23417536Y-27092464D03*
X22673500Y-24910000D03*
G04 #@! TO.N,GND*
X41370000Y-18840000D03*
X41370000Y-20720000D03*
X41320000Y-22630000D03*
X41370000Y-25020000D03*
X41370000Y-27120000D03*
X41400000Y-29650000D03*
X34310000Y-29070000D03*
X34340000Y-30830000D03*
D25*
X19415575Y-29757256D03*
D24*
X25650000Y-18370000D03*
D25*
X43400000Y-17570000D03*
X25580000Y-27510000D03*
X25520000Y-30210000D03*
X19330000Y-23900000D03*
X19330000Y-20430000D03*
X26500000Y-23590000D03*
D24*
X34970000Y-28190000D03*
D25*
X29140002Y-29660000D03*
D24*
X30350000Y-23040000D03*
X30500000Y-19260002D03*
G04 #@! TO.N,/D-*
X23002464Y-27507536D03*
X22086500Y-24910000D03*
G04 #@! TO.N,/DP2+*
X26420000Y-24456500D03*
G04 #@! TO.N,/DP2-*
X26420000Y-25043500D03*
G04 #@! TO.N,/pAUX+*
X21630000Y-23810000D03*
G04 #@! TO.N,/pAUX-*
X23300000Y-18400000D03*
G04 #@! TD*
D26*
G04 #@! TO.N,/D+*
X23804575Y-27733354D02*
X23417536Y-27346315D01*
X23417536Y-27346315D02*
X23417536Y-27092464D01*
X24015575Y-28382256D02*
X23804575Y-28171256D01*
X24015575Y-28857256D02*
X24015575Y-28382256D01*
X23804575Y-28171256D02*
X23804575Y-27733354D01*
X22543076Y-23649257D02*
X22543076Y-23029755D01*
X22507576Y-23684757D02*
X22543076Y-23649257D01*
X22470000Y-23684757D02*
X22507576Y-23684757D01*
X22673500Y-24910000D02*
X22470000Y-24706500D01*
X22543076Y-23029755D02*
X22715575Y-22857256D01*
X22470000Y-24706500D02*
X22470000Y-23684757D01*
D27*
G04 #@! TO.N,GND*
X41370000Y-18840000D02*
X41370000Y-20720000D01*
X41320000Y-22630000D02*
X41320000Y-24970000D01*
X41320000Y-24970000D02*
X41370000Y-25020000D01*
X41370000Y-27120000D02*
X41370000Y-29620000D01*
X41370000Y-29620000D02*
X41400000Y-29650000D01*
X34310000Y-29070000D02*
X34310000Y-30800000D01*
X34310000Y-30800000D02*
X34340000Y-30830000D01*
D28*
X17740574Y-30782257D02*
X18390574Y-30782257D01*
X18390574Y-30782257D02*
X19415575Y-29757256D01*
X38085574Y-23957255D02*
X38315574Y-23957255D01*
X37585575Y-23457256D02*
X38085574Y-23957255D01*
D27*
X26285575Y-19357256D02*
X26565575Y-19637256D01*
X25215575Y-19357256D02*
X26285575Y-19357256D01*
X25215575Y-19357256D02*
X25215575Y-18804425D01*
X25215575Y-18804425D02*
X25650000Y-18370000D01*
D28*
X43415575Y-15707256D02*
X43415575Y-17554425D01*
X43415575Y-17554425D02*
X43400000Y-17570000D01*
X25315575Y-28857256D02*
X25315575Y-27774425D01*
X25315575Y-27774425D02*
X25580000Y-27510000D01*
X25315575Y-28857256D02*
X25315575Y-30005575D01*
X25315575Y-30005575D02*
X25520000Y-30210000D01*
X18365575Y-22577256D02*
X19435575Y-22577256D01*
X18365575Y-22577256D02*
X18927256Y-22577256D01*
X18927256Y-22577256D02*
X19330000Y-22980000D01*
X19330000Y-22980000D02*
X19330000Y-23900000D01*
X18365575Y-19637256D02*
X18537256Y-19637256D01*
X18537256Y-19637256D02*
X19330000Y-20430000D01*
X26565575Y-22577256D02*
X25495575Y-22577256D01*
X26565575Y-22577256D02*
X26565575Y-23524425D01*
X26565575Y-23524425D02*
X26500000Y-23590000D01*
D29*
X25495575Y-22577256D02*
X25215575Y-22857256D01*
X19330000Y-22892831D02*
X19330000Y-22980000D01*
X19365575Y-22857256D02*
X19330000Y-22892831D01*
X19715575Y-22857256D02*
X19365575Y-22857256D01*
D30*
X19715575Y-20044425D02*
X19330000Y-20430000D01*
X19715575Y-19357256D02*
X19715575Y-20044425D01*
D28*
X29490001Y-29310001D02*
X29140002Y-29660000D01*
X30240575Y-29157256D02*
X29642746Y-29157256D01*
X29642746Y-29157256D02*
X29490001Y-29310001D01*
D26*
G04 #@! TO.N,/D-*
X23256315Y-27507536D02*
X23002464Y-27507536D01*
X23576575Y-27827796D02*
X23256315Y-27507536D01*
X23576575Y-28171256D02*
X23576575Y-27827796D01*
X23365575Y-28857256D02*
X23365575Y-28382256D01*
X23365575Y-28382256D02*
X23576575Y-28171256D01*
X22215575Y-23034815D02*
X22215575Y-22857256D01*
X22215575Y-24780925D02*
X22215575Y-23034815D01*
X22086500Y-24910000D02*
X22215575Y-24780925D01*
D28*
G04 #@! TO.N,VBUS*
X22715575Y-29932256D02*
X22715575Y-28857256D01*
X25415585Y-32632266D02*
X22715575Y-29932256D01*
D27*
X29665565Y-32632266D02*
X25415585Y-32632266D01*
D28*
X30240575Y-32057256D02*
X29665565Y-32632266D01*
X22715575Y-28382256D02*
X21890575Y-27557256D01*
X22715575Y-28857256D02*
X22715575Y-28382256D01*
X21890575Y-27557256D02*
X20915575Y-27557256D01*
X16997577Y-23157256D02*
X16827573Y-23157256D01*
D27*
X16827573Y-23157256D02*
X16365574Y-22695257D01*
X21215575Y-22857256D02*
X21215575Y-22007256D01*
D28*
X17740574Y-26432257D02*
X17740574Y-26332257D01*
X17740574Y-26332257D02*
X18915575Y-25157256D01*
X18915575Y-25157256D02*
X18915575Y-25075254D01*
X18915575Y-25075254D02*
X16997577Y-23157256D01*
X18915575Y-25557256D02*
X20915575Y-27557256D01*
X18915575Y-25075254D02*
X18915575Y-25557256D01*
X21272831Y-21950000D02*
X21215575Y-22007256D01*
X21315576Y-21907255D02*
X21272831Y-21950000D01*
X23715575Y-22017254D02*
X23605576Y-21907255D01*
D27*
X23605576Y-21907255D02*
X21315576Y-21907255D01*
X23715575Y-22857256D02*
X23715575Y-22017254D01*
X23715575Y-20207256D02*
X23715575Y-19357256D01*
X21338319Y-20330000D02*
X23592831Y-20330000D01*
X21215575Y-19357256D02*
X21215575Y-20207256D01*
D28*
X23592831Y-20330000D02*
X23715575Y-20207256D01*
D27*
X21215575Y-20207256D02*
X21338319Y-20330000D01*
X16365574Y-22695257D02*
X16365574Y-21780000D01*
D28*
X16365574Y-21780000D02*
X16365574Y-20041681D01*
X16365574Y-20041681D02*
X17215565Y-19191690D01*
D27*
X21315576Y-21907255D02*
X20507255Y-21907255D01*
X20507255Y-21907255D02*
X20500000Y-21900000D01*
D28*
X16645574Y-21500000D02*
X16365574Y-21780000D01*
D27*
X20200000Y-21500000D02*
X16645574Y-21500000D01*
X20200000Y-21600000D02*
X20507255Y-21907255D01*
D28*
X20200000Y-21500000D02*
X20200000Y-21600000D01*
X17215565Y-19191690D02*
X17215565Y-19154435D01*
X17862745Y-18507255D02*
X19150000Y-18507255D01*
X17215565Y-19154435D02*
X17862745Y-18507255D01*
D29*
X19187255Y-18470000D02*
X19150000Y-18507255D01*
X21215575Y-19357256D02*
X21215574Y-18470000D01*
X21215574Y-18470000D02*
X19187255Y-18470000D01*
D26*
G04 #@! TO.N,/DP3+*
X28331241Y-18612263D02*
X28281962Y-18533836D01*
X30841000Y-16751000D02*
X30835709Y-16704048D01*
X28396737Y-18677759D02*
X28331241Y-18612263D01*
X30841000Y-18354367D02*
X30841000Y-16751000D01*
X31765033Y-16619443D02*
X31739895Y-16659450D01*
X30851370Y-18446409D02*
X30841000Y-18354367D01*
X31798443Y-16586033D02*
X31765033Y-16619443D01*
X31075164Y-18727038D02*
X30996737Y-18677759D01*
X29954633Y-18768000D02*
X29862591Y-18757630D01*
X30881962Y-18533836D02*
X30851370Y-18446409D01*
X31838450Y-16560895D02*
X31798443Y-16586033D01*
X31254633Y-18768000D02*
X31162591Y-18757630D01*
X29330000Y-16540000D02*
X29283048Y-16545290D01*
X31563262Y-18677759D02*
X31484835Y-18727038D01*
X29376951Y-16545290D02*
X29330000Y-16540000D01*
X31678037Y-18533836D02*
X31628758Y-18612263D01*
X31719000Y-16751000D02*
X31719000Y-18354367D01*
X33665452Y-18419183D02*
X33902121Y-18182511D01*
X32462591Y-17643629D02*
X32375164Y-17613037D01*
X29535709Y-16704048D02*
X29520104Y-16659450D01*
X31724290Y-16704048D02*
X31719000Y-16751000D01*
X33624015Y-18485127D02*
X33641018Y-18449821D01*
X29541000Y-16751000D02*
X29535709Y-16704048D01*
X24579575Y-18721256D02*
X24715575Y-18857256D01*
X30996737Y-18677759D02*
X30931241Y-18612263D01*
X34331154Y-18388565D02*
X34292948Y-18379844D01*
X32135709Y-16704048D02*
X32120104Y-16659450D01*
X32141000Y-17240366D02*
X32141000Y-16751000D01*
X34215556Y-18388565D02*
X34180248Y-18405566D01*
X31739895Y-16659450D02*
X31724290Y-16704048D01*
X29541000Y-18354367D02*
X29541000Y-16751000D01*
X32181962Y-17419835D02*
X32151370Y-17332408D01*
X32151370Y-17332408D02*
X32141000Y-17240366D01*
X32094966Y-16619443D02*
X32061556Y-16586033D01*
X30097408Y-18757630D02*
X30005366Y-18768000D01*
X31305366Y-18768000D02*
X31254633Y-18768000D01*
X33769602Y-18716827D02*
X33731396Y-18708106D01*
X34292948Y-18379844D02*
X34253760Y-18379844D01*
X31708629Y-18446409D02*
X31678037Y-18533836D01*
X30761556Y-16586033D02*
X30721549Y-16560895D01*
X32231241Y-17498262D02*
X32181962Y-17419835D01*
X33641017Y-18636031D02*
X33624015Y-18600725D01*
X33621098Y-17654000D02*
X32554633Y-17654000D01*
X31397408Y-18757630D02*
X31305366Y-18768000D01*
X33615296Y-18562521D02*
X33615296Y-18523333D01*
X28884835Y-18727038D02*
X28797408Y-18757630D01*
X33902121Y-18182511D02*
X33926555Y-18151874D01*
X33615296Y-18523333D02*
X33624015Y-18485127D01*
X33696089Y-18691103D02*
X33665452Y-18666671D01*
X29028758Y-18612263D02*
X28963262Y-18677759D01*
X34149610Y-18430000D02*
X33912940Y-18666671D01*
X34253760Y-18379844D02*
X34215556Y-18388565D01*
X32120104Y-16659450D02*
X32094966Y-16619443D01*
X34397098Y-18430000D02*
X34366460Y-18405567D01*
X31883048Y-16545290D02*
X31838450Y-16560895D01*
X29696737Y-18677759D02*
X29631241Y-18612263D01*
X33926555Y-17965662D02*
X33902123Y-17935025D01*
X29551370Y-18446409D02*
X29541000Y-18354367D01*
X34180248Y-18405566D02*
X34149610Y-18430000D01*
X30794966Y-16619443D02*
X30761556Y-16586033D01*
X31719000Y-18354367D02*
X31708629Y-18446409D01*
X29520104Y-16659450D02*
X29494966Y-16619443D01*
X31484835Y-18727038D02*
X31397408Y-18757630D01*
X33882301Y-18691103D02*
X33846994Y-18708106D01*
X28281962Y-18533836D02*
X28251370Y-18446409D01*
X29631241Y-18612263D02*
X29581962Y-18533836D01*
X33912940Y-18666671D02*
X33882301Y-18691103D01*
X28963262Y-18677759D02*
X28884835Y-18727038D01*
X32141000Y-16751000D02*
X32135709Y-16704048D01*
X30328758Y-18612263D02*
X30263262Y-18677759D01*
X34366460Y-18405567D02*
X34331154Y-18388565D01*
X30931241Y-18612263D02*
X30881962Y-18533836D01*
X33902123Y-17935025D02*
X33621098Y-17654000D01*
X30263262Y-18677759D02*
X30184835Y-18727038D01*
X33846994Y-18708106D02*
X33808790Y-18716827D01*
X32061556Y-16586033D02*
X32021549Y-16560895D01*
X33943558Y-18000969D02*
X33926555Y-17965662D01*
X31628758Y-18612263D02*
X31563262Y-18677759D01*
X31930000Y-16540000D02*
X31883048Y-16545290D01*
X32554633Y-17654000D02*
X32462591Y-17643629D01*
X33641018Y-18449821D02*
X33665452Y-18419183D01*
X30378037Y-18533836D02*
X30328758Y-18612263D01*
X33665452Y-18666671D02*
X33641017Y-18636031D01*
X30184835Y-18727038D02*
X30097408Y-18757630D01*
X31162591Y-18757630D02*
X31075164Y-18727038D01*
X33952277Y-18078361D02*
X33952277Y-18039173D01*
X29238450Y-16560895D02*
X29198443Y-16586033D01*
X33952277Y-18039173D02*
X33943558Y-18000969D01*
X28654633Y-18768000D02*
X28562591Y-18757630D01*
X30676951Y-16545290D02*
X30630000Y-16540000D01*
X33731396Y-18708106D02*
X33696089Y-18691103D01*
X29119000Y-18354367D02*
X29108629Y-18446409D01*
X30630000Y-16540000D02*
X30583048Y-16545290D01*
X33624015Y-18600725D02*
X33615296Y-18562521D01*
X30538450Y-16560895D02*
X30498443Y-16586033D01*
X30498443Y-16586033D02*
X30465033Y-16619443D01*
X30465033Y-16619443D02*
X30439895Y-16659450D01*
X30439895Y-16659450D02*
X30424290Y-16704048D01*
X30424290Y-16704048D02*
X30419000Y-16751000D01*
X30419000Y-16751000D02*
X30419000Y-18354367D01*
X30419000Y-18354367D02*
X30408629Y-18446409D01*
X30408629Y-18446409D02*
X30378037Y-18533836D01*
X33926555Y-18151874D02*
X33943558Y-18116567D01*
X30835709Y-16704048D02*
X30820104Y-16659450D01*
X34585575Y-18618477D02*
X34397098Y-18430000D01*
X29862591Y-18757630D02*
X29775164Y-18727038D01*
X30820104Y-16659450D02*
X30794966Y-16619443D01*
X29775164Y-18727038D02*
X29696737Y-18677759D01*
X30721549Y-16560895D02*
X30676951Y-16545290D01*
X29581962Y-18533836D02*
X29551370Y-18446409D01*
X29494966Y-16619443D02*
X29461556Y-16586033D01*
X28241000Y-18354367D02*
X28241000Y-17865000D01*
X29461556Y-16586033D02*
X29421549Y-16560895D01*
X28241000Y-17865000D02*
X28235709Y-17818049D01*
X29421549Y-16560895D02*
X29376951Y-16545290D01*
X33943558Y-18116567D02*
X33952277Y-18078361D01*
X28235709Y-17818049D02*
X28220104Y-17773451D01*
X34585575Y-19457256D02*
X34585575Y-18618477D01*
X29283048Y-16545290D02*
X29238450Y-16560895D01*
X29198443Y-16586033D02*
X29165033Y-16619443D01*
X29165033Y-16619443D02*
X29139895Y-16659450D01*
X28030000Y-17654000D02*
X25347222Y-17654000D01*
X33808790Y-18716827D02*
X33769602Y-18716827D01*
X29139895Y-16659450D02*
X29124290Y-16704048D01*
X29124290Y-16704048D02*
X29119000Y-16751000D01*
X29119000Y-16751000D02*
X29119000Y-18354367D01*
X29108629Y-18446409D02*
X29078037Y-18533836D01*
X29078037Y-18533836D02*
X29028758Y-18612263D01*
X28797408Y-18757630D02*
X28705366Y-18768000D01*
X28705366Y-18768000D02*
X28654633Y-18768000D01*
X28562591Y-18757630D02*
X28475164Y-18727038D01*
X32375164Y-17613037D02*
X32296737Y-17563758D01*
X30005366Y-18768000D02*
X29954633Y-18768000D01*
X28475164Y-18727038D02*
X28396737Y-18677759D01*
X28251370Y-18446409D02*
X28241000Y-18354367D01*
X28220104Y-17773451D02*
X28194966Y-17733444D01*
X28194966Y-17733444D02*
X28161556Y-17700034D01*
X28161556Y-17700034D02*
X28121549Y-17674896D01*
X28121549Y-17674896D02*
X28076951Y-17659291D01*
X30583048Y-16545290D02*
X30538450Y-16560895D01*
X28076951Y-17659291D02*
X28030000Y-17654000D01*
X25347222Y-17654000D02*
X24579575Y-18421647D01*
X24579575Y-18421647D02*
X24579575Y-18721256D01*
X24715575Y-18857256D02*
X24715575Y-19357256D01*
X32021549Y-16560895D02*
X31976951Y-16545290D01*
X31976951Y-16545290D02*
X31930000Y-16540000D01*
X32296737Y-17563758D02*
X32231241Y-17498262D01*
G04 #@! TO.N,/DP2+*
X24715575Y-22857256D02*
X24715575Y-23357256D01*
X24579575Y-23493256D02*
X24579575Y-23738353D01*
X24715575Y-23357256D02*
X24579575Y-23493256D01*
X26240500Y-24636000D02*
X26420000Y-24456500D01*
X25477222Y-24636000D02*
X26240500Y-24636000D01*
X24579575Y-23738353D02*
X25477222Y-24636000D01*
D27*
G04 #@! TO.N,/DP1+*
X34585575Y-22457256D02*
X34397256Y-22457256D01*
D26*
X29349275Y-22244224D02*
X29266827Y-22215374D01*
X33226843Y-22340579D02*
X33172048Y-22353087D01*
X33061043Y-22340579D02*
X33010404Y-22316193D01*
X30466827Y-22215374D02*
X30392865Y-22168901D01*
X31836077Y-21139999D02*
X31749275Y-21130218D01*
X30284625Y-22033172D02*
X30255775Y-21950724D01*
X30853172Y-22215374D02*
X30770724Y-22244224D01*
X31092424Y-20131288D02*
X31078668Y-20170601D01*
X29041331Y-21284607D02*
X29027575Y-21245294D01*
X30927134Y-22168901D02*
X30853172Y-22215374D01*
X29045995Y-21325994D02*
X29041331Y-21284607D01*
X30988901Y-22107134D02*
X30927134Y-22168901D01*
X31074005Y-21863922D02*
X31064224Y-21950724D01*
X29131098Y-22107134D02*
X29084625Y-22033172D01*
X31074005Y-20211989D02*
X31074005Y-21863922D01*
X29192865Y-22168901D02*
X29131098Y-22107134D01*
X31078668Y-20170601D02*
X31074005Y-20211989D01*
X29266827Y-22215374D02*
X29192865Y-22168901D01*
X31218612Y-20030657D02*
X31179299Y-20044413D01*
X31260000Y-20025994D02*
X31218612Y-20030657D01*
X30392865Y-22168901D02*
X30331098Y-22107134D01*
X33037039Y-21820447D02*
X33049547Y-21765652D01*
X30636077Y-22254004D02*
X30549275Y-22244224D01*
X31301387Y-20030657D02*
X31260000Y-20025994D01*
X33321428Y-22281149D02*
X33277484Y-22316192D01*
X31340700Y-20044413D02*
X31301387Y-20030657D01*
X32557544Y-21140000D02*
X31836077Y-21139999D01*
X29835374Y-22033172D02*
X29788901Y-22107134D01*
X31375965Y-20066572D02*
X31340700Y-20044413D01*
X31445995Y-20211989D02*
X31441331Y-20170601D01*
X20798766Y-21140000D02*
X20215575Y-20556809D01*
X30683922Y-22254004D02*
X30636077Y-22254004D01*
X31179299Y-20044413D02*
X31144034Y-20066572D01*
X29570724Y-22244224D02*
X29483922Y-22254004D01*
X31666827Y-21101368D02*
X31592865Y-21054895D01*
X30101387Y-20030657D02*
X30060000Y-20025994D01*
X33376520Y-22234956D02*
X33332576Y-22270000D01*
X33172048Y-22353087D02*
X33115840Y-22353086D01*
X33332576Y-22270000D02*
X33321428Y-22281149D01*
X30205416Y-20096023D02*
X30175965Y-20066572D01*
X31064224Y-21950724D02*
X31035374Y-22033172D01*
X33037039Y-21654647D02*
X33012653Y-21604008D01*
X33874800Y-22457256D02*
X33687544Y-22270000D01*
X31114583Y-20096023D02*
X31092424Y-20131288D01*
X29436077Y-22254004D02*
X29349275Y-22244224D01*
X33115840Y-22353086D02*
X33061043Y-22340579D01*
X31531098Y-20993128D02*
X31484625Y-20919166D01*
X32907030Y-22186565D02*
X32894523Y-22131768D01*
X30331098Y-22107134D02*
X30284625Y-22033172D01*
X31441331Y-20170601D02*
X31427575Y-20131288D01*
X32966460Y-22281148D02*
X32931416Y-22237204D01*
X33592961Y-22210570D02*
X33538164Y-22198063D01*
X29864224Y-21950724D02*
X29835374Y-22033172D01*
X33012653Y-21604008D02*
X32977608Y-21560064D01*
X30175965Y-20066572D02*
X30140700Y-20044413D01*
X31035374Y-22033172D02*
X30988901Y-22107134D01*
X29653172Y-22215374D02*
X29570724Y-22244224D01*
X33481958Y-22198063D02*
X33427161Y-22210570D01*
X30255775Y-21950724D02*
X30245995Y-21863922D01*
X34585575Y-22457256D02*
X33874800Y-22457256D01*
X33012652Y-21871088D02*
X33037039Y-21820447D01*
X29914583Y-20096023D02*
X29892424Y-20131288D01*
X29788901Y-22107134D02*
X29727134Y-22168901D01*
X33687544Y-22270000D02*
X33643600Y-22234956D01*
X28435838Y-21140000D02*
X20798766Y-21140000D01*
X33643600Y-22234956D02*
X33592961Y-22210570D01*
X31405416Y-20096023D02*
X31375965Y-20066572D01*
X31455775Y-20836718D02*
X31445995Y-20749916D01*
X32894523Y-22131768D02*
X32894523Y-22075562D01*
X33010404Y-22316193D02*
X32966460Y-22281148D01*
X31592865Y-21054895D02*
X31531098Y-20993128D01*
X32931416Y-22237204D02*
X32907030Y-22186565D01*
X32894523Y-22075562D02*
X32907030Y-22020765D01*
X31445995Y-20749916D02*
X31445995Y-20211989D01*
X32907030Y-22020765D02*
X32931416Y-21970124D01*
X30770724Y-22244224D02*
X30683922Y-22254004D01*
X31749275Y-21130218D02*
X31666827Y-21101368D01*
X32966460Y-21926180D02*
X32977609Y-21915032D01*
X32977609Y-21915032D02*
X33012652Y-21871088D01*
X30241331Y-20170601D02*
X30227575Y-20131288D01*
X31484625Y-20919166D02*
X31455775Y-20836718D01*
X31427575Y-20131288D02*
X31405416Y-20096023D01*
X33049546Y-21709444D02*
X33037039Y-21654647D01*
X30018612Y-20030657D02*
X29979299Y-20044413D01*
X31144034Y-20066572D02*
X31114583Y-20096023D01*
X29483922Y-22254004D02*
X29436077Y-22254004D01*
X32977608Y-21560064D02*
X32557544Y-21140000D01*
X30060000Y-20025994D02*
X30018612Y-20030657D01*
X29979299Y-20044413D02*
X29944034Y-20066572D01*
X30245995Y-20211989D02*
X30241331Y-20170601D01*
X29944034Y-20066572D02*
X29914583Y-20096023D01*
X29892424Y-20131288D02*
X29878668Y-20170601D01*
X33049547Y-21765652D02*
X33049546Y-21709444D01*
X29878668Y-20170601D02*
X29874005Y-20211989D01*
X29874005Y-20211989D02*
X29874005Y-21863922D01*
X29874005Y-21863922D02*
X29864224Y-21950724D01*
X29727134Y-22168901D02*
X29653172Y-22215374D01*
X29084625Y-22033172D02*
X29055775Y-21950724D01*
X29055775Y-21950724D02*
X29045995Y-21863922D01*
X29045995Y-21863922D02*
X29045995Y-21325994D01*
X29027575Y-21245294D02*
X29005416Y-21210029D01*
X29005416Y-21210029D02*
X28975965Y-21180578D01*
X33538164Y-22198063D02*
X33481958Y-22198063D01*
X30245995Y-21863922D02*
X30245995Y-20211989D01*
X28975965Y-21180578D02*
X28940700Y-21158419D01*
X28940700Y-21158419D02*
X28901387Y-21144663D01*
X32931416Y-21970124D02*
X32966460Y-21926180D01*
X28901387Y-21144663D02*
X28860000Y-21139999D01*
X28860000Y-21139999D02*
X28435838Y-21140000D01*
X30140700Y-20044413D02*
X30101387Y-20030657D01*
X20215575Y-20556809D02*
X20215575Y-19357256D01*
X33277484Y-22316192D02*
X33226843Y-22340579D01*
X33427161Y-22210570D02*
X33376520Y-22234956D01*
X30227575Y-20131288D02*
X30205416Y-20096023D01*
X30549275Y-22244224D02*
X30466827Y-22215374D01*
D31*
G04 #@! TO.N,/DP0+*
X34463990Y-23581968D02*
X34513997Y-23631975D01*
D26*
X28524629Y-27437171D02*
X28495780Y-27354723D01*
X29541388Y-25434663D02*
X29500000Y-25430000D01*
X29667580Y-25535297D02*
X29645420Y-25500030D01*
X28114000Y-26153922D02*
X28104219Y-26240722D01*
X29093170Y-27619371D02*
X29010722Y-27648220D01*
X33241316Y-25063029D02*
X33180789Y-25092177D01*
X28154579Y-25500030D02*
X28132419Y-25535297D01*
X29228897Y-27511132D02*
X29167131Y-27572898D01*
X33180789Y-25092177D02*
X33115296Y-25107125D01*
X29304219Y-27354723D02*
X29275370Y-27437171D01*
X33364870Y-24908096D02*
X33335722Y-24968622D01*
X29314000Y-25616000D02*
X29314000Y-27267923D01*
X29332419Y-25535297D02*
X29318663Y-25574611D01*
X29500000Y-25430000D02*
X29458611Y-25434663D01*
X28495780Y-27354723D02*
X28486000Y-27267923D01*
X28571102Y-27511132D02*
X28524629Y-27437171D01*
X32322695Y-24898528D02*
X32216630Y-25004592D01*
X28028897Y-26397131D02*
X27967131Y-26458897D01*
X28632868Y-27572898D02*
X28571102Y-27511132D01*
X28075370Y-26323170D02*
X28028897Y-26397131D01*
X29580702Y-25448419D02*
X29541388Y-25434663D01*
X28706829Y-27619371D02*
X28632868Y-27572898D01*
X29645420Y-25500030D02*
X29615969Y-25470579D01*
X28104219Y-26240722D02*
X28075370Y-26323170D01*
X29615969Y-25470579D02*
X29580702Y-25448419D01*
X32435743Y-24827497D02*
X32375217Y-24856645D01*
X29010722Y-27648220D02*
X28923922Y-27658000D01*
X29686000Y-25616000D02*
X29681336Y-25574611D01*
X29167131Y-27572898D02*
X29093170Y-27619371D01*
X33379819Y-24842601D02*
X33364870Y-24908096D01*
X28380702Y-25448419D02*
X28341388Y-25434663D01*
X29314000Y-27267923D02*
X29304219Y-27354723D01*
X30076077Y-26544000D02*
X29989277Y-26534219D01*
X33171223Y-24474264D02*
X33293838Y-24596879D01*
X32216630Y-25004592D02*
X30677222Y-26544000D01*
X33085241Y-24228543D02*
X33085242Y-24295721D01*
X29458611Y-25434663D02*
X29419297Y-25448419D01*
X32568416Y-24812548D02*
X32501238Y-24812548D01*
X29318663Y-25574611D02*
X29314000Y-25616000D01*
X32982623Y-25092176D02*
X32922096Y-25063030D01*
X27893170Y-26505370D02*
X27810722Y-26534219D01*
X34085576Y-23457257D02*
X33763965Y-23457257D01*
X29354579Y-25500030D02*
X29332419Y-25535297D01*
X29724629Y-26323170D02*
X29695780Y-26240722D01*
X20351575Y-23968257D02*
X20215575Y-23832257D01*
X33293838Y-24596879D02*
X33335722Y-24649402D01*
X29832868Y-26458897D02*
X29771102Y-26397131D01*
X33129338Y-24421741D02*
X33171223Y-24474264D01*
X34585575Y-23957256D02*
X34085576Y-23457257D01*
X28486000Y-25616000D02*
X28481336Y-25574611D01*
X33379819Y-24775423D02*
X33379819Y-24842601D01*
X32633911Y-24827497D02*
X32568416Y-24812548D01*
X29906829Y-26505370D02*
X29832868Y-26458897D01*
X33129337Y-24102523D02*
X33100191Y-24163048D01*
X28923922Y-27658000D02*
X28876077Y-27658000D01*
X33048116Y-25107126D02*
X32982623Y-25092176D01*
X29681336Y-25574611D02*
X29667580Y-25535297D01*
X29275370Y-27437171D02*
X29228897Y-27511132D01*
X32869574Y-25021143D02*
X32746960Y-24898529D01*
X28876077Y-27658000D02*
X28789277Y-27648220D01*
X33100190Y-24361216D02*
X33129338Y-24421741D01*
X33335722Y-24968622D02*
X33293838Y-25021143D01*
X32922096Y-25063030D02*
X32869574Y-25021143D01*
X33085242Y-24295721D02*
X33100190Y-24361216D01*
X33100191Y-24163048D02*
X33085241Y-24228543D01*
X33293838Y-25021143D02*
X33241316Y-25063029D01*
X28481336Y-25574611D02*
X28467580Y-25535297D01*
X28486000Y-27267923D02*
X28486000Y-25616000D01*
X29419297Y-25448419D02*
X29384030Y-25470579D01*
X32375217Y-24856645D02*
X32322695Y-24898528D01*
X33364870Y-24709928D02*
X33379819Y-24775423D01*
X33763965Y-23457257D02*
X33171222Y-24050000D01*
X33115296Y-25107125D02*
X33048116Y-25107126D01*
X29384030Y-25470579D02*
X29354579Y-25500030D01*
X29771102Y-26397131D02*
X29724629Y-26323170D01*
X28789277Y-27648220D02*
X28706829Y-27619371D01*
X32746960Y-24898529D02*
X32694437Y-24856645D01*
X32501238Y-24812548D02*
X32435743Y-24827497D01*
X33171222Y-24050000D02*
X33129337Y-24102523D01*
X20351575Y-24982797D02*
X20351575Y-23968257D01*
X32694437Y-24856645D02*
X32633911Y-24827497D01*
X30677222Y-26544000D02*
X30076077Y-26544000D01*
X28445420Y-25500030D02*
X28415969Y-25470579D01*
X29695780Y-26240722D02*
X29686000Y-26153922D01*
X28415969Y-25470579D02*
X28380702Y-25448419D01*
X28341388Y-25434663D02*
X28300000Y-25430000D01*
X28184030Y-25470579D02*
X28154579Y-25500030D01*
X27967131Y-26458897D02*
X27893170Y-26505370D01*
X21912778Y-26544000D02*
X20351575Y-24982797D01*
X20215575Y-23832257D02*
X20215575Y-22857256D01*
X29989277Y-26534219D02*
X29906829Y-26505370D01*
X28300000Y-25430000D02*
X28258611Y-25434663D01*
X28258611Y-25434663D02*
X28219297Y-25448419D01*
X28219297Y-25448419D02*
X28184030Y-25470579D01*
X28132419Y-25535297D02*
X28118663Y-25574611D01*
X28118663Y-25574611D02*
X28114000Y-25616000D01*
X28114000Y-25616000D02*
X28114000Y-26153922D01*
X29686000Y-26153922D02*
X29686000Y-25616000D01*
X33335722Y-24649402D02*
X33364870Y-24709928D01*
X27810722Y-26534219D02*
X27723922Y-26544000D01*
X27723922Y-26544000D02*
X21912778Y-26544000D01*
X28467580Y-25535297D02*
X28445420Y-25500030D01*
G04 #@! TO.N,/DP3-*
X24351575Y-18721256D02*
X24215575Y-18857256D01*
X28055366Y-17426000D02*
X25252778Y-17426000D01*
X28147408Y-17436371D02*
X28055366Y-17426000D01*
X28234835Y-17466963D02*
X28147408Y-17436371D01*
X28378758Y-17581738D02*
X28313262Y-17516242D01*
X28428037Y-17660165D02*
X28378758Y-17581738D01*
X28458629Y-17747592D02*
X28428037Y-17660165D01*
X28469000Y-17839634D02*
X28458629Y-17747592D01*
X28474290Y-18375952D02*
X28469000Y-18329000D01*
X28489895Y-18420550D02*
X28474290Y-18375952D01*
X28515033Y-18460557D02*
X28489895Y-18420550D01*
X28548443Y-18493967D02*
X28515033Y-18460557D01*
X28588450Y-18519105D02*
X28548443Y-18493967D01*
X28633048Y-18534710D02*
X28588450Y-18519105D01*
X28680000Y-18540000D02*
X28633048Y-18534710D01*
X28811556Y-18493967D02*
X28771549Y-18519105D01*
X28931962Y-16546164D02*
X28901370Y-16633591D01*
X29304633Y-16312000D02*
X29212591Y-16322370D01*
X29355366Y-16312000D02*
X29304633Y-16312000D01*
X29447408Y-16322370D02*
X29355366Y-16312000D01*
X29758629Y-16633591D02*
X29728037Y-16546164D01*
X29769000Y-16725633D02*
X29758629Y-16633591D01*
X29769000Y-18329000D02*
X29769000Y-16725633D01*
X29774290Y-18375952D02*
X29769000Y-18329000D01*
X29789895Y-18420550D02*
X29774290Y-18375952D01*
X29815033Y-18460557D02*
X29789895Y-18420550D01*
X29848443Y-18493967D02*
X29815033Y-18460557D01*
X29888450Y-18519105D02*
X29848443Y-18493967D01*
X29933048Y-18534710D02*
X29888450Y-18519105D01*
X30026951Y-18534710D02*
X29980000Y-18540000D01*
X30071549Y-18519105D02*
X30026951Y-18534710D01*
X30111556Y-18493967D02*
X30071549Y-18519105D01*
X30144966Y-18460557D02*
X30111556Y-18493967D01*
X30185709Y-18375952D02*
X30170104Y-18420550D01*
X30191000Y-18329000D02*
X30185709Y-18375952D01*
X30191000Y-16725633D02*
X30191000Y-18329000D01*
X30201370Y-16633591D02*
X30191000Y-16725633D01*
X30231962Y-16546164D02*
X30201370Y-16633591D01*
X30281241Y-16467737D02*
X30231962Y-16546164D01*
X30346737Y-16402241D02*
X30281241Y-16467737D01*
X30425164Y-16352962D02*
X30346737Y-16402241D01*
X30512591Y-16322370D02*
X30425164Y-16352962D01*
X30604633Y-16312000D02*
X30512591Y-16322370D01*
X30834835Y-16352962D02*
X30747408Y-16322370D01*
X30913262Y-16402241D02*
X30834835Y-16352962D01*
X25252778Y-17426000D02*
X24351575Y-18327203D01*
X31233048Y-18534710D02*
X31188450Y-18519105D01*
X31280000Y-18540000D02*
X31233048Y-18534710D01*
X31470104Y-18420550D02*
X31444966Y-18460557D01*
X31485709Y-18375952D02*
X31470104Y-18420550D01*
X31491000Y-18329000D02*
X31485709Y-18375952D01*
X31491000Y-16725633D02*
X31491000Y-18329000D01*
X31501370Y-16633591D02*
X31491000Y-16725633D01*
X31531962Y-16546164D02*
X31501370Y-16633591D01*
X31904633Y-16312000D02*
X31812591Y-16322370D01*
X28981241Y-16467737D02*
X28931962Y-16546164D01*
X29046737Y-16402241D02*
X28981241Y-16467737D01*
X28313262Y-17516242D02*
X28234835Y-17466963D01*
X29125164Y-16352962D02*
X29046737Y-16402241D01*
X28870104Y-18420550D02*
X28844966Y-18460557D01*
X28891000Y-16725633D02*
X28891000Y-18329000D01*
X30655366Y-16312000D02*
X30604633Y-16312000D01*
X31581241Y-16467737D02*
X31531962Y-16546164D01*
X28901370Y-16633591D02*
X28891000Y-16725633D01*
X24351575Y-18327203D02*
X24351575Y-18721256D01*
X30747408Y-16322370D02*
X30655366Y-16312000D01*
X31646737Y-16402241D02*
X31581241Y-16467737D01*
X29728037Y-16546164D02*
X29678758Y-16467737D01*
X31725164Y-16352962D02*
X31646737Y-16402241D01*
X32278758Y-16467737D02*
X32213262Y-16402241D01*
X28885709Y-18375952D02*
X28870104Y-18420550D01*
X30170104Y-18420550D02*
X30144966Y-18460557D01*
X30978758Y-16467737D02*
X30913262Y-16402241D01*
X29678758Y-16467737D02*
X29613262Y-16402241D01*
X31326951Y-18534710D02*
X31280000Y-18540000D01*
X29212591Y-16322370D02*
X29125164Y-16352962D01*
X32047408Y-16322370D02*
X31955366Y-16312000D01*
X31812591Y-16322370D02*
X31725164Y-16352962D01*
X28891000Y-18329000D02*
X28885709Y-18375952D01*
X31955366Y-16312000D02*
X31904633Y-16312000D01*
X28469000Y-18329000D02*
X28469000Y-17839634D01*
X32369000Y-17215000D02*
X32369000Y-16725633D01*
X28844966Y-18460557D02*
X28811556Y-18493967D01*
X31188450Y-18519105D02*
X31148443Y-18493967D01*
X29980000Y-18540000D02*
X29933048Y-18534710D01*
X31069000Y-16725633D02*
X31058629Y-16633591D01*
X28771549Y-18519105D02*
X28726951Y-18534710D01*
X28726951Y-18534710D02*
X28680000Y-18540000D01*
X32580000Y-17426000D02*
X32533048Y-17420709D01*
X32533048Y-17420709D02*
X32488450Y-17405104D01*
X29534835Y-16352962D02*
X29447408Y-16322370D01*
X32448443Y-17379966D02*
X32415033Y-17346556D01*
X31444966Y-18460557D02*
X31411556Y-18493967D01*
X31411556Y-18493967D02*
X31371549Y-18519105D01*
X34746796Y-18457256D02*
X33715540Y-17426000D01*
X31148443Y-18493967D02*
X31115033Y-18460557D01*
X31115033Y-18460557D02*
X31089895Y-18420550D01*
X31089895Y-18420550D02*
X31074290Y-18375952D01*
X31074290Y-18375952D02*
X31069000Y-18329000D01*
X31069000Y-18329000D02*
X31069000Y-16725633D01*
X31058629Y-16633591D02*
X31028037Y-16546164D01*
X24215575Y-18857256D02*
X24215575Y-19357256D01*
X32213262Y-16402241D02*
X32134835Y-16352962D01*
X31028037Y-16546164D02*
X30978758Y-16467737D01*
X33715540Y-17426000D02*
X32580000Y-17426000D01*
X31371549Y-18519105D02*
X31326951Y-18534710D01*
X32358629Y-16633591D02*
X32328037Y-16546164D01*
X32328037Y-16546164D02*
X32278758Y-16467737D01*
X36085575Y-18457256D02*
X34746796Y-18457256D01*
X29613262Y-16402241D02*
X29534835Y-16352962D01*
X32488450Y-17405104D02*
X32448443Y-17379966D01*
X32415033Y-17346556D02*
X32389895Y-17306549D01*
X32389895Y-17306549D02*
X32374290Y-17261951D01*
X32374290Y-17261951D02*
X32369000Y-17215000D01*
X32369000Y-16725633D02*
X32358629Y-16633591D01*
X32134835Y-16352962D02*
X32047408Y-16322370D01*
G04 #@! TO.N,/DP2-*
X24351575Y-23493256D02*
X24351575Y-23832797D01*
X24215575Y-22857256D02*
X24215575Y-23357256D01*
X24215575Y-23357256D02*
X24351575Y-23493256D01*
X24351575Y-23832797D02*
X25382778Y-24864000D01*
X25382778Y-24864000D02*
X26240500Y-24864000D01*
X26240500Y-24864000D02*
X26420000Y-25043500D01*
G04 #@! TO.N,/DP1-*
X21295307Y-20911989D02*
X20715575Y-20332257D01*
X28970724Y-20921770D02*
X28883922Y-20911989D01*
X29053172Y-20950620D02*
X28970724Y-20921770D01*
X29235374Y-21132822D02*
X29188901Y-21058860D01*
X29264224Y-21215270D02*
X29235374Y-21132822D01*
X29274005Y-21302072D02*
X29264224Y-21215270D01*
X29274005Y-21839999D02*
X29274005Y-21302072D01*
X29292424Y-21920700D02*
X29278668Y-21881387D01*
X29314583Y-21955965D02*
X29292424Y-21920700D01*
X29344034Y-21985416D02*
X29314583Y-21955965D01*
X29418612Y-22021331D02*
X29379299Y-22007575D01*
X29501387Y-22021331D02*
X29460000Y-22025994D01*
X29575965Y-21985416D02*
X29540700Y-22007575D01*
X29605416Y-21955965D02*
X29575965Y-21985416D01*
X29627575Y-21920700D02*
X29605416Y-21955965D01*
X29645995Y-21839999D02*
X29641331Y-21881387D01*
X29645995Y-20188066D02*
X29645995Y-21839999D01*
X29655775Y-20101264D02*
X29645995Y-20188066D01*
X29684625Y-20018816D02*
X29655775Y-20101264D01*
X29731098Y-19944854D02*
X29684625Y-20018816D01*
X29949275Y-19807764D02*
X29866827Y-19836614D01*
X29641331Y-21881387D02*
X29627575Y-21920700D01*
X29379299Y-22007575D02*
X29344034Y-21985416D01*
X29460000Y-22025994D02*
X29418612Y-22021331D01*
X20715575Y-20332257D02*
X20715575Y-20108256D01*
X29188901Y-21058860D02*
X29127134Y-20997093D01*
X34910776Y-21634757D02*
X33374757Y-21634757D01*
X30036077Y-19797984D02*
X29949275Y-19807764D01*
X30478668Y-21881387D02*
X30474005Y-21839999D01*
X29278668Y-21881387D02*
X29274005Y-21839999D01*
X30884625Y-20018816D02*
X30855775Y-20101264D01*
X31149275Y-19807764D02*
X31066827Y-19836614D01*
X29540700Y-22007575D02*
X29501387Y-22021331D01*
X20715575Y-20108256D02*
X20715575Y-19357256D01*
X32651989Y-20911989D02*
X31860000Y-20911989D01*
X30435374Y-20018816D02*
X30388901Y-19944854D01*
X30327134Y-19883087D02*
X30253172Y-19836614D01*
X30170724Y-19807764D02*
X30083922Y-19797984D01*
X31635374Y-20018816D02*
X31588901Y-19944854D01*
X29792865Y-19883087D02*
X29731098Y-19944854D01*
X30660000Y-22025994D02*
X30618612Y-22021331D01*
X31066827Y-19836614D02*
X30992865Y-19883087D01*
X31678668Y-20767381D02*
X31674005Y-20725994D01*
X33374757Y-21634757D02*
X32651989Y-20911989D01*
X30618612Y-22021331D02*
X30579299Y-22007575D01*
X35088277Y-21457256D02*
X34910776Y-21634757D01*
X30083922Y-19797984D02*
X30036077Y-19797984D01*
X31283922Y-19797984D02*
X31236077Y-19797984D01*
X31236077Y-19797984D02*
X31149275Y-19807764D01*
X30492424Y-21920700D02*
X30478668Y-21881387D01*
X31664224Y-20101264D02*
X31635374Y-20018816D01*
X36085575Y-21457256D02*
X35088277Y-21457256D01*
X31818612Y-20907325D02*
X31779299Y-20893569D01*
X31779299Y-20893569D02*
X31744034Y-20871410D01*
X31744034Y-20871410D02*
X31714583Y-20841959D01*
X28883922Y-20911989D02*
X21295307Y-20911989D01*
X31714583Y-20841959D02*
X31692424Y-20806694D01*
X31692424Y-20806694D02*
X31678668Y-20767381D01*
X31674005Y-20725994D02*
X31674005Y-20188066D01*
X31674005Y-20188066D02*
X31664224Y-20101264D01*
X31588901Y-19944854D02*
X31527134Y-19883087D01*
X31527134Y-19883087D02*
X31453172Y-19836614D01*
X31453172Y-19836614D02*
X31370724Y-19807764D01*
X31370724Y-19807764D02*
X31283922Y-19797984D01*
X30992865Y-19883087D02*
X30931098Y-19944854D01*
X30931098Y-19944854D02*
X30884625Y-20018816D01*
X30855775Y-20101264D02*
X30845995Y-20188066D01*
X30845995Y-20188066D02*
X30845995Y-21839999D01*
X30845995Y-21839999D02*
X30841331Y-21881387D01*
X30841331Y-21881387D02*
X30827575Y-21920700D01*
X30827575Y-21920700D02*
X30805416Y-21955965D01*
X30805416Y-21955965D02*
X30775965Y-21985416D01*
X30775965Y-21985416D02*
X30740700Y-22007575D01*
X29127134Y-20997093D02*
X29053172Y-20950620D01*
X30740700Y-22007575D02*
X30701387Y-22021331D01*
X30701387Y-22021331D02*
X30660000Y-22025994D01*
X30579299Y-22007575D02*
X30544034Y-21985416D01*
X30544034Y-21985416D02*
X30514583Y-21955965D01*
X30514583Y-21955965D02*
X30492424Y-21920700D01*
X30474005Y-21839999D02*
X30474005Y-20188066D01*
X29866827Y-19836614D02*
X29792865Y-19883087D01*
X30474005Y-20188066D02*
X30464224Y-20101264D01*
X31860000Y-20911989D02*
X31818612Y-20907325D01*
X30464224Y-20101264D02*
X30435374Y-20018816D01*
X30388901Y-19944854D02*
X30327134Y-19883087D01*
X30253172Y-19836614D02*
X30170724Y-19807764D01*
G04 #@! TO.N,/DP0-*
X20715575Y-23832257D02*
X20715575Y-22857256D01*
X20579575Y-23968257D02*
X20715575Y-23832257D01*
X27700000Y-26316000D02*
X22007222Y-26316000D01*
X27741388Y-26311336D02*
X27700000Y-26316000D01*
X27780702Y-26297580D02*
X27741388Y-26311336D01*
X27815969Y-26275420D02*
X27780702Y-26297580D01*
X29914000Y-25592077D02*
X29904219Y-25505277D01*
X28567131Y-25287102D02*
X28493170Y-25240629D01*
X28628897Y-25348868D02*
X28567131Y-25287102D01*
X28675370Y-25422829D02*
X28628897Y-25348868D01*
X27971102Y-25348868D02*
X27924629Y-25422829D01*
X29767131Y-25287102D02*
X29693170Y-25240629D01*
X22007222Y-26316000D02*
X20579575Y-24888353D01*
X30058611Y-26311336D02*
X30019297Y-26297580D01*
X27886000Y-25592077D02*
X27886000Y-26130000D01*
X29067580Y-27324703D02*
X29045420Y-27359970D01*
X28189277Y-25211780D02*
X28106829Y-25240629D01*
X28323922Y-25202000D02*
X28276077Y-25202000D01*
X28493170Y-25240629D02*
X28410722Y-25211780D01*
X28718663Y-27285389D02*
X28714000Y-27244000D01*
X27924629Y-25422829D02*
X27895780Y-25505277D01*
X28714000Y-27244000D02*
X28714000Y-25592077D01*
X30582778Y-26316000D02*
X30100000Y-26316000D01*
X27867580Y-26210702D02*
X27845420Y-26245969D01*
X28410722Y-25211780D02*
X28323922Y-25202000D01*
X35378469Y-22957256D02*
X35115725Y-23220000D01*
X29918663Y-26171388D02*
X29914000Y-26130000D01*
X28276077Y-25202000D02*
X28189277Y-25211780D01*
X28106829Y-25240629D02*
X28032868Y-25287102D01*
X28900000Y-27430000D02*
X28858611Y-27425337D01*
X28858611Y-27425337D02*
X28819297Y-27411581D01*
X28819297Y-27411581D02*
X28784030Y-27389421D01*
X29124629Y-25422829D02*
X29095780Y-25505277D01*
X28784030Y-27389421D02*
X28754579Y-27359970D01*
X28941388Y-27425337D02*
X28900000Y-27430000D01*
X29904219Y-25505277D02*
X29875370Y-25422829D01*
X36085575Y-22957256D02*
X35378469Y-22957256D01*
X30100000Y-26316000D02*
X30058611Y-26311336D01*
X30019297Y-26297580D02*
X29984030Y-26275420D01*
X29984030Y-26275420D02*
X29954579Y-26245969D01*
X29954579Y-26245969D02*
X29932419Y-26210702D01*
X29932419Y-26210702D02*
X29918663Y-26171388D01*
X29914000Y-26130000D02*
X29914000Y-25592077D01*
X29875370Y-25422829D02*
X29828897Y-25348868D01*
X35115725Y-23220000D02*
X33678778Y-23220000D01*
X29828897Y-25348868D02*
X29767131Y-25287102D01*
X29693170Y-25240629D02*
X29610722Y-25211780D01*
X29610722Y-25211780D02*
X29523922Y-25202000D01*
X29523922Y-25202000D02*
X29476077Y-25202000D01*
X29476077Y-25202000D02*
X29389277Y-25211780D01*
X20579575Y-24888353D02*
X20579575Y-23968257D01*
X29389277Y-25211780D02*
X29306829Y-25240629D01*
X29306829Y-25240629D02*
X29232868Y-25287102D01*
X29232868Y-25287102D02*
X29171102Y-25348868D01*
X29171102Y-25348868D02*
X29124629Y-25422829D01*
X29095780Y-25505277D02*
X29086000Y-25592077D01*
X29086000Y-25592077D02*
X29086000Y-27244000D01*
X29086000Y-27244000D02*
X29081336Y-27285389D01*
X33678778Y-23220000D02*
X30582778Y-26316000D01*
X29081336Y-27285389D02*
X29067580Y-27324703D01*
X29045420Y-27359970D02*
X29015969Y-27389421D01*
X29015969Y-27389421D02*
X28980702Y-27411581D01*
X28980702Y-27411581D02*
X28941388Y-27425337D01*
X28754579Y-27359970D02*
X28732419Y-27324703D01*
X28732419Y-27324703D02*
X28718663Y-27285389D01*
X28714000Y-25592077D02*
X28704219Y-25505277D01*
X28704219Y-25505277D02*
X28675370Y-25422829D01*
X28032868Y-25287102D02*
X27971102Y-25348868D01*
X27895780Y-25505277D02*
X27886000Y-25592077D01*
X27886000Y-26130000D02*
X27881336Y-26171388D01*
X27881336Y-26171388D02*
X27867580Y-26210702D01*
X27845420Y-26245969D02*
X27815969Y-26275420D01*
D27*
G04 #@! TO.N,/HPD*
X34315575Y-26957256D02*
X32115575Y-29157256D01*
X34585575Y-26957256D02*
X34315575Y-26957256D01*
X32115575Y-32057256D02*
X32115575Y-29157256D01*
G04 #@! TO.N,/CC2*
X21715575Y-18437256D02*
X21048319Y-17770000D01*
X21715575Y-19357256D02*
X21715575Y-18437256D01*
X19459999Y-17769999D02*
X18960000Y-17270000D01*
X21048319Y-17770000D02*
X19459999Y-17769999D01*
G04 #@! TO.N,/CC1*
X23215575Y-23865575D02*
X24190000Y-24840000D01*
X23215575Y-22857256D02*
X23215575Y-23865575D01*
D32*
G04 #@! TO.N,/D2+*
X22215575Y-17045577D02*
X22094999Y-16925001D01*
X22215575Y-19357256D02*
X22215575Y-17045577D01*
G04 #@! TO.N,/D2-*
X22715575Y-17854425D02*
X23650000Y-16920000D01*
X22715575Y-19357256D02*
X22715575Y-17854425D01*
D26*
G04 #@! TO.N,/pAUX+*
X21715575Y-22857256D02*
X21715575Y-23724425D01*
X21715575Y-23724425D02*
X21630000Y-23810000D01*
G04 #@! TO.N,/pAUX-*
X23215575Y-19357256D02*
X23215575Y-18484425D01*
X23215575Y-18484425D02*
X23300000Y-18400000D01*
G04 #@! TD*
M02*
