G04 #@! TF.GenerationSoftware,KiCad,Pcbnew,(5.0.0-rc3)*
G04 #@! TF.CreationDate,2018-08-22T20:47:19+02:00*
G04 #@! TF.ProjectId,Adapter,416461707465722E6B696361645F7063,rev?*
G04 #@! TF.SameCoordinates,Original*
G04 #@! TF.FileFunction,Legend,Top*
G04 #@! TF.FilePolarity,Positive*
%FSLAX46Y46*%
G04 Gerber Fmt 4.6, Leading zero omitted, Abs format (unit mm)*
G04 Created by KiCad (PCBNEW (5.0.0-rc3)) date Wed Aug 22 20:47:19 2018*
%MOMM*%
%LPD*%
G01*
G04 APERTURE LIST*
%ADD10C,0.120000*%
%ADD11C,0.100000*%
%ADD12C,0.150000*%
G04 APERTURE END LIST*
D10*
G04 #@! TO.C,D2+*
X24350000Y-16220000D02*
X24350000Y-17620000D01*
X24350000Y-17620000D02*
X22950000Y-17620000D01*
X22950000Y-17620000D02*
X22950000Y-16220000D01*
X22950000Y-16220000D02*
X24350000Y-16220000D01*
G04 #@! TO.C,D2-*
X22794999Y-16225001D02*
X22794999Y-17625001D01*
X22794999Y-17625001D02*
X21394999Y-17625001D01*
X21394999Y-17625001D02*
X21394999Y-16225001D01*
X21394999Y-16225001D02*
X22794999Y-16225001D01*
D11*
G04 #@! TO.C,J2*
X33515575Y-31307256D02*
X33515575Y-32532256D01*
X33515575Y-32532256D02*
X34440575Y-32532256D01*
X48740575Y-31557256D02*
X48740575Y-32532256D01*
X48740575Y-32532256D02*
X48090575Y-32532256D01*
X48065575Y-15382256D02*
X48740575Y-15382256D01*
X48740575Y-15382256D02*
X48740575Y-16082256D01*
X33515575Y-16282256D02*
X33515575Y-15382256D01*
X33515575Y-15382256D02*
X34215575Y-15382256D01*
D12*
G04 #@! TO.C,GND*
X16640574Y-28882257D02*
X18840574Y-28882257D01*
X16640574Y-32682257D02*
X16640574Y-28882257D01*
X18840574Y-32682257D02*
X16640574Y-32682257D01*
X18840574Y-28882257D02*
X18840574Y-32682257D01*
G04 #@! TO.C,5V*
X18840574Y-24532257D02*
X18840574Y-28332257D01*
X18840574Y-28332257D02*
X16640574Y-28332257D01*
X16640574Y-28332257D02*
X16640574Y-24532257D01*
X16640574Y-24532257D02*
X18840574Y-24532257D01*
D10*
G04 #@! TO.C,CC2*
X19660000Y-17270000D02*
G75*
G03X19660000Y-17270000I-700000J0D01*
G01*
G04 #@! TO.C,CC1*
X24890000Y-24840000D02*
G75*
G03X24890000Y-24840000I-700000J0D01*
G01*
G04 #@! TO.C,2k*
X31436653Y-28447256D02*
X30919497Y-28447256D01*
X31436653Y-29867256D02*
X30919497Y-29867256D01*
G04 #@! TO.C,1k*
X30919497Y-31347256D02*
X31436653Y-31347256D01*
X30919497Y-32767256D02*
X31436653Y-32767256D01*
D12*
G04 #@! TO.C,J3*
X17665575Y-18907256D02*
X19365575Y-18907256D01*
X17665575Y-18607256D02*
X17665575Y-18907256D01*
X16865575Y-18607256D02*
X17665575Y-18607256D01*
X16465575Y-19007256D02*
X16865575Y-18607256D01*
X16465575Y-23207256D02*
X16465575Y-19007256D01*
X16865575Y-23607256D02*
X16465575Y-23207256D01*
X17665575Y-23607256D02*
X16865575Y-23607256D01*
X17665575Y-23307256D02*
X17665575Y-23607256D01*
X19365575Y-23307256D02*
X17665575Y-23307256D01*
X27265575Y-23307256D02*
X25565575Y-23307256D01*
X27265575Y-23607256D02*
X27265575Y-23307256D01*
X28465575Y-23607256D02*
X27265575Y-23607256D01*
X27265575Y-18907256D02*
X25565575Y-18907256D01*
X27265575Y-18607256D02*
X27265575Y-18907256D01*
X28465575Y-18607256D02*
X27265575Y-18607256D01*
X28465575Y-23607256D02*
X28465575Y-18607256D01*
D11*
G04 #@! TO.C,J1*
X19915575Y-33757256D02*
X19915575Y-34307256D01*
X19915575Y-34307256D02*
X20565575Y-34307256D01*
X28115575Y-33707256D02*
X28115575Y-34307256D01*
X28115575Y-34307256D02*
X27715575Y-34307256D01*
X27615575Y-28607256D02*
X28115575Y-28607256D01*
X28115575Y-28607256D02*
X28115575Y-29307256D01*
X20665575Y-28607256D02*
X20215575Y-28607256D01*
X20215575Y-28607256D02*
X19915575Y-28957256D01*
X19915575Y-28957256D02*
X19915575Y-29257256D01*
X19915575Y-29257256D02*
X19765575Y-29257256D01*
G04 #@! TO.C,D2+*
D12*
X25612380Y-17687142D02*
X24612380Y-17687142D01*
X24612380Y-17449047D01*
X24660000Y-17306190D01*
X24755238Y-17210952D01*
X24850476Y-17163333D01*
X25040952Y-17115714D01*
X25183809Y-17115714D01*
X25374285Y-17163333D01*
X25469523Y-17210952D01*
X25564761Y-17306190D01*
X25612380Y-17449047D01*
X25612380Y-17687142D01*
X24707619Y-16734761D02*
X24660000Y-16687142D01*
X24612380Y-16591904D01*
X24612380Y-16353809D01*
X24660000Y-16258571D01*
X24707619Y-16210952D01*
X24802857Y-16163333D01*
X24898095Y-16163333D01*
X25040952Y-16210952D01*
X25612380Y-16782380D01*
X25612380Y-16163333D01*
X25231428Y-15734761D02*
X25231428Y-14972857D01*
X25612380Y-15353809D02*
X24850476Y-15353809D01*
G04 #@! TO.C,D2-*
X21202380Y-17737142D02*
X20202380Y-17737142D01*
X20202380Y-17499047D01*
X20250000Y-17356190D01*
X20345238Y-17260952D01*
X20440476Y-17213333D01*
X20630952Y-17165714D01*
X20773809Y-17165714D01*
X20964285Y-17213333D01*
X21059523Y-17260952D01*
X21154761Y-17356190D01*
X21202380Y-17499047D01*
X21202380Y-17737142D01*
X20297619Y-16784761D02*
X20250000Y-16737142D01*
X20202380Y-16641904D01*
X20202380Y-16403809D01*
X20250000Y-16308571D01*
X20297619Y-16260952D01*
X20392857Y-16213333D01*
X20488095Y-16213333D01*
X20630952Y-16260952D01*
X21202380Y-16832380D01*
X21202380Y-16213333D01*
X20821428Y-15784761D02*
X20821428Y-15022857D01*
G04 #@! TO.C,J2*
X40472380Y-24003333D02*
X41186666Y-24003333D01*
X41329523Y-24050952D01*
X41424761Y-24146190D01*
X41472380Y-24289047D01*
X41472380Y-24384285D01*
X40567619Y-23574761D02*
X40520000Y-23527142D01*
X40472380Y-23431904D01*
X40472380Y-23193809D01*
X40520000Y-23098571D01*
X40567619Y-23050952D01*
X40662857Y-23003333D01*
X40758095Y-23003333D01*
X40900952Y-23050952D01*
X41472380Y-23622380D01*
X41472380Y-23003333D01*
G04 #@! TO.C,GND*
X18940000Y-32011904D02*
X18892380Y-32107142D01*
X18892380Y-32250000D01*
X18940000Y-32392857D01*
X19035238Y-32488095D01*
X19130476Y-32535714D01*
X19320952Y-32583333D01*
X19463809Y-32583333D01*
X19654285Y-32535714D01*
X19749523Y-32488095D01*
X19844761Y-32392857D01*
X19892380Y-32250000D01*
X19892380Y-32154761D01*
X19844761Y-32011904D01*
X19797142Y-31964285D01*
X19463809Y-31964285D01*
X19463809Y-32154761D01*
X19892380Y-31535714D02*
X18892380Y-31535714D01*
X19892380Y-30964285D01*
X18892380Y-30964285D01*
X19892380Y-30488095D02*
X18892380Y-30488095D01*
X18892380Y-30250000D01*
X18940000Y-30107142D01*
X19035238Y-30011904D01*
X19130476Y-29964285D01*
X19320952Y-29916666D01*
X19463809Y-29916666D01*
X19654285Y-29964285D01*
X19749523Y-30011904D01*
X19844761Y-30107142D01*
X19892380Y-30250000D01*
X19892380Y-30488095D01*
G04 #@! TO.C,5V*
X19152380Y-26570476D02*
X19152380Y-27046666D01*
X19628571Y-27094285D01*
X19580952Y-27046666D01*
X19533333Y-26951428D01*
X19533333Y-26713333D01*
X19580952Y-26618095D01*
X19628571Y-26570476D01*
X19723809Y-26522857D01*
X19961904Y-26522857D01*
X20057142Y-26570476D01*
X20104761Y-26618095D01*
X20152380Y-26713333D01*
X20152380Y-26951428D01*
X20104761Y-27046666D01*
X20057142Y-27094285D01*
X19152380Y-26237142D02*
X20152380Y-25903809D01*
X19152380Y-25570476D01*
G04 #@! TO.C,CC2*
X17490000Y-17286666D02*
X17523333Y-17320000D01*
X17556666Y-17420000D01*
X17556666Y-17486666D01*
X17523333Y-17586666D01*
X17456666Y-17653333D01*
X17390000Y-17686666D01*
X17256666Y-17720000D01*
X17156666Y-17720000D01*
X17023333Y-17686666D01*
X16956666Y-17653333D01*
X16890000Y-17586666D01*
X16856666Y-17486666D01*
X16856666Y-17420000D01*
X16890000Y-17320000D01*
X16923333Y-17286666D01*
X17490000Y-16586666D02*
X17523333Y-16620000D01*
X17556666Y-16720000D01*
X17556666Y-16786666D01*
X17523333Y-16886666D01*
X17456666Y-16953333D01*
X17390000Y-16986666D01*
X17256666Y-17020000D01*
X17156666Y-17020000D01*
X17023333Y-16986666D01*
X16956666Y-16953333D01*
X16890000Y-16886666D01*
X16856666Y-16786666D01*
X16856666Y-16720000D01*
X16890000Y-16620000D01*
X16923333Y-16586666D01*
X16923333Y-16320000D02*
X16890000Y-16286666D01*
X16856666Y-16220000D01*
X16856666Y-16053333D01*
X16890000Y-15986666D01*
X16923333Y-15953333D01*
X16990000Y-15920000D01*
X17056666Y-15920000D01*
X17156666Y-15953333D01*
X17556666Y-16353333D01*
X17556666Y-15920000D01*
G04 #@! TO.C,CC1*
X23099142Y-25506666D02*
X23146761Y-25554285D01*
X23194380Y-25697142D01*
X23194380Y-25792380D01*
X23146761Y-25935238D01*
X23051523Y-26030476D01*
X22956285Y-26078095D01*
X22765809Y-26125714D01*
X22622952Y-26125714D01*
X22432476Y-26078095D01*
X22337238Y-26030476D01*
X22242000Y-25935238D01*
X22194380Y-25792380D01*
X22194380Y-25697142D01*
X22242000Y-25554285D01*
X22289619Y-25506666D01*
X23099142Y-24506666D02*
X23146761Y-24554285D01*
X23194380Y-24697142D01*
X23194380Y-24792380D01*
X23146761Y-24935238D01*
X23051523Y-25030476D01*
X22956285Y-25078095D01*
X22765809Y-25125714D01*
X22622952Y-25125714D01*
X22432476Y-25078095D01*
X22337238Y-25030476D01*
X22242000Y-24935238D01*
X22194380Y-24792380D01*
X22194380Y-24697142D01*
X22242000Y-24554285D01*
X22289619Y-24506666D01*
X23194380Y-23554285D02*
X23194380Y-24125714D01*
X23194380Y-23840000D02*
X22194380Y-23840000D01*
X22337238Y-23935238D01*
X22432476Y-24030476D01*
X22480095Y-24125714D01*
G04 #@! TO.C,2k*
X28647619Y-29770476D02*
X28600000Y-29722857D01*
X28552380Y-29627619D01*
X28552380Y-29389523D01*
X28600000Y-29294285D01*
X28647619Y-29246666D01*
X28742857Y-29199047D01*
X28838095Y-29199047D01*
X28980952Y-29246666D01*
X29552380Y-29818095D01*
X29552380Y-29199047D01*
X29552380Y-28770476D02*
X28552380Y-28770476D01*
X29171428Y-28675238D02*
X29552380Y-28389523D01*
X28885714Y-28389523D02*
X29266666Y-28770476D01*
G04 #@! TO.C,1k*
X29392380Y-32059047D02*
X29392380Y-32630476D01*
X29392380Y-32344761D02*
X28392380Y-32344761D01*
X28535238Y-32440000D01*
X28630476Y-32535238D01*
X28678095Y-32630476D01*
X29392380Y-31630476D02*
X28392380Y-31630476D01*
X29011428Y-31535238D02*
X29392380Y-31249523D01*
X28725714Y-31249523D02*
X29106666Y-31630476D01*
G04 #@! TO.C,J3*
X21952380Y-21363333D02*
X22666666Y-21363333D01*
X22809523Y-21410952D01*
X22904761Y-21506190D01*
X22952380Y-21649047D01*
X22952380Y-21744285D01*
X21952380Y-20982380D02*
X21952380Y-20363333D01*
X22333333Y-20696666D01*
X22333333Y-20553809D01*
X22380952Y-20458571D01*
X22428571Y-20410952D01*
X22523809Y-20363333D01*
X22761904Y-20363333D01*
X22857142Y-20410952D01*
X22904761Y-20458571D01*
X22952380Y-20553809D01*
X22952380Y-20839523D01*
X22904761Y-20934761D01*
X22857142Y-20982380D01*
G04 #@! TO.C,J1*
X23392380Y-30593333D02*
X24106666Y-30593333D01*
X24249523Y-30640952D01*
X24344761Y-30736190D01*
X24392380Y-30879047D01*
X24392380Y-30974285D01*
X24392380Y-29593333D02*
X24392380Y-30164761D01*
X24392380Y-29879047D02*
X23392380Y-29879047D01*
X23535238Y-29974285D01*
X23630476Y-30069523D01*
X23678095Y-30164761D01*
G04 #@! TD*
M02*
