G04 #@! TF.GenerationSoftware,KiCad,Pcbnew,(5.0.0-rc3)*
G04 #@! TF.CreationDate,2019-02-20T21:29:17+01:00*
G04 #@! TF.ProjectId,Adapter,416461707465722E6B696361645F7063,rev?*
G04 #@! TF.SameCoordinates,Original*
G04 #@! TF.FileFunction,Copper,L4,Bot,Signal*
G04 #@! TF.FilePolarity,Positive*
%FSLAX46Y46*%
G04 Gerber Fmt 4.6, Leading zero omitted, Abs format (unit mm)*
G04 Created by KiCad (PCBNEW (5.0.0-rc3)) date Wed Feb 20 21:29:17 2019*
%MOMM*%
%LPD*%
G01*
G04 APERTURE LIST*
G04 #@! TA.AperFunction,ComponentPad*
%ADD10O,1.700000X1.700000*%
G04 #@! TD*
G04 #@! TA.AperFunction,ComponentPad*
%ADD11R,1.700000X1.700000*%
G04 #@! TD*
G04 #@! TA.AperFunction,ComponentPad*
%ADD12O,1.300000X2.300000*%
G04 #@! TD*
G04 #@! TA.AperFunction,ComponentPad*
%ADD13O,1.300000X1.900000*%
G04 #@! TD*
G04 #@! TA.AperFunction,ComponentPad*
%ADD14O,1.250000X1.250000*%
G04 #@! TD*
G04 #@! TA.AperFunction,ComponentPad*
%ADD15O,1.550000X1.550000*%
G04 #@! TD*
G04 #@! TA.AperFunction,ComponentPad*
%ADD16O,0.800000X1.400000*%
G04 #@! TD*
G04 #@! TA.AperFunction,ViaPad*
%ADD17C,0.460000*%
G04 #@! TD*
G04 #@! TA.AperFunction,ViaPad*
%ADD18C,0.700000*%
G04 #@! TD*
G04 #@! TA.AperFunction,Conductor*
%ADD19C,0.175000*%
G04 #@! TD*
G04 #@! TA.AperFunction,Conductor*
%ADD20C,0.270000*%
G04 #@! TD*
G04 #@! TA.AperFunction,Conductor*
%ADD21C,0.220000*%
G04 #@! TD*
G04 APERTURE END LIST*
D10*
G04 #@! TO.P,J5,3*
G04 #@! TO.N,/UART_TX*
X28400000Y-47030000D03*
G04 #@! TO.P,J5,2*
G04 #@! TO.N,/UART_RX*
X28400000Y-44490000D03*
D11*
G04 #@! TO.P,J5,1*
G04 #@! TO.N,GND*
X28400000Y-41950000D03*
G04 #@! TD*
D10*
G04 #@! TO.P,J4,5*
G04 #@! TO.N,/nRESET*
X47040000Y-37000000D03*
G04 #@! TO.P,J4,4*
G04 #@! TO.N,/SWDIO*
X44500000Y-37000000D03*
G04 #@! TO.P,J4,3*
G04 #@! TO.N,GND*
X41960000Y-37000000D03*
G04 #@! TO.P,J4,2*
G04 #@! TO.N,/SWCLK*
X39420000Y-37000000D03*
D11*
G04 #@! TO.P,J4,1*
G04 #@! TO.N,+3V3*
X36880000Y-37000000D03*
G04 #@! TD*
D12*
G04 #@! TO.P,J2,SH*
G04 #@! TO.N,GND*
X45439160Y-72919780D03*
X61939160Y-72919780D03*
D13*
X45439160Y-79699780D03*
X61939160Y-79699780D03*
G04 #@! TD*
D14*
G04 #@! TO.P,J1,SH*
G04 #@! TO.N,GND*
X41400000Y-80200000D03*
X36400000Y-80200000D03*
D15*
X42400000Y-82900000D03*
X35400000Y-82900000D03*
G04 #@! TD*
D16*
G04 #@! TO.P,J3,S1*
G04 #@! TO.N,GND*
X60690000Y-35960000D03*
X51710000Y-35960000D03*
X52070000Y-41910000D03*
X60330000Y-41910000D03*
G04 #@! TD*
D17*
G04 #@! TO.N,/D+*
X49530500Y-50180000D03*
X56490000Y-43130000D03*
X56277142Y-41240166D03*
G04 #@! TO.N,GND*
X55700000Y-60900000D03*
X58700000Y-68500000D03*
X57200000Y-68500000D03*
X55700000Y-68500000D03*
X53000000Y-63500000D03*
X32500000Y-73300000D03*
D18*
X32300000Y-69700000D03*
D17*
X60900000Y-58600000D03*
X63000000Y-63700000D03*
X51475000Y-63450000D03*
X36225000Y-69000000D03*
X35375000Y-69000000D03*
X37225000Y-69025000D03*
X29080000Y-60880000D03*
X34712904Y-58932010D03*
X42425000Y-62949021D03*
X37690000Y-46360000D03*
X35679444Y-46891835D03*
X33390000Y-47640000D03*
X56810000Y-53980000D03*
X53160000Y-54010000D03*
X46990000Y-53086000D03*
X51562000Y-68580000D03*
X45400000Y-64531990D03*
X29459904Y-58990096D03*
X59182000Y-40894000D03*
X40132000Y-78486000D03*
X45719994Y-53594000D03*
X39370000Y-51007990D03*
X45548420Y-50007988D03*
X42138598Y-50007988D03*
X58121367Y-50378633D03*
X54205150Y-68500000D03*
G04 #@! TO.N,/D-*
X48969500Y-50180000D03*
X56678344Y-40821656D03*
D18*
G04 #@! TO.N,VBUS*
X37300000Y-77699996D03*
X37300000Y-76599988D03*
D17*
X65500000Y-44500000D03*
X62000000Y-49000000D03*
G04 #@! TO.N,/AUX+*
X54100000Y-40825000D03*
X55519485Y-43117371D03*
G04 #@! TO.N,/HPD*
X48000000Y-67300000D03*
X38100000Y-64008000D03*
G04 #@! TO.N,/CC2*
X55260446Y-41310213D03*
X56825000Y-39587645D03*
G04 #@! TO.N,/CC1*
X29240000Y-51530000D03*
X31140000Y-55370000D03*
X56500000Y-49592010D03*
G04 #@! TO.N,VOD_CTL*
X36068000Y-53086000D03*
X52000031Y-51507990D03*
G04 #@! TO.N,PRE_CTL*
X36947778Y-50794245D03*
X51418461Y-50161454D03*
G04 #@! TO.N,EN_CTL*
X38324904Y-51308000D03*
X59000000Y-51000000D03*
G04 #@! TO.N,EQ_CTL*
X37513030Y-51061082D03*
X58000000Y-52000000D03*
G04 #@! TO.N,/nRESET*
X41656000Y-40640000D03*
X57150000Y-64516000D03*
X45000000Y-39000016D03*
G04 #@! TO.N,VBUS_EN*
X46750000Y-54500000D03*
X58000000Y-49000000D03*
G04 #@! TO.N,Net-(R9-Pad2)*
X48500000Y-49000000D03*
X34500000Y-53000000D03*
G04 #@! TO.N,Net-(J3-PadA4)*
X57500000Y-44800000D03*
X54950000Y-42975000D03*
X60500000Y-46500000D03*
X61000000Y-46500000D03*
X55500000Y-44840000D03*
X57976843Y-41218667D03*
G04 #@! TO.N,/LED_B_L*
X66150000Y-50650000D03*
X38280000Y-62060000D03*
G04 #@! TO.N,/LED_G_L*
X65900000Y-49930000D03*
X33380000Y-58440000D03*
G04 #@! TO.N,/LED_R_L*
X64939826Y-52230714D03*
X37682996Y-62043004D03*
G04 #@! TO.N,/CC1_EN*
X33645885Y-54099117D03*
X45119958Y-57150000D03*
G04 #@! TO.N,/CC1_TX*
X33302842Y-55089150D03*
X45119958Y-57737013D03*
G04 #@! TO.N,+3V3*
X34500000Y-73000000D03*
X43000000Y-70000000D03*
X44000000Y-70000000D03*
X56400000Y-58000000D03*
X60925000Y-60200000D03*
X31190000Y-47569998D03*
X56800000Y-51300000D03*
G04 #@! TO.N,/TX_CLK*
X45720000Y-55626000D03*
X45720000Y-58166000D03*
G04 #@! TO.N,/SWCLK*
X40132000Y-40132000D03*
G04 #@! TO.N,/SWDIO*
X48260000Y-43180000D03*
G04 #@! TO.N,/UART_TX*
X35560000Y-65024000D03*
X28194000Y-51054000D03*
G04 #@! TO.N,/UART_RX*
X36576000Y-65786000D03*
G04 #@! TO.N,/BOOT*
X47295000Y-57058202D03*
X59511899Y-56183909D03*
G04 #@! TO.N,Net-(R14-Pad2)*
X35120495Y-51683697D03*
X48649479Y-45466000D03*
G04 #@! TO.N,VDD*
X46375000Y-61625000D03*
X32640000Y-61710000D03*
X46147300Y-51007990D03*
G04 #@! TD*
D19*
G04 #@! TO.N,/D+*
X56490000Y-43130000D02*
X56490000Y-41453024D01*
X56490000Y-41453024D02*
X56277142Y-41240166D01*
X54944976Y-39908000D02*
X56047143Y-41010167D01*
X51067162Y-39908000D02*
X54944976Y-39908000D01*
X49370000Y-50019500D02*
X49370000Y-41605162D01*
X49530500Y-50180000D02*
X49370000Y-50019500D01*
X49370000Y-41605162D02*
X51067162Y-39908000D01*
X56047143Y-41010167D02*
X56277142Y-41240166D01*
G04 #@! TO.N,/D-*
X56448345Y-40591657D02*
X56678344Y-40821656D01*
X55488677Y-39631989D02*
X56448345Y-40591657D01*
X50952835Y-39631989D02*
X55488677Y-39631989D01*
X49093990Y-41490834D02*
X50952835Y-39631989D01*
X49093990Y-49730241D02*
X49093990Y-41490834D01*
X48969500Y-49854731D02*
X49093990Y-49730241D01*
X48969500Y-50180000D02*
X48969500Y-49854731D01*
D20*
G04 #@! TO.N,VBUS*
X65500000Y-44500000D02*
X62000000Y-48000000D01*
X62000000Y-48000000D02*
X62000000Y-49000000D01*
D21*
G04 #@! TO.N,/AUX+*
X54100000Y-40825000D02*
X55519485Y-42244485D01*
X55519485Y-42244485D02*
X55519485Y-42792102D01*
X55519485Y-42792102D02*
X55519485Y-43117371D01*
D20*
G04 #@! TO.N,/HPD*
X48000000Y-67300000D02*
X41392000Y-67300000D01*
X41392000Y-67300000D02*
X38329999Y-64237999D01*
X38329999Y-64237999D02*
X38100000Y-64008000D01*
G04 #@! TO.N,/CC1*
X29240000Y-53470000D02*
X30910001Y-55140001D01*
X29240000Y-51530000D02*
X29240000Y-53470000D01*
X30910001Y-55140001D02*
X31140000Y-55370000D01*
X32902885Y-53607115D02*
X33882046Y-53607115D01*
X53694999Y-52397011D02*
X56270001Y-49822009D01*
X52777720Y-52397011D02*
X53694999Y-52397011D01*
X35408930Y-55133999D02*
X50040732Y-55133999D01*
X56270001Y-49822009D02*
X56500000Y-49592010D01*
X31140000Y-55370000D02*
X32902885Y-53607115D01*
X33882046Y-53607115D02*
X35408930Y-55133999D01*
X50040732Y-55133999D02*
X52777720Y-52397011D01*
G04 #@! TO.N,VOD_CTL*
X36068000Y-53086000D02*
X37052969Y-52101031D01*
X51661300Y-51602989D02*
X51905032Y-51602989D01*
X51163259Y-52101030D02*
X51661300Y-51602989D01*
X51905032Y-51602989D02*
X52000031Y-51507990D01*
X37052969Y-52101031D02*
X51163259Y-52101030D01*
G04 #@! TO.N,PRE_CTL*
X51188462Y-50391453D02*
X51418461Y-50161454D01*
X50669915Y-50910000D02*
X51188462Y-50391453D01*
X47970000Y-50910000D02*
X50669915Y-50910000D01*
X46560000Y-49500000D02*
X47970000Y-50910000D01*
X38242023Y-49500000D02*
X46560000Y-49500000D01*
X36947778Y-50794245D02*
X38242023Y-49500000D01*
G04 #@! TO.N,EN_CTL*
X38324904Y-51308000D02*
X38720924Y-51704020D01*
X38720924Y-51704020D02*
X50998811Y-51704020D01*
X51763869Y-51015988D02*
X53545471Y-51015987D01*
X50998811Y-51704020D02*
X51496853Y-51205978D01*
X53545471Y-51015987D02*
X56053459Y-48507999D01*
X58236163Y-48507999D02*
X59000000Y-49271836D01*
X59000000Y-49271836D02*
X59000000Y-50674731D01*
X51496853Y-51205978D02*
X51573880Y-51205977D01*
X51573880Y-51205977D02*
X51763869Y-51015988D01*
X59000000Y-50674731D02*
X59000000Y-51000000D01*
X56053459Y-48507999D02*
X58236163Y-48507999D01*
G04 #@! TO.N,EQ_CTL*
X51599422Y-50618977D02*
X53381023Y-50618977D01*
X53381023Y-50618977D02*
X55889012Y-48110988D01*
X55889012Y-48110988D02*
X58400610Y-48110988D01*
X58229999Y-51770001D02*
X58000000Y-52000000D01*
X59500000Y-51228164D02*
X59236162Y-51492002D01*
X59500000Y-49210378D02*
X59500000Y-51228164D01*
X50834363Y-51307010D02*
X51332406Y-50808967D01*
X37513030Y-51061082D02*
X38074112Y-50500000D01*
X47805553Y-51307011D02*
X50834363Y-51307010D01*
X46998542Y-50500000D02*
X47805553Y-51307011D01*
X58507998Y-51492002D02*
X58229999Y-51770001D01*
X51332406Y-50808967D02*
X51409432Y-50808967D01*
X38074112Y-50500000D02*
X46998542Y-50500000D01*
X59236162Y-51492002D02*
X58507998Y-51492002D01*
X58400610Y-48110988D02*
X59500000Y-49210378D01*
X51409432Y-50808967D02*
X51599422Y-50618977D01*
G04 #@! TO.N,/nRESET*
X43295984Y-39000016D02*
X44674731Y-39000016D01*
X44674731Y-39000016D02*
X45000000Y-39000016D01*
X41656000Y-40640000D02*
X43295984Y-39000016D01*
G04 #@! TO.N,VBUS_EN*
X46750000Y-54500000D02*
X49325747Y-54500000D01*
X57674731Y-49000000D02*
X58000000Y-49000000D01*
X49325747Y-54500000D02*
X51825747Y-52000000D01*
X53200000Y-52000000D02*
X56200000Y-49000000D01*
X56200000Y-49000000D02*
X57674731Y-49000000D01*
X51825747Y-52000000D02*
X53200000Y-52000000D01*
G04 #@! TO.N,Net-(R9-Pad2)*
X48500000Y-49000000D02*
X38000000Y-49000000D01*
X38000000Y-49000000D02*
X36000000Y-51000000D01*
X36000000Y-51000000D02*
X36000000Y-51500000D01*
X36000000Y-51500000D02*
X34500000Y-53000000D01*
G04 #@! TO.N,/LED_B_L*
X59565056Y-52286024D02*
X59003598Y-52286024D01*
X53160047Y-53191033D02*
X50181889Y-56169191D01*
X46405989Y-57562367D02*
X46609013Y-57765391D01*
X46609013Y-57765391D02*
X46609012Y-59190988D01*
X46609012Y-59190988D02*
X43740000Y-62060000D01*
X46405989Y-56657595D02*
X46405989Y-57562367D01*
X66150000Y-50650000D02*
X61201080Y-50650000D01*
X38605269Y-62060000D02*
X38280000Y-62060000D01*
X50181889Y-56169191D02*
X46894393Y-56169191D01*
X43740000Y-62060000D02*
X38605269Y-62060000D01*
X61201080Y-50650000D02*
X59565056Y-52286024D01*
X58098589Y-53191033D02*
X53160047Y-53191033D01*
X46894393Y-56169191D02*
X46405989Y-56657595D01*
X59003598Y-52286024D02*
X58098589Y-53191033D01*
G04 #@! TO.N,/LED_G_L*
X42120000Y-59180000D02*
X41380000Y-58440000D01*
X58839151Y-51889013D02*
X57934142Y-52794022D01*
X52995600Y-52794022D02*
X50132611Y-55657011D01*
X46008978Y-57726814D02*
X46212002Y-57929838D01*
X65900000Y-49930000D02*
X61359622Y-49930000D01*
X50132611Y-55657011D02*
X46845115Y-55657011D01*
X46008978Y-56493148D02*
X46008978Y-57726814D01*
X57934142Y-52794022D02*
X52995600Y-52794022D01*
X41380000Y-58440000D02*
X33705269Y-58440000D01*
X61359622Y-49930000D02*
X59400609Y-51889013D01*
X46212002Y-57929838D02*
X46212002Y-59026540D01*
X46845115Y-55657011D02*
X46008978Y-56493148D01*
X33705269Y-58440000D02*
X33380000Y-58440000D01*
X46058542Y-59180000D02*
X42120000Y-59180000D01*
X46212002Y-59026540D02*
X46058542Y-59180000D01*
X59400609Y-51889013D02*
X58839151Y-51889013D01*
G04 #@! TO.N,/LED_R_L*
X64939826Y-52230714D02*
X64487505Y-52683035D01*
X38611153Y-62457011D02*
X38516162Y-62552002D01*
X46803000Y-57294364D02*
X47027999Y-57519363D01*
X47027999Y-59663459D02*
X44234447Y-62457011D01*
X46803000Y-56822042D02*
X46803000Y-57294364D01*
X64487505Y-52683035D02*
X59168045Y-52683035D01*
X37866725Y-62552002D02*
X37682996Y-62368273D01*
X47027999Y-57519363D02*
X47027999Y-59663459D01*
X55284878Y-56566202D02*
X47058840Y-56566202D01*
X44234447Y-62457011D02*
X38611153Y-62457011D01*
X38516162Y-62552002D02*
X37866725Y-62552002D01*
X59168045Y-52683035D02*
X55284878Y-56566202D01*
X37682996Y-62368273D02*
X37682996Y-62043004D01*
X47058840Y-56566202D02*
X46803000Y-56822042D01*
G04 #@! TO.N,/CC1_EN*
X33645885Y-54424386D02*
X36371499Y-57150000D01*
X36371499Y-57150000D02*
X44794689Y-57150000D01*
X33645885Y-54099117D02*
X33645885Y-54424386D01*
X44794689Y-57150000D02*
X45119958Y-57150000D01*
G04 #@! TO.N,/CC1_TX*
X35950705Y-57737013D02*
X44794689Y-57737013D01*
X33302842Y-55089150D02*
X35950705Y-57737013D01*
X44794689Y-57737013D02*
X45119958Y-57737013D01*
G04 #@! TO.N,/TX_CLK*
X45720000Y-55951269D02*
X45611969Y-56059300D01*
X45611969Y-56059300D02*
X45611969Y-58057969D01*
X45611969Y-58057969D02*
X45720000Y-58166000D01*
X45720000Y-55626000D02*
X45720000Y-55951269D01*
G04 #@! TO.N,/SWCLK*
X40132000Y-37712000D02*
X39420000Y-37000000D01*
X40132000Y-40132000D02*
X40132000Y-37712000D01*
G04 #@! TO.N,/SWDIO*
X46500000Y-39000000D02*
X44500000Y-37000000D01*
X48260000Y-43180000D02*
X46500000Y-41420000D01*
X46500000Y-41420000D02*
X46500000Y-39000000D01*
G04 #@! TO.N,/UART_TX*
X35330001Y-64794001D02*
X34568001Y-64794001D01*
X35560000Y-65024000D02*
X35330001Y-64794001D01*
X34568001Y-64794001D02*
X28194000Y-58420000D01*
X28194000Y-58420000D02*
X28194000Y-51054000D01*
G04 #@! TO.N,/UART_RX*
X36576000Y-65786000D02*
X29464000Y-65786000D01*
X27287999Y-63609999D02*
X27287999Y-50944001D01*
X29464000Y-65786000D02*
X27287999Y-63609999D01*
X29512001Y-45602001D02*
X29249999Y-45339999D01*
X29249999Y-45339999D02*
X28400000Y-44490000D01*
X29512001Y-48719999D02*
X29512001Y-45602001D01*
X27287999Y-50944001D02*
X29512001Y-48719999D01*
G04 #@! TO.N,/BOOT*
X47295000Y-57058202D02*
X58637606Y-57058202D01*
X59281900Y-56413908D02*
X59511899Y-56183909D01*
X58637606Y-57058202D02*
X59281900Y-56413908D01*
G04 #@! TO.N,Net-(R14-Pad2)*
X48324210Y-45466000D02*
X48649479Y-45466000D01*
X40822723Y-45466000D02*
X48324210Y-45466000D01*
X35120495Y-51168228D02*
X40822723Y-45466000D01*
X35120495Y-51683697D02*
X35120495Y-51168228D01*
G04 #@! TD*
M02*
