G04 #@! TF.GenerationSoftware,KiCad,Pcbnew,(5.0.0-rc3)*
G04 #@! TF.CreationDate,2018-08-22T20:47:19+02:00*
G04 #@! TF.ProjectId,Adapter,416461707465722E6B696361645F7063,rev?*
G04 #@! TF.SameCoordinates,Original*
G04 #@! TF.FileFunction,Paste,Top*
G04 #@! TF.FilePolarity,Positive*
%FSLAX46Y46*%
G04 Gerber Fmt 4.6, Leading zero omitted, Abs format (unit mm)*
G04 Created by KiCad (PCBNEW (5.0.0-rc3)) date Wed Aug 22 20:47:19 2018*
%MOMM*%
%LPD*%
G01*
G04 APERTURE LIST*
%ADD10R,1.800000X3.400000*%
%ADD11C,0.100000*%
%ADD12C,0.975000*%
%ADD13R,0.300000X1.300000*%
%ADD14R,0.400000X1.350000*%
G04 APERTURE END LIST*
D10*
G04 #@! TO.C,GND*
X17740574Y-30782257D03*
G04 #@! TD*
G04 #@! TO.C,5V*
X17740574Y-26432257D03*
G04 #@! TD*
D11*
G04 #@! TO.C,2k*
G36*
X30508217Y-28458430D02*
X30531878Y-28461940D01*
X30555082Y-28467752D01*
X30577604Y-28475810D01*
X30599228Y-28486038D01*
X30619745Y-28498335D01*
X30638958Y-28512585D01*
X30656682Y-28528649D01*
X30672746Y-28546373D01*
X30686996Y-28565586D01*
X30699293Y-28586103D01*
X30709521Y-28607727D01*
X30717579Y-28630249D01*
X30723391Y-28653453D01*
X30726901Y-28677114D01*
X30728075Y-28701006D01*
X30728075Y-29613506D01*
X30726901Y-29637398D01*
X30723391Y-29661059D01*
X30717579Y-29684263D01*
X30709521Y-29706785D01*
X30699293Y-29728409D01*
X30686996Y-29748926D01*
X30672746Y-29768139D01*
X30656682Y-29785863D01*
X30638958Y-29801927D01*
X30619745Y-29816177D01*
X30599228Y-29828474D01*
X30577604Y-29838702D01*
X30555082Y-29846760D01*
X30531878Y-29852572D01*
X30508217Y-29856082D01*
X30484325Y-29857256D01*
X29996825Y-29857256D01*
X29972933Y-29856082D01*
X29949272Y-29852572D01*
X29926068Y-29846760D01*
X29903546Y-29838702D01*
X29881922Y-29828474D01*
X29861405Y-29816177D01*
X29842192Y-29801927D01*
X29824468Y-29785863D01*
X29808404Y-29768139D01*
X29794154Y-29748926D01*
X29781857Y-29728409D01*
X29771629Y-29706785D01*
X29763571Y-29684263D01*
X29757759Y-29661059D01*
X29754249Y-29637398D01*
X29753075Y-29613506D01*
X29753075Y-28701006D01*
X29754249Y-28677114D01*
X29757759Y-28653453D01*
X29763571Y-28630249D01*
X29771629Y-28607727D01*
X29781857Y-28586103D01*
X29794154Y-28565586D01*
X29808404Y-28546373D01*
X29824468Y-28528649D01*
X29842192Y-28512585D01*
X29861405Y-28498335D01*
X29881922Y-28486038D01*
X29903546Y-28475810D01*
X29926068Y-28467752D01*
X29949272Y-28461940D01*
X29972933Y-28458430D01*
X29996825Y-28457256D01*
X30484325Y-28457256D01*
X30508217Y-28458430D01*
X30508217Y-28458430D01*
G37*
D12*
X30240575Y-29157256D03*
D11*
G36*
X32383217Y-28458430D02*
X32406878Y-28461940D01*
X32430082Y-28467752D01*
X32452604Y-28475810D01*
X32474228Y-28486038D01*
X32494745Y-28498335D01*
X32513958Y-28512585D01*
X32531682Y-28528649D01*
X32547746Y-28546373D01*
X32561996Y-28565586D01*
X32574293Y-28586103D01*
X32584521Y-28607727D01*
X32592579Y-28630249D01*
X32598391Y-28653453D01*
X32601901Y-28677114D01*
X32603075Y-28701006D01*
X32603075Y-29613506D01*
X32601901Y-29637398D01*
X32598391Y-29661059D01*
X32592579Y-29684263D01*
X32584521Y-29706785D01*
X32574293Y-29728409D01*
X32561996Y-29748926D01*
X32547746Y-29768139D01*
X32531682Y-29785863D01*
X32513958Y-29801927D01*
X32494745Y-29816177D01*
X32474228Y-29828474D01*
X32452604Y-29838702D01*
X32430082Y-29846760D01*
X32406878Y-29852572D01*
X32383217Y-29856082D01*
X32359325Y-29857256D01*
X31871825Y-29857256D01*
X31847933Y-29856082D01*
X31824272Y-29852572D01*
X31801068Y-29846760D01*
X31778546Y-29838702D01*
X31756922Y-29828474D01*
X31736405Y-29816177D01*
X31717192Y-29801927D01*
X31699468Y-29785863D01*
X31683404Y-29768139D01*
X31669154Y-29748926D01*
X31656857Y-29728409D01*
X31646629Y-29706785D01*
X31638571Y-29684263D01*
X31632759Y-29661059D01*
X31629249Y-29637398D01*
X31628075Y-29613506D01*
X31628075Y-28701006D01*
X31629249Y-28677114D01*
X31632759Y-28653453D01*
X31638571Y-28630249D01*
X31646629Y-28607727D01*
X31656857Y-28586103D01*
X31669154Y-28565586D01*
X31683404Y-28546373D01*
X31699468Y-28528649D01*
X31717192Y-28512585D01*
X31736405Y-28498335D01*
X31756922Y-28486038D01*
X31778546Y-28475810D01*
X31801068Y-28467752D01*
X31824272Y-28461940D01*
X31847933Y-28458430D01*
X31871825Y-28457256D01*
X32359325Y-28457256D01*
X32383217Y-28458430D01*
X32383217Y-28458430D01*
G37*
D12*
X32115575Y-29157256D03*
G04 #@! TD*
D11*
G04 #@! TO.C,1k*
G36*
X30508217Y-31358430D02*
X30531878Y-31361940D01*
X30555082Y-31367752D01*
X30577604Y-31375810D01*
X30599228Y-31386038D01*
X30619745Y-31398335D01*
X30638958Y-31412585D01*
X30656682Y-31428649D01*
X30672746Y-31446373D01*
X30686996Y-31465586D01*
X30699293Y-31486103D01*
X30709521Y-31507727D01*
X30717579Y-31530249D01*
X30723391Y-31553453D01*
X30726901Y-31577114D01*
X30728075Y-31601006D01*
X30728075Y-32513506D01*
X30726901Y-32537398D01*
X30723391Y-32561059D01*
X30717579Y-32584263D01*
X30709521Y-32606785D01*
X30699293Y-32628409D01*
X30686996Y-32648926D01*
X30672746Y-32668139D01*
X30656682Y-32685863D01*
X30638958Y-32701927D01*
X30619745Y-32716177D01*
X30599228Y-32728474D01*
X30577604Y-32738702D01*
X30555082Y-32746760D01*
X30531878Y-32752572D01*
X30508217Y-32756082D01*
X30484325Y-32757256D01*
X29996825Y-32757256D01*
X29972933Y-32756082D01*
X29949272Y-32752572D01*
X29926068Y-32746760D01*
X29903546Y-32738702D01*
X29881922Y-32728474D01*
X29861405Y-32716177D01*
X29842192Y-32701927D01*
X29824468Y-32685863D01*
X29808404Y-32668139D01*
X29794154Y-32648926D01*
X29781857Y-32628409D01*
X29771629Y-32606785D01*
X29763571Y-32584263D01*
X29757759Y-32561059D01*
X29754249Y-32537398D01*
X29753075Y-32513506D01*
X29753075Y-31601006D01*
X29754249Y-31577114D01*
X29757759Y-31553453D01*
X29763571Y-31530249D01*
X29771629Y-31507727D01*
X29781857Y-31486103D01*
X29794154Y-31465586D01*
X29808404Y-31446373D01*
X29824468Y-31428649D01*
X29842192Y-31412585D01*
X29861405Y-31398335D01*
X29881922Y-31386038D01*
X29903546Y-31375810D01*
X29926068Y-31367752D01*
X29949272Y-31361940D01*
X29972933Y-31358430D01*
X29996825Y-31357256D01*
X30484325Y-31357256D01*
X30508217Y-31358430D01*
X30508217Y-31358430D01*
G37*
D12*
X30240575Y-32057256D03*
D11*
G36*
X32383217Y-31358430D02*
X32406878Y-31361940D01*
X32430082Y-31367752D01*
X32452604Y-31375810D01*
X32474228Y-31386038D01*
X32494745Y-31398335D01*
X32513958Y-31412585D01*
X32531682Y-31428649D01*
X32547746Y-31446373D01*
X32561996Y-31465586D01*
X32574293Y-31486103D01*
X32584521Y-31507727D01*
X32592579Y-31530249D01*
X32598391Y-31553453D01*
X32601901Y-31577114D01*
X32603075Y-31601006D01*
X32603075Y-32513506D01*
X32601901Y-32537398D01*
X32598391Y-32561059D01*
X32592579Y-32584263D01*
X32584521Y-32606785D01*
X32574293Y-32628409D01*
X32561996Y-32648926D01*
X32547746Y-32668139D01*
X32531682Y-32685863D01*
X32513958Y-32701927D01*
X32494745Y-32716177D01*
X32474228Y-32728474D01*
X32452604Y-32738702D01*
X32430082Y-32746760D01*
X32406878Y-32752572D01*
X32383217Y-32756082D01*
X32359325Y-32757256D01*
X31871825Y-32757256D01*
X31847933Y-32756082D01*
X31824272Y-32752572D01*
X31801068Y-32746760D01*
X31778546Y-32738702D01*
X31756922Y-32728474D01*
X31736405Y-32716177D01*
X31717192Y-32701927D01*
X31699468Y-32685863D01*
X31683404Y-32668139D01*
X31669154Y-32648926D01*
X31656857Y-32628409D01*
X31646629Y-32606785D01*
X31638571Y-32584263D01*
X31632759Y-32561059D01*
X31629249Y-32537398D01*
X31628075Y-32513506D01*
X31628075Y-31601006D01*
X31629249Y-31577114D01*
X31632759Y-31553453D01*
X31638571Y-31530249D01*
X31646629Y-31507727D01*
X31656857Y-31486103D01*
X31669154Y-31465586D01*
X31683404Y-31446373D01*
X31699468Y-31428649D01*
X31717192Y-31412585D01*
X31736405Y-31398335D01*
X31756922Y-31386038D01*
X31778546Y-31375810D01*
X31801068Y-31367752D01*
X31824272Y-31361940D01*
X31847933Y-31358430D01*
X31871825Y-31357256D01*
X32359325Y-31357256D01*
X32383217Y-31358430D01*
X32383217Y-31358430D01*
G37*
D12*
X32115575Y-32057256D03*
G04 #@! TD*
D13*
G04 #@! TO.C,J3*
X19715575Y-19357256D03*
X19715575Y-22857256D03*
X20215575Y-19357256D03*
X20215575Y-22857256D03*
X20715575Y-19357256D03*
X20715575Y-22857256D03*
X21215575Y-19357256D03*
X21215575Y-22857256D03*
X21715575Y-19357256D03*
X21715575Y-22857256D03*
X22215575Y-19357256D03*
X22215575Y-22857256D03*
X22715575Y-19357256D03*
X22715575Y-22857256D03*
X23215575Y-19357256D03*
X23215575Y-22857256D03*
X23715575Y-19357256D03*
X23715575Y-22857256D03*
X24215575Y-19357256D03*
X24215575Y-22857256D03*
X24715575Y-19357256D03*
X24715575Y-22857256D03*
X25215575Y-19357256D03*
X25215575Y-22857256D03*
G04 #@! TD*
D14*
G04 #@! TO.C,J1*
X24015575Y-28857256D03*
X24665575Y-28857256D03*
X25315575Y-28857256D03*
X23365575Y-28857256D03*
X22715575Y-28857256D03*
G04 #@! TD*
M02*
