G04 #@! TF.GenerationSoftware,KiCad,Pcbnew,(5.0.0-rc3)*
G04 #@! TF.CreationDate,2019-02-20T01:37:15+01:00*
G04 #@! TF.ProjectId,Adapter,416461707465722E6B696361645F7063,rev?*
G04 #@! TF.SameCoordinates,Original*
G04 #@! TF.FileFunction,Copper,L3,Inr,Plane*
G04 #@! TF.FilePolarity,Positive*
%FSLAX46Y46*%
G04 Gerber Fmt 4.6, Leading zero omitted, Abs format (unit mm)*
G04 Created by KiCad (PCBNEW (5.0.0-rc3)) date Wed Feb 20 01:37:15 2019*
%MOMM*%
%LPD*%
G01*
G04 APERTURE LIST*
G04 #@! TA.AperFunction,ViaPad*
%ADD10R,1.700000X1.700000*%
G04 #@! TD*
G04 #@! TA.AperFunction,ViaPad*
%ADD11O,1.700000X1.700000*%
G04 #@! TD*
G04 #@! TA.AperFunction,ViaPad*
%ADD12O,1.300000X2.300000*%
G04 #@! TD*
G04 #@! TA.AperFunction,ViaPad*
%ADD13O,1.300000X1.900000*%
G04 #@! TD*
G04 #@! TA.AperFunction,ViaPad*
%ADD14O,1.250000X1.250000*%
G04 #@! TD*
G04 #@! TA.AperFunction,ViaPad*
%ADD15O,1.550000X1.550000*%
G04 #@! TD*
G04 #@! TA.AperFunction,ViaPad*
%ADD16O,0.800000X1.400000*%
G04 #@! TD*
G04 #@! TA.AperFunction,ViaPad*
%ADD17C,0.460000*%
G04 #@! TD*
G04 #@! TA.AperFunction,ViaPad*
%ADD18C,0.700000*%
G04 #@! TD*
G04 #@! TA.AperFunction,Conductor*
%ADD19C,0.270000*%
G04 #@! TD*
G04 #@! TA.AperFunction,Conductor*
%ADD20C,0.254000*%
G04 #@! TD*
%ADD21C,0.254000*%
G04 APERTURE END LIST*
D10*
G04 #@! TO.N,GND*
G04 #@! TO.C,J5*
X28400000Y-41950000D03*
D11*
G04 #@! TO.N,/UART_RX*
X28400000Y-44490000D03*
G04 #@! TO.N,/UART_TX*
X28400000Y-47030000D03*
G04 #@! TD*
D10*
G04 #@! TO.N,+3V3*
G04 #@! TO.C,J4*
X36880000Y-37000000D03*
D11*
G04 #@! TO.N,/SWCLK*
X39420000Y-37000000D03*
G04 #@! TO.N,GND*
X41960000Y-37000000D03*
G04 #@! TO.N,/SWDIO*
X44500000Y-37000000D03*
G04 #@! TO.N,/nRESET*
X47040000Y-37000000D03*
G04 #@! TD*
D12*
G04 #@! TO.N,GND*
G04 #@! TO.C,J2*
X45439160Y-72919780D03*
X61939160Y-72919780D03*
D13*
X45439160Y-79699780D03*
X61939160Y-79699780D03*
G04 #@! TD*
D14*
G04 #@! TO.N,GND*
G04 #@! TO.C,J1*
X41400000Y-80200000D03*
X36400000Y-80200000D03*
D15*
X42400000Y-82900000D03*
X35400000Y-82900000D03*
G04 #@! TD*
D16*
G04 #@! TO.N,GND*
G04 #@! TO.C,J3*
X60690000Y-35960000D03*
X51710000Y-35960000D03*
X52070000Y-41910000D03*
X60330000Y-41910000D03*
G04 #@! TD*
D17*
G04 #@! TO.N,/D+*
X56500000Y-43174019D03*
X56143356Y-41108139D03*
X49616306Y-49919946D03*
G04 #@! TO.N,GND*
X54217850Y-68500000D03*
X55700000Y-60900000D03*
X58700000Y-68500000D03*
X57200000Y-68500000D03*
X55700000Y-68500000D03*
X53000000Y-63500000D03*
X32500000Y-73300000D03*
D18*
X32300000Y-69700000D03*
D17*
X60900000Y-58600000D03*
X63000000Y-63700000D03*
X51475000Y-63450000D03*
X36225000Y-69000000D03*
X35375000Y-69000000D03*
X37225000Y-69025000D03*
X29080000Y-60880000D03*
X34712904Y-58932010D03*
X42425000Y-62949021D03*
X37690000Y-46360000D03*
X35679444Y-46891835D03*
X33390000Y-47640000D03*
X56810000Y-53980000D03*
X53160000Y-54010000D03*
X46990000Y-53086000D03*
X51562000Y-68580000D03*
X45400000Y-64531990D03*
X29459904Y-58990096D03*
X59182000Y-40894000D03*
X40132000Y-78486000D03*
X45719994Y-53594000D03*
X39370000Y-51007990D03*
X45548420Y-50007988D03*
X42138598Y-50007988D03*
X58121367Y-50378633D03*
G04 #@! TO.N,/D-*
X56730318Y-41115771D03*
X49000000Y-49919946D03*
D18*
G04 #@! TO.N,VBUS*
X37300000Y-77699996D03*
X37300000Y-76599988D03*
D17*
X65500000Y-44500000D03*
X62000000Y-49000000D03*
G04 #@! TO.N,/AUX+*
X54100000Y-40825000D03*
X55519485Y-43117371D03*
G04 #@! TO.N,/HPD*
X48000000Y-67300000D03*
X38100000Y-64008000D03*
G04 #@! TO.N,/CC2*
X55350000Y-41275000D03*
X56825000Y-39600000D03*
G04 #@! TO.N,/CC1*
X29240000Y-51530000D03*
X31140000Y-55370000D03*
X56500000Y-49592010D03*
G04 #@! TO.N,VOD_CTL*
X36068000Y-53086000D03*
X52000031Y-51507990D03*
G04 #@! TO.N,PRE_CTL*
X36947778Y-50794245D03*
X51418461Y-50161454D03*
G04 #@! TO.N,EN_CTL*
X38324904Y-51308000D03*
X59000000Y-51000000D03*
G04 #@! TO.N,EQ_CTL*
X37513030Y-51061082D03*
X58000000Y-52000000D03*
G04 #@! TO.N,/nRESET*
X41656000Y-40640000D03*
X57150000Y-64516000D03*
X45000000Y-39000016D03*
G04 #@! TO.N,VBUS_EN*
X46750000Y-54500000D03*
X58000000Y-49000000D03*
G04 #@! TO.N,Net-(R9-Pad2)*
X48500000Y-49000000D03*
X34500000Y-53000000D03*
G04 #@! TO.N,Net-(J3-PadA4)*
X57500000Y-44800000D03*
X54982990Y-44883268D03*
X57667010Y-41186022D03*
X54950000Y-42975000D03*
X60500000Y-46500000D03*
X61000000Y-46500000D03*
G04 #@! TO.N,/LED_B_L*
X66150000Y-50650000D03*
X38280000Y-62060000D03*
G04 #@! TO.N,/LED_G_L*
X65900000Y-49930000D03*
X33380000Y-58440000D03*
G04 #@! TO.N,/LED_R_L*
X64939826Y-52230714D03*
X37682996Y-62043004D03*
G04 #@! TO.N,/CC1_EN*
X33645885Y-54099117D03*
X45119958Y-57150000D03*
G04 #@! TO.N,/CC1_TX*
X33302842Y-55089150D03*
X45119958Y-57737013D03*
G04 #@! TO.N,+3V3*
X34500000Y-73000000D03*
X43000000Y-70000000D03*
X44000000Y-70000000D03*
X56400000Y-58000000D03*
X60925000Y-60200000D03*
X31190000Y-47569998D03*
X56800000Y-51300000D03*
G04 #@! TO.N,/TX_CLK*
X45720000Y-55626000D03*
X45720000Y-58166000D03*
G04 #@! TO.N,/SWCLK*
X40132000Y-40132000D03*
G04 #@! TO.N,/SWDIO*
X48260000Y-43180000D03*
G04 #@! TO.N,/UART_TX*
X35560000Y-65024000D03*
X28194000Y-51054000D03*
G04 #@! TO.N,/UART_RX*
X36576000Y-65786000D03*
G04 #@! TO.N,/BOOT*
X47295000Y-57058202D03*
X59511899Y-56183909D03*
G04 #@! TO.N,Net-(R14-Pad2)*
X48752010Y-45466000D03*
X35120495Y-51683697D03*
G04 #@! TO.N,VDD*
X46375000Y-61625000D03*
X32640000Y-61710000D03*
X46147300Y-51007990D03*
G04 #@! TD*
D19*
G04 #@! TO.N,/CC2*
X55350000Y-41275000D02*
X55350000Y-40100000D01*
X55350000Y-40100000D02*
X55850000Y-39600000D01*
X55850000Y-39600000D02*
X56825000Y-39600000D01*
G04 #@! TD*
D20*
G04 #@! TO.N,VBUS*
G36*
X67665861Y-34756160D02*
X68304530Y-34956307D01*
X68889902Y-35280784D01*
X69398078Y-35716343D01*
X69808289Y-36245183D01*
X70103786Y-36845712D01*
X70274623Y-37501567D01*
X70315000Y-38026313D01*
X70315001Y-79965292D01*
X70243839Y-80665865D01*
X70043693Y-81304532D01*
X69719215Y-81889904D01*
X69283657Y-82398077D01*
X68754815Y-82808290D01*
X68154287Y-83103786D01*
X67498433Y-83274623D01*
X67226110Y-83295577D01*
X67072388Y-83265000D01*
X43765020Y-83265000D01*
X43837623Y-82900000D01*
X43728190Y-82349845D01*
X43416553Y-81883447D01*
X42950155Y-81571810D01*
X42538870Y-81490000D01*
X42261130Y-81490000D01*
X41849845Y-81571810D01*
X41383447Y-81883447D01*
X41071810Y-82349845D01*
X40962377Y-82900000D01*
X41034980Y-83265000D01*
X36765020Y-83265000D01*
X36837623Y-82900000D01*
X36728190Y-82349845D01*
X36416553Y-81883447D01*
X35950155Y-81571810D01*
X35538870Y-81490000D01*
X35261130Y-81490000D01*
X34849845Y-81571810D01*
X34383447Y-81883447D01*
X34071810Y-82349845D01*
X33962377Y-82900000D01*
X34034980Y-83265000D01*
X29427612Y-83265000D01*
X29297416Y-83290898D01*
X28834135Y-83243839D01*
X28195468Y-83043693D01*
X27610096Y-82719215D01*
X27101923Y-82283657D01*
X26691710Y-81754815D01*
X26396214Y-81154287D01*
X26225377Y-80498433D01*
X26185000Y-79973687D01*
X26185000Y-79625050D01*
X27615000Y-79625050D01*
X27615000Y-80374950D01*
X27901974Y-81067767D01*
X28432233Y-81598026D01*
X29125050Y-81885000D01*
X29874950Y-81885000D01*
X30567767Y-81598026D01*
X31098026Y-81067767D01*
X31385000Y-80374950D01*
X31385000Y-80200000D01*
X35115316Y-80200000D01*
X35213107Y-80691627D01*
X35491591Y-81108409D01*
X35908373Y-81386893D01*
X36275906Y-81460000D01*
X36524094Y-81460000D01*
X36891627Y-81386893D01*
X37308409Y-81108409D01*
X37586893Y-80691627D01*
X37684684Y-80200000D01*
X37586893Y-79708373D01*
X37308409Y-79291591D01*
X36891627Y-79013107D01*
X36524094Y-78940000D01*
X36275906Y-78940000D01*
X35908373Y-79013107D01*
X35491591Y-79291591D01*
X35213107Y-79708373D01*
X35115316Y-80200000D01*
X31385000Y-80200000D01*
X31385000Y-79625050D01*
X31098026Y-78932233D01*
X30567767Y-78401974D01*
X30355237Y-78313941D01*
X39267000Y-78313941D01*
X39267000Y-78658059D01*
X39398689Y-78975983D01*
X39642017Y-79219311D01*
X39959941Y-79351000D01*
X40304059Y-79351000D01*
X40563530Y-79243523D01*
X40491591Y-79291591D01*
X40213107Y-79708373D01*
X40115316Y-80200000D01*
X40213107Y-80691627D01*
X40491591Y-81108409D01*
X40908373Y-81386893D01*
X41275906Y-81460000D01*
X41524094Y-81460000D01*
X41891627Y-81386893D01*
X42308409Y-81108409D01*
X42586893Y-80691627D01*
X42684684Y-80200000D01*
X42586893Y-79708373D01*
X42308409Y-79291591D01*
X42280920Y-79273223D01*
X44154160Y-79273223D01*
X44154160Y-80126338D01*
X44228717Y-80501162D01*
X44512728Y-80926213D01*
X44937779Y-81210223D01*
X45439160Y-81309954D01*
X45940542Y-81210223D01*
X46365593Y-80926213D01*
X46649603Y-80501162D01*
X46683796Y-80329259D01*
X52329160Y-80329259D01*
X52329160Y-80870301D01*
X52536208Y-81370158D01*
X52918782Y-81752732D01*
X53418639Y-81959780D01*
X53959681Y-81959780D01*
X54459538Y-81752732D01*
X54842112Y-81370158D01*
X55049160Y-80870301D01*
X55049160Y-80329259D01*
X54842112Y-79829402D01*
X54459538Y-79446828D01*
X54040420Y-79273223D01*
X60654160Y-79273223D01*
X60654160Y-80126338D01*
X60728717Y-80501162D01*
X61012728Y-80926213D01*
X61437779Y-81210223D01*
X61939160Y-81309954D01*
X62440542Y-81210223D01*
X62865593Y-80926213D01*
X63149603Y-80501162D01*
X63224160Y-80126337D01*
X63224160Y-79625050D01*
X65615000Y-79625050D01*
X65615000Y-80374950D01*
X65901974Y-81067767D01*
X66432233Y-81598026D01*
X67125050Y-81885000D01*
X67874950Y-81885000D01*
X68567767Y-81598026D01*
X69098026Y-81067767D01*
X69385000Y-80374950D01*
X69385000Y-79625050D01*
X69098026Y-78932233D01*
X68567767Y-78401974D01*
X67874950Y-78115000D01*
X67125050Y-78115000D01*
X66432233Y-78401974D01*
X65901974Y-78932233D01*
X65615000Y-79625050D01*
X63224160Y-79625050D01*
X63224160Y-79273222D01*
X63149603Y-78898398D01*
X62865593Y-78473347D01*
X62440541Y-78189337D01*
X61939160Y-78089606D01*
X61437778Y-78189337D01*
X61012727Y-78473347D01*
X60728717Y-78898399D01*
X60654160Y-79273223D01*
X54040420Y-79273223D01*
X53959681Y-79239780D01*
X53418639Y-79239780D01*
X52918782Y-79446828D01*
X52536208Y-79829402D01*
X52329160Y-80329259D01*
X46683796Y-80329259D01*
X46724160Y-80126337D01*
X46724160Y-79273222D01*
X46649603Y-78898398D01*
X46365593Y-78473347D01*
X45940541Y-78189337D01*
X45439160Y-78089606D01*
X44937778Y-78189337D01*
X44512727Y-78473347D01*
X44228717Y-78898399D01*
X44154160Y-79273223D01*
X42280920Y-79273223D01*
X41891627Y-79013107D01*
X41524094Y-78940000D01*
X41275906Y-78940000D01*
X40908373Y-79013107D01*
X40666720Y-79174574D01*
X40865311Y-78975983D01*
X40997000Y-78658059D01*
X40997000Y-78313941D01*
X40865311Y-77996017D01*
X40621983Y-77752689D01*
X40304059Y-77621000D01*
X39959941Y-77621000D01*
X39642017Y-77752689D01*
X39398689Y-77996017D01*
X39267000Y-78313941D01*
X30355237Y-78313941D01*
X29874950Y-78115000D01*
X29125050Y-78115000D01*
X28432233Y-78401974D01*
X27901974Y-78932233D01*
X27615000Y-79625050D01*
X26185000Y-79625050D01*
X26185000Y-75127000D01*
X57800000Y-75127000D01*
X57848601Y-75117333D01*
X57889803Y-75089803D01*
X60654160Y-72325446D01*
X60654160Y-73546338D01*
X60728717Y-73921162D01*
X61012728Y-74346213D01*
X61437779Y-74630223D01*
X61939160Y-74729954D01*
X62440542Y-74630223D01*
X62865593Y-74346213D01*
X63149603Y-73921162D01*
X63224160Y-73546338D01*
X63224160Y-72293222D01*
X63149603Y-71918398D01*
X62865593Y-71493347D01*
X62440541Y-71209337D01*
X61939160Y-71109606D01*
X61852827Y-71126779D01*
X63289803Y-69689803D01*
X63317333Y-69648601D01*
X63327000Y-69600348D01*
X63340987Y-64495027D01*
X63489983Y-64433311D01*
X63733311Y-64189983D01*
X63865000Y-63872059D01*
X63865000Y-63527941D01*
X63733311Y-63210017D01*
X63489983Y-62966689D01*
X63345339Y-62906775D01*
X63375059Y-52058655D01*
X64074826Y-52058655D01*
X64074826Y-52402773D01*
X64206515Y-52720697D01*
X64449843Y-52964025D01*
X64767767Y-53095714D01*
X65111885Y-53095714D01*
X65429809Y-52964025D01*
X65673137Y-52720697D01*
X65804826Y-52402773D01*
X65804826Y-52058655D01*
X65673137Y-51740731D01*
X65429809Y-51497403D01*
X65111885Y-51365714D01*
X64767767Y-51365714D01*
X64449843Y-51497403D01*
X64206515Y-51740731D01*
X64074826Y-52058655D01*
X63375059Y-52058655D01*
X63381362Y-49757941D01*
X65035000Y-49757941D01*
X65035000Y-50102059D01*
X65166689Y-50419983D01*
X65285000Y-50538294D01*
X65285000Y-50822059D01*
X65416689Y-51139983D01*
X65660017Y-51383311D01*
X65977941Y-51515000D01*
X66322059Y-51515000D01*
X66639983Y-51383311D01*
X66883311Y-51139983D01*
X67015000Y-50822059D01*
X67015000Y-50477941D01*
X66883311Y-50160017D01*
X66765000Y-50041706D01*
X66765000Y-49757941D01*
X66633311Y-49440017D01*
X66389983Y-49196689D01*
X66072059Y-49065000D01*
X65727941Y-49065000D01*
X65410017Y-49196689D01*
X65166689Y-49440017D01*
X65035000Y-49757941D01*
X63381362Y-49757941D01*
X63414603Y-37625050D01*
X65615000Y-37625050D01*
X65615000Y-38374950D01*
X65901974Y-39067767D01*
X66432233Y-39598026D01*
X67125050Y-39885000D01*
X67874950Y-39885000D01*
X68567767Y-39598026D01*
X69098026Y-39067767D01*
X69385000Y-38374950D01*
X69385000Y-37625050D01*
X69098026Y-36932233D01*
X68567767Y-36401974D01*
X67874950Y-36115000D01*
X67125050Y-36115000D01*
X66432233Y-36401974D01*
X65901974Y-36932233D01*
X65615000Y-37625050D01*
X63414603Y-37625050D01*
X63422658Y-34685000D01*
X66965302Y-34685000D01*
X67665861Y-34756160D01*
X67665861Y-34756160D01*
G37*
X67665861Y-34756160D02*
X68304530Y-34956307D01*
X68889902Y-35280784D01*
X69398078Y-35716343D01*
X69808289Y-36245183D01*
X70103786Y-36845712D01*
X70274623Y-37501567D01*
X70315000Y-38026313D01*
X70315001Y-79965292D01*
X70243839Y-80665865D01*
X70043693Y-81304532D01*
X69719215Y-81889904D01*
X69283657Y-82398077D01*
X68754815Y-82808290D01*
X68154287Y-83103786D01*
X67498433Y-83274623D01*
X67226110Y-83295577D01*
X67072388Y-83265000D01*
X43765020Y-83265000D01*
X43837623Y-82900000D01*
X43728190Y-82349845D01*
X43416553Y-81883447D01*
X42950155Y-81571810D01*
X42538870Y-81490000D01*
X42261130Y-81490000D01*
X41849845Y-81571810D01*
X41383447Y-81883447D01*
X41071810Y-82349845D01*
X40962377Y-82900000D01*
X41034980Y-83265000D01*
X36765020Y-83265000D01*
X36837623Y-82900000D01*
X36728190Y-82349845D01*
X36416553Y-81883447D01*
X35950155Y-81571810D01*
X35538870Y-81490000D01*
X35261130Y-81490000D01*
X34849845Y-81571810D01*
X34383447Y-81883447D01*
X34071810Y-82349845D01*
X33962377Y-82900000D01*
X34034980Y-83265000D01*
X29427612Y-83265000D01*
X29297416Y-83290898D01*
X28834135Y-83243839D01*
X28195468Y-83043693D01*
X27610096Y-82719215D01*
X27101923Y-82283657D01*
X26691710Y-81754815D01*
X26396214Y-81154287D01*
X26225377Y-80498433D01*
X26185000Y-79973687D01*
X26185000Y-79625050D01*
X27615000Y-79625050D01*
X27615000Y-80374950D01*
X27901974Y-81067767D01*
X28432233Y-81598026D01*
X29125050Y-81885000D01*
X29874950Y-81885000D01*
X30567767Y-81598026D01*
X31098026Y-81067767D01*
X31385000Y-80374950D01*
X31385000Y-80200000D01*
X35115316Y-80200000D01*
X35213107Y-80691627D01*
X35491591Y-81108409D01*
X35908373Y-81386893D01*
X36275906Y-81460000D01*
X36524094Y-81460000D01*
X36891627Y-81386893D01*
X37308409Y-81108409D01*
X37586893Y-80691627D01*
X37684684Y-80200000D01*
X37586893Y-79708373D01*
X37308409Y-79291591D01*
X36891627Y-79013107D01*
X36524094Y-78940000D01*
X36275906Y-78940000D01*
X35908373Y-79013107D01*
X35491591Y-79291591D01*
X35213107Y-79708373D01*
X35115316Y-80200000D01*
X31385000Y-80200000D01*
X31385000Y-79625050D01*
X31098026Y-78932233D01*
X30567767Y-78401974D01*
X30355237Y-78313941D01*
X39267000Y-78313941D01*
X39267000Y-78658059D01*
X39398689Y-78975983D01*
X39642017Y-79219311D01*
X39959941Y-79351000D01*
X40304059Y-79351000D01*
X40563530Y-79243523D01*
X40491591Y-79291591D01*
X40213107Y-79708373D01*
X40115316Y-80200000D01*
X40213107Y-80691627D01*
X40491591Y-81108409D01*
X40908373Y-81386893D01*
X41275906Y-81460000D01*
X41524094Y-81460000D01*
X41891627Y-81386893D01*
X42308409Y-81108409D01*
X42586893Y-80691627D01*
X42684684Y-80200000D01*
X42586893Y-79708373D01*
X42308409Y-79291591D01*
X42280920Y-79273223D01*
X44154160Y-79273223D01*
X44154160Y-80126338D01*
X44228717Y-80501162D01*
X44512728Y-80926213D01*
X44937779Y-81210223D01*
X45439160Y-81309954D01*
X45940542Y-81210223D01*
X46365593Y-80926213D01*
X46649603Y-80501162D01*
X46683796Y-80329259D01*
X52329160Y-80329259D01*
X52329160Y-80870301D01*
X52536208Y-81370158D01*
X52918782Y-81752732D01*
X53418639Y-81959780D01*
X53959681Y-81959780D01*
X54459538Y-81752732D01*
X54842112Y-81370158D01*
X55049160Y-80870301D01*
X55049160Y-80329259D01*
X54842112Y-79829402D01*
X54459538Y-79446828D01*
X54040420Y-79273223D01*
X60654160Y-79273223D01*
X60654160Y-80126338D01*
X60728717Y-80501162D01*
X61012728Y-80926213D01*
X61437779Y-81210223D01*
X61939160Y-81309954D01*
X62440542Y-81210223D01*
X62865593Y-80926213D01*
X63149603Y-80501162D01*
X63224160Y-80126337D01*
X63224160Y-79625050D01*
X65615000Y-79625050D01*
X65615000Y-80374950D01*
X65901974Y-81067767D01*
X66432233Y-81598026D01*
X67125050Y-81885000D01*
X67874950Y-81885000D01*
X68567767Y-81598026D01*
X69098026Y-81067767D01*
X69385000Y-80374950D01*
X69385000Y-79625050D01*
X69098026Y-78932233D01*
X68567767Y-78401974D01*
X67874950Y-78115000D01*
X67125050Y-78115000D01*
X66432233Y-78401974D01*
X65901974Y-78932233D01*
X65615000Y-79625050D01*
X63224160Y-79625050D01*
X63224160Y-79273222D01*
X63149603Y-78898398D01*
X62865593Y-78473347D01*
X62440541Y-78189337D01*
X61939160Y-78089606D01*
X61437778Y-78189337D01*
X61012727Y-78473347D01*
X60728717Y-78898399D01*
X60654160Y-79273223D01*
X54040420Y-79273223D01*
X53959681Y-79239780D01*
X53418639Y-79239780D01*
X52918782Y-79446828D01*
X52536208Y-79829402D01*
X52329160Y-80329259D01*
X46683796Y-80329259D01*
X46724160Y-80126337D01*
X46724160Y-79273222D01*
X46649603Y-78898398D01*
X46365593Y-78473347D01*
X45940541Y-78189337D01*
X45439160Y-78089606D01*
X44937778Y-78189337D01*
X44512727Y-78473347D01*
X44228717Y-78898399D01*
X44154160Y-79273223D01*
X42280920Y-79273223D01*
X41891627Y-79013107D01*
X41524094Y-78940000D01*
X41275906Y-78940000D01*
X40908373Y-79013107D01*
X40666720Y-79174574D01*
X40865311Y-78975983D01*
X40997000Y-78658059D01*
X40997000Y-78313941D01*
X40865311Y-77996017D01*
X40621983Y-77752689D01*
X40304059Y-77621000D01*
X39959941Y-77621000D01*
X39642017Y-77752689D01*
X39398689Y-77996017D01*
X39267000Y-78313941D01*
X30355237Y-78313941D01*
X29874950Y-78115000D01*
X29125050Y-78115000D01*
X28432233Y-78401974D01*
X27901974Y-78932233D01*
X27615000Y-79625050D01*
X26185000Y-79625050D01*
X26185000Y-75127000D01*
X57800000Y-75127000D01*
X57848601Y-75117333D01*
X57889803Y-75089803D01*
X60654160Y-72325446D01*
X60654160Y-73546338D01*
X60728717Y-73921162D01*
X61012728Y-74346213D01*
X61437779Y-74630223D01*
X61939160Y-74729954D01*
X62440542Y-74630223D01*
X62865593Y-74346213D01*
X63149603Y-73921162D01*
X63224160Y-73546338D01*
X63224160Y-72293222D01*
X63149603Y-71918398D01*
X62865593Y-71493347D01*
X62440541Y-71209337D01*
X61939160Y-71109606D01*
X61852827Y-71126779D01*
X63289803Y-69689803D01*
X63317333Y-69648601D01*
X63327000Y-69600348D01*
X63340987Y-64495027D01*
X63489983Y-64433311D01*
X63733311Y-64189983D01*
X63865000Y-63872059D01*
X63865000Y-63527941D01*
X63733311Y-63210017D01*
X63489983Y-62966689D01*
X63345339Y-62906775D01*
X63375059Y-52058655D01*
X64074826Y-52058655D01*
X64074826Y-52402773D01*
X64206515Y-52720697D01*
X64449843Y-52964025D01*
X64767767Y-53095714D01*
X65111885Y-53095714D01*
X65429809Y-52964025D01*
X65673137Y-52720697D01*
X65804826Y-52402773D01*
X65804826Y-52058655D01*
X65673137Y-51740731D01*
X65429809Y-51497403D01*
X65111885Y-51365714D01*
X64767767Y-51365714D01*
X64449843Y-51497403D01*
X64206515Y-51740731D01*
X64074826Y-52058655D01*
X63375059Y-52058655D01*
X63381362Y-49757941D01*
X65035000Y-49757941D01*
X65035000Y-50102059D01*
X65166689Y-50419983D01*
X65285000Y-50538294D01*
X65285000Y-50822059D01*
X65416689Y-51139983D01*
X65660017Y-51383311D01*
X65977941Y-51515000D01*
X66322059Y-51515000D01*
X66639983Y-51383311D01*
X66883311Y-51139983D01*
X67015000Y-50822059D01*
X67015000Y-50477941D01*
X66883311Y-50160017D01*
X66765000Y-50041706D01*
X66765000Y-49757941D01*
X66633311Y-49440017D01*
X66389983Y-49196689D01*
X66072059Y-49065000D01*
X65727941Y-49065000D01*
X65410017Y-49196689D01*
X65166689Y-49440017D01*
X65035000Y-49757941D01*
X63381362Y-49757941D01*
X63414603Y-37625050D01*
X65615000Y-37625050D01*
X65615000Y-38374950D01*
X65901974Y-39067767D01*
X66432233Y-39598026D01*
X67125050Y-39885000D01*
X67874950Y-39885000D01*
X68567767Y-39598026D01*
X69098026Y-39067767D01*
X69385000Y-38374950D01*
X69385000Y-37625050D01*
X69098026Y-36932233D01*
X68567767Y-36401974D01*
X67874950Y-36115000D01*
X67125050Y-36115000D01*
X66432233Y-36401974D01*
X65901974Y-36932233D01*
X65615000Y-37625050D01*
X63414603Y-37625050D01*
X63422658Y-34685000D01*
X66965302Y-34685000D01*
X67665861Y-34756160D01*
G04 #@! TO.N,+3V3*
G36*
X51306164Y-34685052D02*
X50963808Y-34913807D01*
X50735053Y-35256163D01*
X50675000Y-35558065D01*
X50675000Y-36361934D01*
X50735052Y-36663836D01*
X50963807Y-37006193D01*
X51306163Y-37234948D01*
X51710000Y-37315276D01*
X52113836Y-37234948D01*
X52456193Y-37006193D01*
X52684948Y-36663837D01*
X52745000Y-36361935D01*
X52745000Y-35558066D01*
X52684948Y-35256164D01*
X52456193Y-34913807D01*
X52113837Y-34685052D01*
X52113576Y-34685000D01*
X60286425Y-34685000D01*
X60286164Y-34685052D01*
X59943808Y-34913807D01*
X59715053Y-35256163D01*
X59655000Y-35558065D01*
X59655000Y-36361934D01*
X59715052Y-36663836D01*
X59943807Y-37006193D01*
X60286163Y-37234948D01*
X60690000Y-37315276D01*
X61093836Y-37234948D01*
X61436193Y-37006193D01*
X61502801Y-36906507D01*
X61541935Y-41641759D01*
X61365000Y-41600763D01*
X61365000Y-41508066D01*
X61304948Y-41206164D01*
X61076193Y-40863807D01*
X60733837Y-40635052D01*
X60330000Y-40554724D01*
X60004551Y-40619460D01*
X59915311Y-40404017D01*
X59671983Y-40160689D01*
X59354059Y-40029000D01*
X59009941Y-40029000D01*
X58692017Y-40160689D01*
X58448689Y-40404017D01*
X58348991Y-40644709D01*
X58156993Y-40452711D01*
X57839069Y-40321022D01*
X57494951Y-40321022D01*
X57445899Y-40341340D01*
X57447275Y-40201019D01*
X57558311Y-40089983D01*
X57690000Y-39772059D01*
X57690000Y-39427941D01*
X57558311Y-39110017D01*
X57458945Y-39010651D01*
X57459969Y-38906225D01*
X57412325Y-38658600D01*
X57275238Y-38452216D01*
X57069606Y-38314003D01*
X56826735Y-38265002D01*
X47856400Y-38240493D01*
X48110625Y-38070625D01*
X48438839Y-37579418D01*
X48554092Y-37000000D01*
X48438839Y-36420582D01*
X48110625Y-35929375D01*
X47619418Y-35601161D01*
X47186256Y-35515000D01*
X46893744Y-35515000D01*
X46460582Y-35601161D01*
X45969375Y-35929375D01*
X45770000Y-36227761D01*
X45570625Y-35929375D01*
X45079418Y-35601161D01*
X44646256Y-35515000D01*
X44353744Y-35515000D01*
X43920582Y-35601161D01*
X43429375Y-35929375D01*
X43230000Y-36227761D01*
X43030625Y-35929375D01*
X42539418Y-35601161D01*
X42106256Y-35515000D01*
X41813744Y-35515000D01*
X41380582Y-35601161D01*
X40889375Y-35929375D01*
X40690000Y-36227761D01*
X40490625Y-35929375D01*
X39999418Y-35601161D01*
X39566256Y-35515000D01*
X39273744Y-35515000D01*
X38840582Y-35601161D01*
X38349375Y-35929375D01*
X38334904Y-35951033D01*
X38268327Y-35790302D01*
X38089699Y-35611673D01*
X37856310Y-35515000D01*
X37165750Y-35515000D01*
X37007000Y-35673750D01*
X37007000Y-36873000D01*
X37027000Y-36873000D01*
X37027000Y-37127000D01*
X37007000Y-37127000D01*
X37007000Y-38326250D01*
X37165750Y-38485000D01*
X37856310Y-38485000D01*
X38089699Y-38388327D01*
X38268327Y-38209698D01*
X38334904Y-38048967D01*
X38349375Y-38070625D01*
X38840582Y-38398839D01*
X39273744Y-38485000D01*
X39566256Y-38485000D01*
X39999418Y-38398839D01*
X40490625Y-38070625D01*
X40690000Y-37772239D01*
X40889375Y-38070625D01*
X41380582Y-38398839D01*
X41813744Y-38485000D01*
X42106256Y-38485000D01*
X42539418Y-38398839D01*
X43030625Y-38070625D01*
X43230000Y-37772239D01*
X43429375Y-38070625D01*
X43920582Y-38398839D01*
X44302012Y-38474710D01*
X44266689Y-38510033D01*
X44135000Y-38827957D01*
X44135000Y-39172075D01*
X44266689Y-39489999D01*
X44510017Y-39733327D01*
X44827941Y-39865016D01*
X45172059Y-39865016D01*
X45489983Y-39733327D01*
X45733311Y-39489999D01*
X45865000Y-39172075D01*
X45865000Y-38827957D01*
X45733311Y-38510033D01*
X45489983Y-38266705D01*
X45358611Y-38212289D01*
X45570625Y-38070625D01*
X45770000Y-37772239D01*
X45969375Y-38070625D01*
X46460582Y-38398839D01*
X46893744Y-38485000D01*
X47184528Y-38485000D01*
X47081788Y-38648450D01*
X47040247Y-38892708D01*
X47145182Y-42654223D01*
X47071766Y-42640008D01*
X32346766Y-42715008D01*
X32106996Y-42763336D01*
X31900987Y-42900987D01*
X31763336Y-43106996D01*
X31715000Y-43350000D01*
X31715000Y-54721706D01*
X31629983Y-54636689D01*
X31312059Y-54505000D01*
X30967941Y-54505000D01*
X30650017Y-54636689D01*
X30406689Y-54880017D01*
X30275000Y-55197941D01*
X30275000Y-55542059D01*
X30406689Y-55859983D01*
X30650017Y-56103311D01*
X30967941Y-56235000D01*
X31312059Y-56235000D01*
X31629983Y-56103311D01*
X31715000Y-56018294D01*
X31715000Y-62925000D01*
X31758227Y-63155281D01*
X31891398Y-63364214D01*
X32094387Y-63506280D01*
X32336291Y-63559852D01*
X37304917Y-63667148D01*
X37235000Y-63835941D01*
X37235000Y-64180059D01*
X37366689Y-64497983D01*
X37610017Y-64741311D01*
X37927941Y-64873000D01*
X38272059Y-64873000D01*
X38589983Y-64741311D01*
X38833311Y-64497983D01*
X38965000Y-64180059D01*
X38965000Y-63835941D01*
X38909435Y-63701797D01*
X42151005Y-63771798D01*
X42252941Y-63814021D01*
X42597059Y-63814021D01*
X42671841Y-63783045D01*
X44878010Y-63830686D01*
X44666689Y-64042007D01*
X44535000Y-64359931D01*
X44535000Y-64704049D01*
X44666689Y-65021973D01*
X44910017Y-65265301D01*
X45227941Y-65396990D01*
X45572059Y-65396990D01*
X45889983Y-65265301D01*
X46133311Y-65021973D01*
X46265000Y-64704049D01*
X46265000Y-64359931D01*
X46133311Y-64042007D01*
X45945032Y-63853728D01*
X47386291Y-63884852D01*
X47652516Y-63832633D01*
X47856258Y-63691649D01*
X47990539Y-63483428D01*
X48027948Y-63277941D01*
X50610000Y-63277941D01*
X50610000Y-63622059D01*
X50741689Y-63939983D01*
X50985017Y-64183311D01*
X51302941Y-64315000D01*
X51647059Y-64315000D01*
X51964983Y-64183311D01*
X52208311Y-63939983D01*
X52227145Y-63894515D01*
X52266689Y-63989983D01*
X52510017Y-64233311D01*
X52827941Y-64365000D01*
X53172059Y-64365000D01*
X53222899Y-64343941D01*
X56285000Y-64343941D01*
X56285000Y-64688059D01*
X56416689Y-65005983D01*
X56660017Y-65249311D01*
X56977941Y-65381000D01*
X57322059Y-65381000D01*
X57639983Y-65249311D01*
X57883311Y-65005983D01*
X58015000Y-64688059D01*
X58015000Y-64343941D01*
X57883311Y-64026017D01*
X57639983Y-63782689D01*
X57322059Y-63651000D01*
X56977941Y-63651000D01*
X56660017Y-63782689D01*
X56416689Y-64026017D01*
X56285000Y-64343941D01*
X53222899Y-64343941D01*
X53489983Y-64233311D01*
X53733311Y-63989983D01*
X53865000Y-63672059D01*
X53865000Y-63327941D01*
X53733311Y-63010017D01*
X53489983Y-62766689D01*
X53172059Y-62635000D01*
X52827941Y-62635000D01*
X52510017Y-62766689D01*
X52266689Y-63010017D01*
X52247855Y-63055485D01*
X52208311Y-62960017D01*
X51964983Y-62716689D01*
X51647059Y-62585000D01*
X51302941Y-62585000D01*
X50985017Y-62716689D01*
X50741689Y-62960017D01*
X50610000Y-63277941D01*
X48027948Y-63277941D01*
X48034916Y-63239670D01*
X47994050Y-60727941D01*
X54835000Y-60727941D01*
X54835000Y-61072059D01*
X54966689Y-61389983D01*
X55210017Y-61633311D01*
X55527941Y-61765000D01*
X55872059Y-61765000D01*
X56189983Y-61633311D01*
X56433311Y-61389983D01*
X56565000Y-61072059D01*
X56565000Y-60727941D01*
X56433311Y-60410017D01*
X56189983Y-60166689D01*
X55872059Y-60035000D01*
X55527941Y-60035000D01*
X55210017Y-60166689D01*
X54966689Y-60410017D01*
X54835000Y-60727941D01*
X47994050Y-60727941D01*
X47943690Y-57632806D01*
X48028311Y-57548185D01*
X48160000Y-57230261D01*
X48160000Y-56886143D01*
X48028311Y-56568219D01*
X47924683Y-56464591D01*
X47917317Y-56011850D01*
X58646899Y-56011850D01*
X58646899Y-56355968D01*
X58778588Y-56673892D01*
X59021916Y-56917220D01*
X59339840Y-57048909D01*
X59683958Y-57048909D01*
X60001882Y-56917220D01*
X60245210Y-56673892D01*
X60376899Y-56355968D01*
X60376899Y-56011850D01*
X60245210Y-55693926D01*
X60001882Y-55450598D01*
X59683958Y-55318909D01*
X59339840Y-55318909D01*
X59021916Y-55450598D01*
X58778588Y-55693926D01*
X58646899Y-56011850D01*
X47917317Y-56011850D01*
X47881947Y-53837941D01*
X52295000Y-53837941D01*
X52295000Y-54182059D01*
X52426689Y-54499983D01*
X52670017Y-54743311D01*
X52987941Y-54875000D01*
X53332059Y-54875000D01*
X53649983Y-54743311D01*
X53893311Y-54499983D01*
X54025000Y-54182059D01*
X54025000Y-53837941D01*
X54012574Y-53807941D01*
X55945000Y-53807941D01*
X55945000Y-54152059D01*
X56076689Y-54469983D01*
X56320017Y-54713311D01*
X56637941Y-54845000D01*
X56982059Y-54845000D01*
X57299983Y-54713311D01*
X57543311Y-54469983D01*
X57675000Y-54152059D01*
X57675000Y-53807941D01*
X57543311Y-53490017D01*
X57299983Y-53246689D01*
X56982059Y-53115000D01*
X56637941Y-53115000D01*
X56320017Y-53246689D01*
X56076689Y-53490017D01*
X55945000Y-53807941D01*
X54012574Y-53807941D01*
X53893311Y-53520017D01*
X53649983Y-53276689D01*
X53332059Y-53145000D01*
X52987941Y-53145000D01*
X52670017Y-53276689D01*
X52426689Y-53520017D01*
X52295000Y-53837941D01*
X47881947Y-53837941D01*
X47837851Y-51127747D01*
X48000000Y-51160000D01*
X50100000Y-51160000D01*
X50344624Y-51110990D01*
X50550251Y-50972771D01*
X50687333Y-50766382D01*
X50705816Y-50672103D01*
X50928478Y-50894765D01*
X51246402Y-51026454D01*
X51263221Y-51026454D01*
X51135031Y-51335931D01*
X51135031Y-51680049D01*
X51266720Y-51997973D01*
X51510048Y-52241301D01*
X51827972Y-52372990D01*
X52172090Y-52372990D01*
X52490014Y-52241301D01*
X52733342Y-51997973D01*
X52865031Y-51680049D01*
X52865031Y-51335931D01*
X52733342Y-51018007D01*
X52490014Y-50774679D01*
X52172090Y-50642990D01*
X52155271Y-50642990D01*
X52283461Y-50333513D01*
X52283461Y-49989395D01*
X52151772Y-49671471D01*
X51908444Y-49428143D01*
X51888667Y-49419951D01*
X55635000Y-49419951D01*
X55635000Y-49764069D01*
X55766689Y-50081993D01*
X56010017Y-50325321D01*
X56327941Y-50457010D01*
X56672059Y-50457010D01*
X56989983Y-50325321D01*
X57233311Y-50081993D01*
X57365000Y-49764069D01*
X57365000Y-49588294D01*
X57510017Y-49733311D01*
X57533619Y-49743087D01*
X57388056Y-49888650D01*
X57256367Y-50206574D01*
X57256367Y-50550692D01*
X57388056Y-50868616D01*
X57631384Y-51111944D01*
X57757493Y-51164180D01*
X57510017Y-51266689D01*
X57266689Y-51510017D01*
X57135000Y-51827941D01*
X57135000Y-52172059D01*
X57266689Y-52489983D01*
X57510017Y-52733311D01*
X57827941Y-52865000D01*
X58172059Y-52865000D01*
X58489983Y-52733311D01*
X58733311Y-52489983D01*
X58865000Y-52172059D01*
X58865000Y-51865000D01*
X59172059Y-51865000D01*
X59489983Y-51733311D01*
X59733311Y-51489983D01*
X59865000Y-51172059D01*
X59865000Y-50827941D01*
X59733311Y-50510017D01*
X59489983Y-50266689D01*
X59172059Y-50135000D01*
X58956720Y-50135000D01*
X58854678Y-49888650D01*
X58611350Y-49645322D01*
X58587748Y-49635546D01*
X58733311Y-49489983D01*
X58865000Y-49172059D01*
X58865000Y-48827941D01*
X58733311Y-48510017D01*
X58489983Y-48266689D01*
X58172059Y-48135000D01*
X57827941Y-48135000D01*
X57510017Y-48266689D01*
X57266689Y-48510017D01*
X57135000Y-48827941D01*
X57135000Y-49003716D01*
X56989983Y-48858699D01*
X56672059Y-48727010D01*
X56327941Y-48727010D01*
X56010017Y-48858699D01*
X55766689Y-49102027D01*
X55635000Y-49419951D01*
X51888667Y-49419951D01*
X51590520Y-49296454D01*
X51246402Y-49296454D01*
X50928478Y-49428143D01*
X50732514Y-49624107D01*
X50711750Y-42107638D01*
X51035000Y-42106436D01*
X51035000Y-42311934D01*
X51095052Y-42613836D01*
X51323807Y-42956193D01*
X51489686Y-43067030D01*
X51471193Y-43160000D01*
X51545700Y-43534573D01*
X51757879Y-43852121D01*
X52075427Y-44064300D01*
X52355451Y-44120000D01*
X52690000Y-44120000D01*
X52690000Y-44200000D01*
X52738336Y-44443004D01*
X52875987Y-44649013D01*
X54450987Y-46224013D01*
X54656996Y-46361664D01*
X54900000Y-46410000D01*
X57536974Y-46410000D01*
X58325987Y-47199013D01*
X58531996Y-47336664D01*
X58775000Y-47385000D01*
X61300000Y-47385000D01*
X61543004Y-47336664D01*
X61588748Y-47306099D01*
X61596391Y-48230912D01*
X61510017Y-48266689D01*
X61266689Y-48510017D01*
X61135000Y-48827941D01*
X61135000Y-49172059D01*
X61266689Y-49489983D01*
X61510017Y-49733311D01*
X61609147Y-49774372D01*
X61678947Y-58220192D01*
X61633311Y-58110017D01*
X61389983Y-57866689D01*
X61072059Y-57735000D01*
X60727941Y-57735000D01*
X60410017Y-57866689D01*
X60166689Y-58110017D01*
X60035000Y-58427941D01*
X60035000Y-58772059D01*
X60166689Y-59089983D01*
X60410017Y-59333311D01*
X60727941Y-59465000D01*
X61072059Y-59465000D01*
X61389983Y-59333311D01*
X61633311Y-59089983D01*
X61685102Y-58964949D01*
X61772543Y-69545297D01*
X57250053Y-73772843D01*
X46685714Y-73739622D01*
X46724160Y-73546338D01*
X46724160Y-72293222D01*
X46649603Y-71918398D01*
X46365593Y-71493347D01*
X45940541Y-71209337D01*
X45439160Y-71109606D01*
X44937778Y-71209337D01*
X44512727Y-71493347D01*
X44228717Y-71918399D01*
X44154160Y-72293223D01*
X44154160Y-73546338D01*
X44191046Y-73731777D01*
X33271644Y-73697439D01*
X33365000Y-73472059D01*
X33365000Y-73127941D01*
X33233311Y-72810017D01*
X32989983Y-72566689D01*
X32672059Y-72435000D01*
X32327941Y-72435000D01*
X32010017Y-72566689D01*
X31766689Y-72810017D01*
X31635000Y-73127941D01*
X31635000Y-73472059D01*
X31726343Y-73692579D01*
X26185000Y-73675154D01*
X26185000Y-69504071D01*
X31315000Y-69504071D01*
X31315000Y-69895929D01*
X31464958Y-70257958D01*
X31742042Y-70535042D01*
X32104071Y-70685000D01*
X32495929Y-70685000D01*
X32857958Y-70535042D01*
X33135042Y-70257958D01*
X33285000Y-69895929D01*
X33285000Y-69504071D01*
X33135042Y-69142042D01*
X32857958Y-68864958D01*
X32768592Y-68827941D01*
X34510000Y-68827941D01*
X34510000Y-69172059D01*
X34641689Y-69489983D01*
X34885017Y-69733311D01*
X35202941Y-69865000D01*
X35547059Y-69865000D01*
X35800000Y-69760228D01*
X36052941Y-69865000D01*
X36397059Y-69865000D01*
X36711472Y-69734766D01*
X36735017Y-69758311D01*
X37052941Y-69890000D01*
X37397059Y-69890000D01*
X37714983Y-69758311D01*
X37958311Y-69514983D01*
X38090000Y-69197059D01*
X38090000Y-68852941D01*
X37958311Y-68535017D01*
X37831235Y-68407941D01*
X50697000Y-68407941D01*
X50697000Y-68752059D01*
X50828689Y-69069983D01*
X51072017Y-69313311D01*
X51389941Y-69445000D01*
X51734059Y-69445000D01*
X52051983Y-69313311D01*
X52295311Y-69069983D01*
X52427000Y-68752059D01*
X52427000Y-68407941D01*
X52393863Y-68327941D01*
X53352850Y-68327941D01*
X53352850Y-68672059D01*
X53484539Y-68989983D01*
X53727867Y-69233311D01*
X54045791Y-69365000D01*
X54389909Y-69365000D01*
X54707833Y-69233311D01*
X54951161Y-68989983D01*
X54958925Y-68971239D01*
X54966689Y-68989983D01*
X55210017Y-69233311D01*
X55527941Y-69365000D01*
X55872059Y-69365000D01*
X56189983Y-69233311D01*
X56433311Y-68989983D01*
X56450000Y-68949692D01*
X56466689Y-68989983D01*
X56710017Y-69233311D01*
X57027941Y-69365000D01*
X57372059Y-69365000D01*
X57689983Y-69233311D01*
X57933311Y-68989983D01*
X57950000Y-68949692D01*
X57966689Y-68989983D01*
X58210017Y-69233311D01*
X58527941Y-69365000D01*
X58872059Y-69365000D01*
X59189983Y-69233311D01*
X59433311Y-68989983D01*
X59565000Y-68672059D01*
X59565000Y-68327941D01*
X59433311Y-68010017D01*
X59189983Y-67766689D01*
X58872059Y-67635000D01*
X58527941Y-67635000D01*
X58210017Y-67766689D01*
X57966689Y-68010017D01*
X57950000Y-68050308D01*
X57933311Y-68010017D01*
X57689983Y-67766689D01*
X57372059Y-67635000D01*
X57027941Y-67635000D01*
X56710017Y-67766689D01*
X56466689Y-68010017D01*
X56450000Y-68050308D01*
X56433311Y-68010017D01*
X56189983Y-67766689D01*
X55872059Y-67635000D01*
X55527941Y-67635000D01*
X55210017Y-67766689D01*
X54966689Y-68010017D01*
X54958925Y-68028761D01*
X54951161Y-68010017D01*
X54707833Y-67766689D01*
X54389909Y-67635000D01*
X54045791Y-67635000D01*
X53727867Y-67766689D01*
X53484539Y-68010017D01*
X53352850Y-68327941D01*
X52393863Y-68327941D01*
X52295311Y-68090017D01*
X52051983Y-67846689D01*
X51734059Y-67715000D01*
X51389941Y-67715000D01*
X51072017Y-67846689D01*
X50828689Y-68090017D01*
X50697000Y-68407941D01*
X37831235Y-68407941D01*
X37714983Y-68291689D01*
X37397059Y-68160000D01*
X37052941Y-68160000D01*
X36738528Y-68290234D01*
X36714983Y-68266689D01*
X36397059Y-68135000D01*
X36052941Y-68135000D01*
X35800000Y-68239772D01*
X35547059Y-68135000D01*
X35202941Y-68135000D01*
X34885017Y-68266689D01*
X34641689Y-68510017D01*
X34510000Y-68827941D01*
X32768592Y-68827941D01*
X32495929Y-68715000D01*
X32104071Y-68715000D01*
X31742042Y-68864958D01*
X31464958Y-69142042D01*
X31315000Y-69504071D01*
X26185000Y-69504071D01*
X26185000Y-67127941D01*
X47135000Y-67127941D01*
X47135000Y-67472059D01*
X47266689Y-67789983D01*
X47510017Y-68033311D01*
X47827941Y-68165000D01*
X48172059Y-68165000D01*
X48489983Y-68033311D01*
X48733311Y-67789983D01*
X48865000Y-67472059D01*
X48865000Y-67127941D01*
X48733311Y-66810017D01*
X48489983Y-66566689D01*
X48172059Y-66435000D01*
X47827941Y-66435000D01*
X47510017Y-66566689D01*
X47266689Y-66810017D01*
X47135000Y-67127941D01*
X26185000Y-67127941D01*
X26185000Y-64851941D01*
X34695000Y-64851941D01*
X34695000Y-65196059D01*
X34826689Y-65513983D01*
X35070017Y-65757311D01*
X35387941Y-65889000D01*
X35711000Y-65889000D01*
X35711000Y-65958059D01*
X35842689Y-66275983D01*
X36086017Y-66519311D01*
X36403941Y-66651000D01*
X36748059Y-66651000D01*
X37065983Y-66519311D01*
X37309311Y-66275983D01*
X37441000Y-65958059D01*
X37441000Y-65613941D01*
X37309311Y-65296017D01*
X37065983Y-65052689D01*
X36748059Y-64921000D01*
X36425000Y-64921000D01*
X36425000Y-64851941D01*
X36293311Y-64534017D01*
X36049983Y-64290689D01*
X35732059Y-64159000D01*
X35387941Y-64159000D01*
X35070017Y-64290689D01*
X34826689Y-64534017D01*
X34695000Y-64851941D01*
X26185000Y-64851941D01*
X26185000Y-60707941D01*
X28215000Y-60707941D01*
X28215000Y-61052059D01*
X28346689Y-61369983D01*
X28590017Y-61613311D01*
X28907941Y-61745000D01*
X29252059Y-61745000D01*
X29569983Y-61613311D01*
X29813311Y-61369983D01*
X29945000Y-61052059D01*
X29945000Y-60707941D01*
X29813311Y-60390017D01*
X29569983Y-60146689D01*
X29252059Y-60015000D01*
X28907941Y-60015000D01*
X28590017Y-60146689D01*
X28346689Y-60390017D01*
X28215000Y-60707941D01*
X26185000Y-60707941D01*
X26185000Y-58818037D01*
X28594904Y-58818037D01*
X28594904Y-59162155D01*
X28726593Y-59480079D01*
X28969921Y-59723407D01*
X29287845Y-59855096D01*
X29631963Y-59855096D01*
X29949887Y-59723407D01*
X30193215Y-59480079D01*
X30324904Y-59162155D01*
X30324904Y-58818037D01*
X30193215Y-58500113D01*
X29949887Y-58256785D01*
X29631963Y-58125096D01*
X29287845Y-58125096D01*
X28969921Y-58256785D01*
X28726593Y-58500113D01*
X28594904Y-58818037D01*
X26185000Y-58818037D01*
X26185000Y-50881941D01*
X27329000Y-50881941D01*
X27329000Y-51226059D01*
X27460689Y-51543983D01*
X27704017Y-51787311D01*
X28021941Y-51919000D01*
X28366059Y-51919000D01*
X28450391Y-51884068D01*
X28506689Y-52019983D01*
X28750017Y-52263311D01*
X29067941Y-52395000D01*
X29412059Y-52395000D01*
X29729983Y-52263311D01*
X29973311Y-52019983D01*
X30105000Y-51702059D01*
X30105000Y-51357941D01*
X29973311Y-51040017D01*
X29729983Y-50796689D01*
X29412059Y-50665000D01*
X29067941Y-50665000D01*
X28983609Y-50699932D01*
X28927311Y-50564017D01*
X28683983Y-50320689D01*
X28366059Y-50189000D01*
X28021941Y-50189000D01*
X27704017Y-50320689D01*
X27460689Y-50564017D01*
X27329000Y-50881941D01*
X26185000Y-50881941D01*
X26185000Y-44490000D01*
X26885908Y-44490000D01*
X27001161Y-45069418D01*
X27329375Y-45560625D01*
X27627761Y-45760000D01*
X27329375Y-45959375D01*
X27001161Y-46450582D01*
X26885908Y-47030000D01*
X27001161Y-47609418D01*
X27329375Y-48100625D01*
X27820582Y-48428839D01*
X28253744Y-48515000D01*
X28546256Y-48515000D01*
X28979418Y-48428839D01*
X29470625Y-48100625D01*
X29798839Y-47609418D01*
X29914092Y-47030000D01*
X29798839Y-46450582D01*
X29470625Y-45959375D01*
X29172239Y-45760000D01*
X29470625Y-45560625D01*
X29798839Y-45069418D01*
X29914092Y-44490000D01*
X29798839Y-43910582D01*
X29470625Y-43419375D01*
X29452381Y-43407184D01*
X29497765Y-43398157D01*
X29707809Y-43257809D01*
X29848157Y-43047765D01*
X29897440Y-42800000D01*
X29897440Y-41100000D01*
X29848157Y-40852235D01*
X29707809Y-40642191D01*
X29497765Y-40501843D01*
X29250000Y-40452560D01*
X27550000Y-40452560D01*
X27302235Y-40501843D01*
X27092191Y-40642191D01*
X26951843Y-40852235D01*
X26902560Y-41100000D01*
X26902560Y-42800000D01*
X26951843Y-43047765D01*
X27092191Y-43257809D01*
X27302235Y-43398157D01*
X27347619Y-43407184D01*
X27329375Y-43419375D01*
X27001161Y-43910582D01*
X26885908Y-44490000D01*
X26185000Y-44490000D01*
X26185000Y-39959941D01*
X39267000Y-39959941D01*
X39267000Y-40304059D01*
X39398689Y-40621983D01*
X39642017Y-40865311D01*
X39959941Y-40997000D01*
X40304059Y-40997000D01*
X40621983Y-40865311D01*
X40791000Y-40696294D01*
X40791000Y-40812059D01*
X40922689Y-41129983D01*
X41166017Y-41373311D01*
X41483941Y-41505000D01*
X41828059Y-41505000D01*
X42145983Y-41373311D01*
X42389311Y-41129983D01*
X42521000Y-40812059D01*
X42521000Y-40467941D01*
X42389311Y-40150017D01*
X42145983Y-39906689D01*
X41828059Y-39775000D01*
X41483941Y-39775000D01*
X41166017Y-39906689D01*
X40997000Y-40075706D01*
X40997000Y-39959941D01*
X40865311Y-39642017D01*
X40621983Y-39398689D01*
X40304059Y-39267000D01*
X39959941Y-39267000D01*
X39642017Y-39398689D01*
X39398689Y-39642017D01*
X39267000Y-39959941D01*
X26185000Y-39959941D01*
X26185000Y-38034698D01*
X26226610Y-37625050D01*
X27615000Y-37625050D01*
X27615000Y-38374950D01*
X27901974Y-39067767D01*
X28432233Y-39598026D01*
X29125050Y-39885000D01*
X29874950Y-39885000D01*
X30567767Y-39598026D01*
X31098026Y-39067767D01*
X31385000Y-38374950D01*
X31385000Y-37625050D01*
X31244458Y-37285750D01*
X35395000Y-37285750D01*
X35395000Y-37976309D01*
X35491673Y-38209698D01*
X35670301Y-38388327D01*
X35903690Y-38485000D01*
X36594250Y-38485000D01*
X36753000Y-38326250D01*
X36753000Y-37127000D01*
X35553750Y-37127000D01*
X35395000Y-37285750D01*
X31244458Y-37285750D01*
X31098026Y-36932233D01*
X30567767Y-36401974D01*
X29874950Y-36115000D01*
X29125050Y-36115000D01*
X28432233Y-36401974D01*
X27901974Y-36932233D01*
X27615000Y-37625050D01*
X26226610Y-37625050D01*
X26256160Y-37334139D01*
X26456307Y-36695470D01*
X26780784Y-36110098D01*
X26854843Y-36023691D01*
X35395000Y-36023691D01*
X35395000Y-36714250D01*
X35553750Y-36873000D01*
X36753000Y-36873000D01*
X36753000Y-35673750D01*
X36594250Y-35515000D01*
X35903690Y-35515000D01*
X35670301Y-35611673D01*
X35491673Y-35790302D01*
X35395000Y-36023691D01*
X26854843Y-36023691D01*
X27216343Y-35601922D01*
X27745183Y-35191711D01*
X28345712Y-34896214D01*
X29001567Y-34725377D01*
X29526313Y-34685000D01*
X51306425Y-34685000D01*
X51306164Y-34685052D01*
X51306164Y-34685052D01*
G37*
X51306164Y-34685052D02*
X50963808Y-34913807D01*
X50735053Y-35256163D01*
X50675000Y-35558065D01*
X50675000Y-36361934D01*
X50735052Y-36663836D01*
X50963807Y-37006193D01*
X51306163Y-37234948D01*
X51710000Y-37315276D01*
X52113836Y-37234948D01*
X52456193Y-37006193D01*
X52684948Y-36663837D01*
X52745000Y-36361935D01*
X52745000Y-35558066D01*
X52684948Y-35256164D01*
X52456193Y-34913807D01*
X52113837Y-34685052D01*
X52113576Y-34685000D01*
X60286425Y-34685000D01*
X60286164Y-34685052D01*
X59943808Y-34913807D01*
X59715053Y-35256163D01*
X59655000Y-35558065D01*
X59655000Y-36361934D01*
X59715052Y-36663836D01*
X59943807Y-37006193D01*
X60286163Y-37234948D01*
X60690000Y-37315276D01*
X61093836Y-37234948D01*
X61436193Y-37006193D01*
X61502801Y-36906507D01*
X61541935Y-41641759D01*
X61365000Y-41600763D01*
X61365000Y-41508066D01*
X61304948Y-41206164D01*
X61076193Y-40863807D01*
X60733837Y-40635052D01*
X60330000Y-40554724D01*
X60004551Y-40619460D01*
X59915311Y-40404017D01*
X59671983Y-40160689D01*
X59354059Y-40029000D01*
X59009941Y-40029000D01*
X58692017Y-40160689D01*
X58448689Y-40404017D01*
X58348991Y-40644709D01*
X58156993Y-40452711D01*
X57839069Y-40321022D01*
X57494951Y-40321022D01*
X57445899Y-40341340D01*
X57447275Y-40201019D01*
X57558311Y-40089983D01*
X57690000Y-39772059D01*
X57690000Y-39427941D01*
X57558311Y-39110017D01*
X57458945Y-39010651D01*
X57459969Y-38906225D01*
X57412325Y-38658600D01*
X57275238Y-38452216D01*
X57069606Y-38314003D01*
X56826735Y-38265002D01*
X47856400Y-38240493D01*
X48110625Y-38070625D01*
X48438839Y-37579418D01*
X48554092Y-37000000D01*
X48438839Y-36420582D01*
X48110625Y-35929375D01*
X47619418Y-35601161D01*
X47186256Y-35515000D01*
X46893744Y-35515000D01*
X46460582Y-35601161D01*
X45969375Y-35929375D01*
X45770000Y-36227761D01*
X45570625Y-35929375D01*
X45079418Y-35601161D01*
X44646256Y-35515000D01*
X44353744Y-35515000D01*
X43920582Y-35601161D01*
X43429375Y-35929375D01*
X43230000Y-36227761D01*
X43030625Y-35929375D01*
X42539418Y-35601161D01*
X42106256Y-35515000D01*
X41813744Y-35515000D01*
X41380582Y-35601161D01*
X40889375Y-35929375D01*
X40690000Y-36227761D01*
X40490625Y-35929375D01*
X39999418Y-35601161D01*
X39566256Y-35515000D01*
X39273744Y-35515000D01*
X38840582Y-35601161D01*
X38349375Y-35929375D01*
X38334904Y-35951033D01*
X38268327Y-35790302D01*
X38089699Y-35611673D01*
X37856310Y-35515000D01*
X37165750Y-35515000D01*
X37007000Y-35673750D01*
X37007000Y-36873000D01*
X37027000Y-36873000D01*
X37027000Y-37127000D01*
X37007000Y-37127000D01*
X37007000Y-38326250D01*
X37165750Y-38485000D01*
X37856310Y-38485000D01*
X38089699Y-38388327D01*
X38268327Y-38209698D01*
X38334904Y-38048967D01*
X38349375Y-38070625D01*
X38840582Y-38398839D01*
X39273744Y-38485000D01*
X39566256Y-38485000D01*
X39999418Y-38398839D01*
X40490625Y-38070625D01*
X40690000Y-37772239D01*
X40889375Y-38070625D01*
X41380582Y-38398839D01*
X41813744Y-38485000D01*
X42106256Y-38485000D01*
X42539418Y-38398839D01*
X43030625Y-38070625D01*
X43230000Y-37772239D01*
X43429375Y-38070625D01*
X43920582Y-38398839D01*
X44302012Y-38474710D01*
X44266689Y-38510033D01*
X44135000Y-38827957D01*
X44135000Y-39172075D01*
X44266689Y-39489999D01*
X44510017Y-39733327D01*
X44827941Y-39865016D01*
X45172059Y-39865016D01*
X45489983Y-39733327D01*
X45733311Y-39489999D01*
X45865000Y-39172075D01*
X45865000Y-38827957D01*
X45733311Y-38510033D01*
X45489983Y-38266705D01*
X45358611Y-38212289D01*
X45570625Y-38070625D01*
X45770000Y-37772239D01*
X45969375Y-38070625D01*
X46460582Y-38398839D01*
X46893744Y-38485000D01*
X47184528Y-38485000D01*
X47081788Y-38648450D01*
X47040247Y-38892708D01*
X47145182Y-42654223D01*
X47071766Y-42640008D01*
X32346766Y-42715008D01*
X32106996Y-42763336D01*
X31900987Y-42900987D01*
X31763336Y-43106996D01*
X31715000Y-43350000D01*
X31715000Y-54721706D01*
X31629983Y-54636689D01*
X31312059Y-54505000D01*
X30967941Y-54505000D01*
X30650017Y-54636689D01*
X30406689Y-54880017D01*
X30275000Y-55197941D01*
X30275000Y-55542059D01*
X30406689Y-55859983D01*
X30650017Y-56103311D01*
X30967941Y-56235000D01*
X31312059Y-56235000D01*
X31629983Y-56103311D01*
X31715000Y-56018294D01*
X31715000Y-62925000D01*
X31758227Y-63155281D01*
X31891398Y-63364214D01*
X32094387Y-63506280D01*
X32336291Y-63559852D01*
X37304917Y-63667148D01*
X37235000Y-63835941D01*
X37235000Y-64180059D01*
X37366689Y-64497983D01*
X37610017Y-64741311D01*
X37927941Y-64873000D01*
X38272059Y-64873000D01*
X38589983Y-64741311D01*
X38833311Y-64497983D01*
X38965000Y-64180059D01*
X38965000Y-63835941D01*
X38909435Y-63701797D01*
X42151005Y-63771798D01*
X42252941Y-63814021D01*
X42597059Y-63814021D01*
X42671841Y-63783045D01*
X44878010Y-63830686D01*
X44666689Y-64042007D01*
X44535000Y-64359931D01*
X44535000Y-64704049D01*
X44666689Y-65021973D01*
X44910017Y-65265301D01*
X45227941Y-65396990D01*
X45572059Y-65396990D01*
X45889983Y-65265301D01*
X46133311Y-65021973D01*
X46265000Y-64704049D01*
X46265000Y-64359931D01*
X46133311Y-64042007D01*
X45945032Y-63853728D01*
X47386291Y-63884852D01*
X47652516Y-63832633D01*
X47856258Y-63691649D01*
X47990539Y-63483428D01*
X48027948Y-63277941D01*
X50610000Y-63277941D01*
X50610000Y-63622059D01*
X50741689Y-63939983D01*
X50985017Y-64183311D01*
X51302941Y-64315000D01*
X51647059Y-64315000D01*
X51964983Y-64183311D01*
X52208311Y-63939983D01*
X52227145Y-63894515D01*
X52266689Y-63989983D01*
X52510017Y-64233311D01*
X52827941Y-64365000D01*
X53172059Y-64365000D01*
X53222899Y-64343941D01*
X56285000Y-64343941D01*
X56285000Y-64688059D01*
X56416689Y-65005983D01*
X56660017Y-65249311D01*
X56977941Y-65381000D01*
X57322059Y-65381000D01*
X57639983Y-65249311D01*
X57883311Y-65005983D01*
X58015000Y-64688059D01*
X58015000Y-64343941D01*
X57883311Y-64026017D01*
X57639983Y-63782689D01*
X57322059Y-63651000D01*
X56977941Y-63651000D01*
X56660017Y-63782689D01*
X56416689Y-64026017D01*
X56285000Y-64343941D01*
X53222899Y-64343941D01*
X53489983Y-64233311D01*
X53733311Y-63989983D01*
X53865000Y-63672059D01*
X53865000Y-63327941D01*
X53733311Y-63010017D01*
X53489983Y-62766689D01*
X53172059Y-62635000D01*
X52827941Y-62635000D01*
X52510017Y-62766689D01*
X52266689Y-63010017D01*
X52247855Y-63055485D01*
X52208311Y-62960017D01*
X51964983Y-62716689D01*
X51647059Y-62585000D01*
X51302941Y-62585000D01*
X50985017Y-62716689D01*
X50741689Y-62960017D01*
X50610000Y-63277941D01*
X48027948Y-63277941D01*
X48034916Y-63239670D01*
X47994050Y-60727941D01*
X54835000Y-60727941D01*
X54835000Y-61072059D01*
X54966689Y-61389983D01*
X55210017Y-61633311D01*
X55527941Y-61765000D01*
X55872059Y-61765000D01*
X56189983Y-61633311D01*
X56433311Y-61389983D01*
X56565000Y-61072059D01*
X56565000Y-60727941D01*
X56433311Y-60410017D01*
X56189983Y-60166689D01*
X55872059Y-60035000D01*
X55527941Y-60035000D01*
X55210017Y-60166689D01*
X54966689Y-60410017D01*
X54835000Y-60727941D01*
X47994050Y-60727941D01*
X47943690Y-57632806D01*
X48028311Y-57548185D01*
X48160000Y-57230261D01*
X48160000Y-56886143D01*
X48028311Y-56568219D01*
X47924683Y-56464591D01*
X47917317Y-56011850D01*
X58646899Y-56011850D01*
X58646899Y-56355968D01*
X58778588Y-56673892D01*
X59021916Y-56917220D01*
X59339840Y-57048909D01*
X59683958Y-57048909D01*
X60001882Y-56917220D01*
X60245210Y-56673892D01*
X60376899Y-56355968D01*
X60376899Y-56011850D01*
X60245210Y-55693926D01*
X60001882Y-55450598D01*
X59683958Y-55318909D01*
X59339840Y-55318909D01*
X59021916Y-55450598D01*
X58778588Y-55693926D01*
X58646899Y-56011850D01*
X47917317Y-56011850D01*
X47881947Y-53837941D01*
X52295000Y-53837941D01*
X52295000Y-54182059D01*
X52426689Y-54499983D01*
X52670017Y-54743311D01*
X52987941Y-54875000D01*
X53332059Y-54875000D01*
X53649983Y-54743311D01*
X53893311Y-54499983D01*
X54025000Y-54182059D01*
X54025000Y-53837941D01*
X54012574Y-53807941D01*
X55945000Y-53807941D01*
X55945000Y-54152059D01*
X56076689Y-54469983D01*
X56320017Y-54713311D01*
X56637941Y-54845000D01*
X56982059Y-54845000D01*
X57299983Y-54713311D01*
X57543311Y-54469983D01*
X57675000Y-54152059D01*
X57675000Y-53807941D01*
X57543311Y-53490017D01*
X57299983Y-53246689D01*
X56982059Y-53115000D01*
X56637941Y-53115000D01*
X56320017Y-53246689D01*
X56076689Y-53490017D01*
X55945000Y-53807941D01*
X54012574Y-53807941D01*
X53893311Y-53520017D01*
X53649983Y-53276689D01*
X53332059Y-53145000D01*
X52987941Y-53145000D01*
X52670017Y-53276689D01*
X52426689Y-53520017D01*
X52295000Y-53837941D01*
X47881947Y-53837941D01*
X47837851Y-51127747D01*
X48000000Y-51160000D01*
X50100000Y-51160000D01*
X50344624Y-51110990D01*
X50550251Y-50972771D01*
X50687333Y-50766382D01*
X50705816Y-50672103D01*
X50928478Y-50894765D01*
X51246402Y-51026454D01*
X51263221Y-51026454D01*
X51135031Y-51335931D01*
X51135031Y-51680049D01*
X51266720Y-51997973D01*
X51510048Y-52241301D01*
X51827972Y-52372990D01*
X52172090Y-52372990D01*
X52490014Y-52241301D01*
X52733342Y-51997973D01*
X52865031Y-51680049D01*
X52865031Y-51335931D01*
X52733342Y-51018007D01*
X52490014Y-50774679D01*
X52172090Y-50642990D01*
X52155271Y-50642990D01*
X52283461Y-50333513D01*
X52283461Y-49989395D01*
X52151772Y-49671471D01*
X51908444Y-49428143D01*
X51888667Y-49419951D01*
X55635000Y-49419951D01*
X55635000Y-49764069D01*
X55766689Y-50081993D01*
X56010017Y-50325321D01*
X56327941Y-50457010D01*
X56672059Y-50457010D01*
X56989983Y-50325321D01*
X57233311Y-50081993D01*
X57365000Y-49764069D01*
X57365000Y-49588294D01*
X57510017Y-49733311D01*
X57533619Y-49743087D01*
X57388056Y-49888650D01*
X57256367Y-50206574D01*
X57256367Y-50550692D01*
X57388056Y-50868616D01*
X57631384Y-51111944D01*
X57757493Y-51164180D01*
X57510017Y-51266689D01*
X57266689Y-51510017D01*
X57135000Y-51827941D01*
X57135000Y-52172059D01*
X57266689Y-52489983D01*
X57510017Y-52733311D01*
X57827941Y-52865000D01*
X58172059Y-52865000D01*
X58489983Y-52733311D01*
X58733311Y-52489983D01*
X58865000Y-52172059D01*
X58865000Y-51865000D01*
X59172059Y-51865000D01*
X59489983Y-51733311D01*
X59733311Y-51489983D01*
X59865000Y-51172059D01*
X59865000Y-50827941D01*
X59733311Y-50510017D01*
X59489983Y-50266689D01*
X59172059Y-50135000D01*
X58956720Y-50135000D01*
X58854678Y-49888650D01*
X58611350Y-49645322D01*
X58587748Y-49635546D01*
X58733311Y-49489983D01*
X58865000Y-49172059D01*
X58865000Y-48827941D01*
X58733311Y-48510017D01*
X58489983Y-48266689D01*
X58172059Y-48135000D01*
X57827941Y-48135000D01*
X57510017Y-48266689D01*
X57266689Y-48510017D01*
X57135000Y-48827941D01*
X57135000Y-49003716D01*
X56989983Y-48858699D01*
X56672059Y-48727010D01*
X56327941Y-48727010D01*
X56010017Y-48858699D01*
X55766689Y-49102027D01*
X55635000Y-49419951D01*
X51888667Y-49419951D01*
X51590520Y-49296454D01*
X51246402Y-49296454D01*
X50928478Y-49428143D01*
X50732514Y-49624107D01*
X50711750Y-42107638D01*
X51035000Y-42106436D01*
X51035000Y-42311934D01*
X51095052Y-42613836D01*
X51323807Y-42956193D01*
X51489686Y-43067030D01*
X51471193Y-43160000D01*
X51545700Y-43534573D01*
X51757879Y-43852121D01*
X52075427Y-44064300D01*
X52355451Y-44120000D01*
X52690000Y-44120000D01*
X52690000Y-44200000D01*
X52738336Y-44443004D01*
X52875987Y-44649013D01*
X54450987Y-46224013D01*
X54656996Y-46361664D01*
X54900000Y-46410000D01*
X57536974Y-46410000D01*
X58325987Y-47199013D01*
X58531996Y-47336664D01*
X58775000Y-47385000D01*
X61300000Y-47385000D01*
X61543004Y-47336664D01*
X61588748Y-47306099D01*
X61596391Y-48230912D01*
X61510017Y-48266689D01*
X61266689Y-48510017D01*
X61135000Y-48827941D01*
X61135000Y-49172059D01*
X61266689Y-49489983D01*
X61510017Y-49733311D01*
X61609147Y-49774372D01*
X61678947Y-58220192D01*
X61633311Y-58110017D01*
X61389983Y-57866689D01*
X61072059Y-57735000D01*
X60727941Y-57735000D01*
X60410017Y-57866689D01*
X60166689Y-58110017D01*
X60035000Y-58427941D01*
X60035000Y-58772059D01*
X60166689Y-59089983D01*
X60410017Y-59333311D01*
X60727941Y-59465000D01*
X61072059Y-59465000D01*
X61389983Y-59333311D01*
X61633311Y-59089983D01*
X61685102Y-58964949D01*
X61772543Y-69545297D01*
X57250053Y-73772843D01*
X46685714Y-73739622D01*
X46724160Y-73546338D01*
X46724160Y-72293222D01*
X46649603Y-71918398D01*
X46365593Y-71493347D01*
X45940541Y-71209337D01*
X45439160Y-71109606D01*
X44937778Y-71209337D01*
X44512727Y-71493347D01*
X44228717Y-71918399D01*
X44154160Y-72293223D01*
X44154160Y-73546338D01*
X44191046Y-73731777D01*
X33271644Y-73697439D01*
X33365000Y-73472059D01*
X33365000Y-73127941D01*
X33233311Y-72810017D01*
X32989983Y-72566689D01*
X32672059Y-72435000D01*
X32327941Y-72435000D01*
X32010017Y-72566689D01*
X31766689Y-72810017D01*
X31635000Y-73127941D01*
X31635000Y-73472059D01*
X31726343Y-73692579D01*
X26185000Y-73675154D01*
X26185000Y-69504071D01*
X31315000Y-69504071D01*
X31315000Y-69895929D01*
X31464958Y-70257958D01*
X31742042Y-70535042D01*
X32104071Y-70685000D01*
X32495929Y-70685000D01*
X32857958Y-70535042D01*
X33135042Y-70257958D01*
X33285000Y-69895929D01*
X33285000Y-69504071D01*
X33135042Y-69142042D01*
X32857958Y-68864958D01*
X32768592Y-68827941D01*
X34510000Y-68827941D01*
X34510000Y-69172059D01*
X34641689Y-69489983D01*
X34885017Y-69733311D01*
X35202941Y-69865000D01*
X35547059Y-69865000D01*
X35800000Y-69760228D01*
X36052941Y-69865000D01*
X36397059Y-69865000D01*
X36711472Y-69734766D01*
X36735017Y-69758311D01*
X37052941Y-69890000D01*
X37397059Y-69890000D01*
X37714983Y-69758311D01*
X37958311Y-69514983D01*
X38090000Y-69197059D01*
X38090000Y-68852941D01*
X37958311Y-68535017D01*
X37831235Y-68407941D01*
X50697000Y-68407941D01*
X50697000Y-68752059D01*
X50828689Y-69069983D01*
X51072017Y-69313311D01*
X51389941Y-69445000D01*
X51734059Y-69445000D01*
X52051983Y-69313311D01*
X52295311Y-69069983D01*
X52427000Y-68752059D01*
X52427000Y-68407941D01*
X52393863Y-68327941D01*
X53352850Y-68327941D01*
X53352850Y-68672059D01*
X53484539Y-68989983D01*
X53727867Y-69233311D01*
X54045791Y-69365000D01*
X54389909Y-69365000D01*
X54707833Y-69233311D01*
X54951161Y-68989983D01*
X54958925Y-68971239D01*
X54966689Y-68989983D01*
X55210017Y-69233311D01*
X55527941Y-69365000D01*
X55872059Y-69365000D01*
X56189983Y-69233311D01*
X56433311Y-68989983D01*
X56450000Y-68949692D01*
X56466689Y-68989983D01*
X56710017Y-69233311D01*
X57027941Y-69365000D01*
X57372059Y-69365000D01*
X57689983Y-69233311D01*
X57933311Y-68989983D01*
X57950000Y-68949692D01*
X57966689Y-68989983D01*
X58210017Y-69233311D01*
X58527941Y-69365000D01*
X58872059Y-69365000D01*
X59189983Y-69233311D01*
X59433311Y-68989983D01*
X59565000Y-68672059D01*
X59565000Y-68327941D01*
X59433311Y-68010017D01*
X59189983Y-67766689D01*
X58872059Y-67635000D01*
X58527941Y-67635000D01*
X58210017Y-67766689D01*
X57966689Y-68010017D01*
X57950000Y-68050308D01*
X57933311Y-68010017D01*
X57689983Y-67766689D01*
X57372059Y-67635000D01*
X57027941Y-67635000D01*
X56710017Y-67766689D01*
X56466689Y-68010017D01*
X56450000Y-68050308D01*
X56433311Y-68010017D01*
X56189983Y-67766689D01*
X55872059Y-67635000D01*
X55527941Y-67635000D01*
X55210017Y-67766689D01*
X54966689Y-68010017D01*
X54958925Y-68028761D01*
X54951161Y-68010017D01*
X54707833Y-67766689D01*
X54389909Y-67635000D01*
X54045791Y-67635000D01*
X53727867Y-67766689D01*
X53484539Y-68010017D01*
X53352850Y-68327941D01*
X52393863Y-68327941D01*
X52295311Y-68090017D01*
X52051983Y-67846689D01*
X51734059Y-67715000D01*
X51389941Y-67715000D01*
X51072017Y-67846689D01*
X50828689Y-68090017D01*
X50697000Y-68407941D01*
X37831235Y-68407941D01*
X37714983Y-68291689D01*
X37397059Y-68160000D01*
X37052941Y-68160000D01*
X36738528Y-68290234D01*
X36714983Y-68266689D01*
X36397059Y-68135000D01*
X36052941Y-68135000D01*
X35800000Y-68239772D01*
X35547059Y-68135000D01*
X35202941Y-68135000D01*
X34885017Y-68266689D01*
X34641689Y-68510017D01*
X34510000Y-68827941D01*
X32768592Y-68827941D01*
X32495929Y-68715000D01*
X32104071Y-68715000D01*
X31742042Y-68864958D01*
X31464958Y-69142042D01*
X31315000Y-69504071D01*
X26185000Y-69504071D01*
X26185000Y-67127941D01*
X47135000Y-67127941D01*
X47135000Y-67472059D01*
X47266689Y-67789983D01*
X47510017Y-68033311D01*
X47827941Y-68165000D01*
X48172059Y-68165000D01*
X48489983Y-68033311D01*
X48733311Y-67789983D01*
X48865000Y-67472059D01*
X48865000Y-67127941D01*
X48733311Y-66810017D01*
X48489983Y-66566689D01*
X48172059Y-66435000D01*
X47827941Y-66435000D01*
X47510017Y-66566689D01*
X47266689Y-66810017D01*
X47135000Y-67127941D01*
X26185000Y-67127941D01*
X26185000Y-64851941D01*
X34695000Y-64851941D01*
X34695000Y-65196059D01*
X34826689Y-65513983D01*
X35070017Y-65757311D01*
X35387941Y-65889000D01*
X35711000Y-65889000D01*
X35711000Y-65958059D01*
X35842689Y-66275983D01*
X36086017Y-66519311D01*
X36403941Y-66651000D01*
X36748059Y-66651000D01*
X37065983Y-66519311D01*
X37309311Y-66275983D01*
X37441000Y-65958059D01*
X37441000Y-65613941D01*
X37309311Y-65296017D01*
X37065983Y-65052689D01*
X36748059Y-64921000D01*
X36425000Y-64921000D01*
X36425000Y-64851941D01*
X36293311Y-64534017D01*
X36049983Y-64290689D01*
X35732059Y-64159000D01*
X35387941Y-64159000D01*
X35070017Y-64290689D01*
X34826689Y-64534017D01*
X34695000Y-64851941D01*
X26185000Y-64851941D01*
X26185000Y-60707941D01*
X28215000Y-60707941D01*
X28215000Y-61052059D01*
X28346689Y-61369983D01*
X28590017Y-61613311D01*
X28907941Y-61745000D01*
X29252059Y-61745000D01*
X29569983Y-61613311D01*
X29813311Y-61369983D01*
X29945000Y-61052059D01*
X29945000Y-60707941D01*
X29813311Y-60390017D01*
X29569983Y-60146689D01*
X29252059Y-60015000D01*
X28907941Y-60015000D01*
X28590017Y-60146689D01*
X28346689Y-60390017D01*
X28215000Y-60707941D01*
X26185000Y-60707941D01*
X26185000Y-58818037D01*
X28594904Y-58818037D01*
X28594904Y-59162155D01*
X28726593Y-59480079D01*
X28969921Y-59723407D01*
X29287845Y-59855096D01*
X29631963Y-59855096D01*
X29949887Y-59723407D01*
X30193215Y-59480079D01*
X30324904Y-59162155D01*
X30324904Y-58818037D01*
X30193215Y-58500113D01*
X29949887Y-58256785D01*
X29631963Y-58125096D01*
X29287845Y-58125096D01*
X28969921Y-58256785D01*
X28726593Y-58500113D01*
X28594904Y-58818037D01*
X26185000Y-58818037D01*
X26185000Y-50881941D01*
X27329000Y-50881941D01*
X27329000Y-51226059D01*
X27460689Y-51543983D01*
X27704017Y-51787311D01*
X28021941Y-51919000D01*
X28366059Y-51919000D01*
X28450391Y-51884068D01*
X28506689Y-52019983D01*
X28750017Y-52263311D01*
X29067941Y-52395000D01*
X29412059Y-52395000D01*
X29729983Y-52263311D01*
X29973311Y-52019983D01*
X30105000Y-51702059D01*
X30105000Y-51357941D01*
X29973311Y-51040017D01*
X29729983Y-50796689D01*
X29412059Y-50665000D01*
X29067941Y-50665000D01*
X28983609Y-50699932D01*
X28927311Y-50564017D01*
X28683983Y-50320689D01*
X28366059Y-50189000D01*
X28021941Y-50189000D01*
X27704017Y-50320689D01*
X27460689Y-50564017D01*
X27329000Y-50881941D01*
X26185000Y-50881941D01*
X26185000Y-44490000D01*
X26885908Y-44490000D01*
X27001161Y-45069418D01*
X27329375Y-45560625D01*
X27627761Y-45760000D01*
X27329375Y-45959375D01*
X27001161Y-46450582D01*
X26885908Y-47030000D01*
X27001161Y-47609418D01*
X27329375Y-48100625D01*
X27820582Y-48428839D01*
X28253744Y-48515000D01*
X28546256Y-48515000D01*
X28979418Y-48428839D01*
X29470625Y-48100625D01*
X29798839Y-47609418D01*
X29914092Y-47030000D01*
X29798839Y-46450582D01*
X29470625Y-45959375D01*
X29172239Y-45760000D01*
X29470625Y-45560625D01*
X29798839Y-45069418D01*
X29914092Y-44490000D01*
X29798839Y-43910582D01*
X29470625Y-43419375D01*
X29452381Y-43407184D01*
X29497765Y-43398157D01*
X29707809Y-43257809D01*
X29848157Y-43047765D01*
X29897440Y-42800000D01*
X29897440Y-41100000D01*
X29848157Y-40852235D01*
X29707809Y-40642191D01*
X29497765Y-40501843D01*
X29250000Y-40452560D01*
X27550000Y-40452560D01*
X27302235Y-40501843D01*
X27092191Y-40642191D01*
X26951843Y-40852235D01*
X26902560Y-41100000D01*
X26902560Y-42800000D01*
X26951843Y-43047765D01*
X27092191Y-43257809D01*
X27302235Y-43398157D01*
X27347619Y-43407184D01*
X27329375Y-43419375D01*
X27001161Y-43910582D01*
X26885908Y-44490000D01*
X26185000Y-44490000D01*
X26185000Y-39959941D01*
X39267000Y-39959941D01*
X39267000Y-40304059D01*
X39398689Y-40621983D01*
X39642017Y-40865311D01*
X39959941Y-40997000D01*
X40304059Y-40997000D01*
X40621983Y-40865311D01*
X40791000Y-40696294D01*
X40791000Y-40812059D01*
X40922689Y-41129983D01*
X41166017Y-41373311D01*
X41483941Y-41505000D01*
X41828059Y-41505000D01*
X42145983Y-41373311D01*
X42389311Y-41129983D01*
X42521000Y-40812059D01*
X42521000Y-40467941D01*
X42389311Y-40150017D01*
X42145983Y-39906689D01*
X41828059Y-39775000D01*
X41483941Y-39775000D01*
X41166017Y-39906689D01*
X40997000Y-40075706D01*
X40997000Y-39959941D01*
X40865311Y-39642017D01*
X40621983Y-39398689D01*
X40304059Y-39267000D01*
X39959941Y-39267000D01*
X39642017Y-39398689D01*
X39398689Y-39642017D01*
X39267000Y-39959941D01*
X26185000Y-39959941D01*
X26185000Y-38034698D01*
X26226610Y-37625050D01*
X27615000Y-37625050D01*
X27615000Y-38374950D01*
X27901974Y-39067767D01*
X28432233Y-39598026D01*
X29125050Y-39885000D01*
X29874950Y-39885000D01*
X30567767Y-39598026D01*
X31098026Y-39067767D01*
X31385000Y-38374950D01*
X31385000Y-37625050D01*
X31244458Y-37285750D01*
X35395000Y-37285750D01*
X35395000Y-37976309D01*
X35491673Y-38209698D01*
X35670301Y-38388327D01*
X35903690Y-38485000D01*
X36594250Y-38485000D01*
X36753000Y-38326250D01*
X36753000Y-37127000D01*
X35553750Y-37127000D01*
X35395000Y-37285750D01*
X31244458Y-37285750D01*
X31098026Y-36932233D01*
X30567767Y-36401974D01*
X29874950Y-36115000D01*
X29125050Y-36115000D01*
X28432233Y-36401974D01*
X27901974Y-36932233D01*
X27615000Y-37625050D01*
X26226610Y-37625050D01*
X26256160Y-37334139D01*
X26456307Y-36695470D01*
X26780784Y-36110098D01*
X26854843Y-36023691D01*
X35395000Y-36023691D01*
X35395000Y-36714250D01*
X35553750Y-36873000D01*
X36753000Y-36873000D01*
X36753000Y-35673750D01*
X36594250Y-35515000D01*
X35903690Y-35515000D01*
X35670301Y-35611673D01*
X35491673Y-35790302D01*
X35395000Y-36023691D01*
X26854843Y-36023691D01*
X27216343Y-35601922D01*
X27745183Y-35191711D01*
X28345712Y-34896214D01*
X29001567Y-34725377D01*
X29526313Y-34685000D01*
X51306425Y-34685000D01*
X51306164Y-34685052D01*
G04 #@! TO.N,Net-(J3-PadA4)*
X53452000Y-42106044D02*
X53452000Y-42106044D01*
X53452000Y-42347344D02*
X55118142Y-42347344D01*
X55920829Y-42347344D02*
X56235417Y-42347344D01*
X56764584Y-42347344D02*
X59255010Y-42347344D01*
X53522814Y-42588644D02*
X54824918Y-42588644D01*
X57137919Y-42588644D02*
X59013710Y-42588644D01*
X53663156Y-42829944D02*
X54702273Y-42829944D01*
X57293749Y-42829944D02*
X58897617Y-42829944D01*
X61160549Y-42829944D02*
X61173000Y-42829944D01*
X53711153Y-43071244D02*
X54654485Y-43071244D01*
X57365000Y-43071244D02*
X58840000Y-43071244D01*
X60904006Y-43071244D02*
X61173000Y-43071244D01*
X53698464Y-43312544D02*
X54664059Y-43312544D01*
X57365000Y-43312544D02*
X58840000Y-43312544D01*
X60760000Y-43312544D02*
X61173000Y-43312544D01*
X53641423Y-43553844D02*
X54764009Y-43553844D01*
X57278940Y-43553844D02*
X58924038Y-43553844D01*
X60675961Y-43553844D02*
X61173000Y-43553844D01*
X53480191Y-43795144D02*
X54973964Y-43795144D01*
X57102169Y-43795144D02*
X59077498Y-43795144D01*
X60522502Y-43795144D02*
X61173000Y-43795144D01*
X53452000Y-44036444D02*
X56321724Y-44036444D01*
X56678275Y-44036444D02*
X59407321Y-44036444D01*
X60192678Y-44036444D02*
X61173000Y-44036444D01*
X53582350Y-44277744D02*
X61173000Y-44277744D01*
X53823650Y-44519044D02*
X61173000Y-44519044D01*
X54064950Y-44760344D02*
X61173000Y-44760344D01*
X54306250Y-45001644D02*
X61173000Y-45001644D01*
X54547550Y-45242944D02*
X61173000Y-45242944D01*
X54788850Y-45484244D02*
X61173000Y-45484244D01*
X57930150Y-45725544D02*
X61173000Y-45725544D01*
X58171450Y-45966844D02*
X61173000Y-45966844D01*
X58412750Y-46208144D02*
X61173000Y-46208144D01*
X58654050Y-46449444D02*
X61173000Y-46449444D01*
X61173000Y-42811311D02*
X61173000Y-46623000D01*
X60931700Y-43052740D02*
X60931700Y-46623000D01*
X60690400Y-43518986D02*
X60690400Y-46623000D01*
X60449100Y-43868546D02*
X60449100Y-46623000D01*
X60207800Y-44030181D02*
X60207800Y-46623000D01*
X59966500Y-44120000D02*
X59966500Y-46623000D01*
X59725200Y-44120000D02*
X59725200Y-46623000D01*
X59483900Y-44068163D02*
X59483900Y-46623000D01*
X59242600Y-42287567D02*
X59242600Y-42359754D01*
X59242600Y-43960246D02*
X59242600Y-46623000D01*
X59001300Y-42280003D02*
X59001300Y-42601054D01*
X59001300Y-43718946D02*
X59001300Y-46623000D01*
X58760000Y-42272438D02*
X58760000Y-46555394D01*
X58518700Y-42264874D02*
X58518700Y-46314094D01*
X58277400Y-42257310D02*
X58277400Y-46072794D01*
X58036100Y-42249746D02*
X58036100Y-45831494D01*
X57794800Y-42242181D02*
X57794800Y-45648000D01*
X57553500Y-42234617D02*
X57553500Y-45648000D01*
X57312200Y-42227053D02*
X57312200Y-42874491D01*
X57312200Y-43473548D02*
X57312200Y-45648000D01*
X57070900Y-42219489D02*
X57070900Y-42521625D01*
X57070900Y-43826413D02*
X57070900Y-45648000D01*
X56829600Y-42211924D02*
X56829600Y-42374275D01*
X56829600Y-43973764D02*
X56829600Y-45648000D01*
X56588300Y-42204360D02*
X56588300Y-42309019D01*
X56588300Y-44039019D02*
X56588300Y-45648000D01*
X56347000Y-42196796D02*
X56347000Y-42309019D01*
X56347000Y-44039019D02*
X56347000Y-45648000D01*
X56105700Y-42189232D02*
X56105700Y-42401074D01*
X56105700Y-43946963D02*
X56105700Y-45648000D01*
X55864400Y-42181667D02*
X55864400Y-42323971D01*
X55864400Y-43910772D02*
X55864400Y-45648000D01*
X55623100Y-42174103D02*
X55623100Y-42252371D01*
X55623100Y-43982371D02*
X55623100Y-45648000D01*
X55381800Y-42166539D02*
X55381800Y-42252371D01*
X55381800Y-43982371D02*
X55381800Y-45648000D01*
X55140500Y-42158974D02*
X55140500Y-42338082D01*
X55140500Y-43896659D02*
X55140500Y-45648000D01*
X54899200Y-42151410D02*
X54899200Y-42514362D01*
X54899200Y-43720380D02*
X54899200Y-45594594D01*
X54657900Y-42143846D02*
X54657900Y-42937067D01*
X54657900Y-43297674D02*
X54657900Y-45353294D01*
X54416600Y-42136282D02*
X54416600Y-42945312D01*
X54416600Y-42945312D02*
X54416600Y-45111994D01*
X54175300Y-42128717D02*
X54175300Y-42945312D01*
X54175300Y-42945312D02*
X54175300Y-44870694D01*
X53934000Y-42121153D02*
X53934000Y-42945312D01*
X53934000Y-42945312D02*
X53934000Y-44629394D01*
X53692700Y-42113589D02*
X53692700Y-42945312D01*
X53692700Y-42945312D02*
X53692700Y-42978474D01*
X53692700Y-43341523D02*
X53692700Y-44388094D01*
D21*
X59295000Y-42289210D02*
X59295000Y-42311934D01*
X59298335Y-42328699D01*
X59256203Y-42346151D01*
X58986151Y-42616203D01*
X58840000Y-42969044D01*
X58840000Y-43350956D01*
X58986151Y-43703797D01*
X59256203Y-43973849D01*
X59609044Y-44120000D01*
X59990956Y-44120000D01*
X60343797Y-43973849D01*
X60613849Y-43703797D01*
X60760000Y-43350956D01*
X60760000Y-43167466D01*
X61076193Y-42956193D01*
X61173000Y-42811311D01*
X61173000Y-46623000D01*
X58827606Y-46623000D01*
X57889803Y-45685197D01*
X57848601Y-45657667D01*
X57800000Y-45648000D01*
X54952606Y-45648000D01*
X53452000Y-44147394D01*
X53452000Y-43837336D01*
X53654300Y-43534573D01*
X53728807Y-43160000D01*
X53686104Y-42945312D01*
X54654485Y-42945312D01*
X54654485Y-43289430D01*
X54786174Y-43607354D01*
X55029502Y-43850682D01*
X55347426Y-43982371D01*
X55691544Y-43982371D01*
X55969800Y-43867113D01*
X56010017Y-43907330D01*
X56327941Y-44039019D01*
X56672059Y-44039019D01*
X56989983Y-43907330D01*
X57233311Y-43664002D01*
X57365000Y-43346078D01*
X57365000Y-43001960D01*
X57233311Y-42684036D01*
X56989983Y-42440708D01*
X56672059Y-42309019D01*
X56327941Y-42309019D01*
X56049685Y-42424277D01*
X56009468Y-42384060D01*
X55691544Y-42252371D01*
X55347426Y-42252371D01*
X55029502Y-42384060D01*
X54786174Y-42627388D01*
X54654485Y-42945312D01*
X53686104Y-42945312D01*
X53654300Y-42785427D01*
X53452000Y-42482664D01*
X53452000Y-42106044D01*
X59295000Y-42289210D01*
D20*
G04 #@! TO.N,VDD*
G36*
X47093538Y-52221000D02*
X46817941Y-52221000D01*
X46500017Y-52352689D01*
X46256689Y-52596017D01*
X46156272Y-52838444D01*
X45892053Y-52729000D01*
X45547935Y-52729000D01*
X45230011Y-52860689D01*
X44986683Y-53104017D01*
X44854994Y-53421941D01*
X44854994Y-53766059D01*
X44986683Y-54083983D01*
X45230011Y-54327311D01*
X45547935Y-54459000D01*
X45885000Y-54459000D01*
X45885000Y-54672059D01*
X45928009Y-54775891D01*
X45892059Y-54761000D01*
X45547941Y-54761000D01*
X45230017Y-54892689D01*
X44986689Y-55136017D01*
X44855000Y-55453941D01*
X44855000Y-55798059D01*
X44986689Y-56115983D01*
X45155706Y-56285000D01*
X44947899Y-56285000D01*
X44629975Y-56416689D01*
X44386647Y-56660017D01*
X44254958Y-56977941D01*
X44254958Y-57322059D01*
X44305263Y-57443507D01*
X44254958Y-57564954D01*
X44254958Y-57909072D01*
X44386647Y-58226996D01*
X44629975Y-58470324D01*
X44947899Y-58602013D01*
X44964334Y-58602013D01*
X44986689Y-58655983D01*
X45230017Y-58899311D01*
X45547941Y-59031000D01*
X45892059Y-59031000D01*
X46209983Y-58899311D01*
X46453311Y-58655983D01*
X46585000Y-58338059D01*
X46585000Y-57993941D01*
X46453311Y-57676017D01*
X46209983Y-57432689D01*
X45978799Y-57336929D01*
X45984958Y-57322059D01*
X45984958Y-56977941D01*
X45853269Y-56660017D01*
X45684252Y-56491000D01*
X45892059Y-56491000D01*
X46209983Y-56359311D01*
X46453311Y-56115983D01*
X46585000Y-55798059D01*
X46585000Y-55453941D01*
X46541991Y-55350109D01*
X46577941Y-55365000D01*
X46922059Y-55365000D01*
X47143201Y-55273399D01*
X47158167Y-56193202D01*
X47122941Y-56193202D01*
X46805017Y-56324891D01*
X46561689Y-56568219D01*
X46430000Y-56886143D01*
X46430000Y-57230261D01*
X46561689Y-57548185D01*
X46805017Y-57791513D01*
X47122941Y-57923202D01*
X47186314Y-57923202D01*
X47270871Y-63120182D01*
X43290000Y-63034216D01*
X43290000Y-62776962D01*
X43158311Y-62459038D01*
X42914983Y-62215710D01*
X42597059Y-62084021D01*
X42252941Y-62084021D01*
X41935017Y-62215710D01*
X41691689Y-62459038D01*
X41560000Y-62776962D01*
X41560000Y-62996858D01*
X38232444Y-62925000D01*
X38452059Y-62925000D01*
X38769983Y-62793311D01*
X39013311Y-62549983D01*
X39145000Y-62232059D01*
X39145000Y-61887941D01*
X39013311Y-61570017D01*
X38769983Y-61326689D01*
X38452059Y-61195000D01*
X38107941Y-61195000D01*
X38002014Y-61238877D01*
X37855055Y-61178004D01*
X37510937Y-61178004D01*
X37193013Y-61309693D01*
X36949685Y-61553021D01*
X36817996Y-61870945D01*
X36817996Y-62215063D01*
X36949685Y-62532987D01*
X37193013Y-62776315D01*
X37510937Y-62908004D01*
X37855055Y-62908004D01*
X37960982Y-62864127D01*
X38101093Y-62922164D01*
X32477000Y-62800713D01*
X32477000Y-58267941D01*
X32515000Y-58267941D01*
X32515000Y-58612059D01*
X32646689Y-58929983D01*
X32890017Y-59173311D01*
X33207941Y-59305000D01*
X33552059Y-59305000D01*
X33869983Y-59173311D01*
X33874651Y-59168643D01*
X33979593Y-59421993D01*
X34222921Y-59665321D01*
X34540845Y-59797010D01*
X34884963Y-59797010D01*
X35202887Y-59665321D01*
X35446215Y-59421993D01*
X35577904Y-59104069D01*
X35577904Y-58759951D01*
X35446215Y-58442027D01*
X35202887Y-58198699D01*
X34884963Y-58067010D01*
X34540845Y-58067010D01*
X34222921Y-58198699D01*
X34218253Y-58203367D01*
X34113311Y-57950017D01*
X33869983Y-57706689D01*
X33552059Y-57575000D01*
X33207941Y-57575000D01*
X32890017Y-57706689D01*
X32646689Y-57950017D01*
X32515000Y-58267941D01*
X32477000Y-58267941D01*
X32477000Y-55355744D01*
X32569531Y-55579133D01*
X32812859Y-55822461D01*
X33130783Y-55954150D01*
X33474901Y-55954150D01*
X33792825Y-55822461D01*
X34036153Y-55579133D01*
X34167842Y-55261209D01*
X34167842Y-54917091D01*
X34133226Y-54833522D01*
X34135868Y-54832428D01*
X34379196Y-54589100D01*
X34510885Y-54271176D01*
X34510885Y-53927058D01*
X34485180Y-53865000D01*
X34672059Y-53865000D01*
X34989983Y-53733311D01*
X35233311Y-53489983D01*
X35266189Y-53410609D01*
X35334689Y-53575983D01*
X35578017Y-53819311D01*
X35895941Y-53951000D01*
X36240059Y-53951000D01*
X36557983Y-53819311D01*
X36801311Y-53575983D01*
X36933000Y-53258059D01*
X36933000Y-52913941D01*
X36801311Y-52596017D01*
X36557983Y-52352689D01*
X36240059Y-52221000D01*
X35895941Y-52221000D01*
X35743231Y-52284255D01*
X35853806Y-52173680D01*
X35985495Y-51855756D01*
X35985495Y-51511638D01*
X35853806Y-51193714D01*
X35610478Y-50950386D01*
X35292554Y-50818697D01*
X34948436Y-50818697D01*
X34630512Y-50950386D01*
X34387184Y-51193714D01*
X34255495Y-51511638D01*
X34255495Y-51855756D01*
X34371162Y-52135000D01*
X34327941Y-52135000D01*
X34010017Y-52266689D01*
X33766689Y-52510017D01*
X33635000Y-52827941D01*
X33635000Y-53172059D01*
X33660705Y-53234117D01*
X33473826Y-53234117D01*
X33155902Y-53365806D01*
X32912574Y-53609134D01*
X32780885Y-53927058D01*
X32780885Y-54271176D01*
X32815501Y-54354745D01*
X32812859Y-54355839D01*
X32569531Y-54599167D01*
X32477000Y-54822556D01*
X32477000Y-50622186D01*
X36082778Y-50622186D01*
X36082778Y-50966304D01*
X36214467Y-51284228D01*
X36457795Y-51527556D01*
X36775719Y-51659245D01*
X36887899Y-51659245D01*
X37023047Y-51794393D01*
X37340971Y-51926082D01*
X37685089Y-51926082D01*
X37709557Y-51915947D01*
X37834921Y-52041311D01*
X38152845Y-52173000D01*
X38496963Y-52173000D01*
X38814887Y-52041311D01*
X39046102Y-51810096D01*
X39197941Y-51872990D01*
X39542059Y-51872990D01*
X39859983Y-51741301D01*
X40103311Y-51497973D01*
X40235000Y-51180049D01*
X40235000Y-50835931D01*
X40103311Y-50518007D01*
X39859983Y-50274679D01*
X39542059Y-50142990D01*
X39197941Y-50142990D01*
X38880017Y-50274679D01*
X38648802Y-50505894D01*
X38496963Y-50443000D01*
X38152845Y-50443000D01*
X38128377Y-50453135D01*
X38003013Y-50327771D01*
X37685089Y-50196082D01*
X37572909Y-50196082D01*
X37437761Y-50060934D01*
X37119837Y-49929245D01*
X36775719Y-49929245D01*
X36457795Y-50060934D01*
X36214467Y-50304262D01*
X36082778Y-50622186D01*
X32477000Y-50622186D01*
X32477000Y-49835929D01*
X41273598Y-49835929D01*
X41273598Y-50180047D01*
X41405287Y-50497971D01*
X41648615Y-50741299D01*
X41966539Y-50872988D01*
X42310657Y-50872988D01*
X42628581Y-50741299D01*
X42871909Y-50497971D01*
X43003598Y-50180047D01*
X43003598Y-49835929D01*
X44683420Y-49835929D01*
X44683420Y-50180047D01*
X44815109Y-50497971D01*
X45058437Y-50741299D01*
X45376361Y-50872988D01*
X45720479Y-50872988D01*
X46038403Y-50741299D01*
X46281731Y-50497971D01*
X46413420Y-50180047D01*
X46413420Y-49835929D01*
X46281731Y-49518005D01*
X46038403Y-49274677D01*
X45720479Y-49142988D01*
X45376361Y-49142988D01*
X45058437Y-49274677D01*
X44815109Y-49518005D01*
X44683420Y-49835929D01*
X43003598Y-49835929D01*
X42871909Y-49518005D01*
X42628581Y-49274677D01*
X42310657Y-49142988D01*
X41966539Y-49142988D01*
X41648615Y-49274677D01*
X41405287Y-49518005D01*
X41273598Y-49835929D01*
X32477000Y-49835929D01*
X32477000Y-47467941D01*
X32525000Y-47467941D01*
X32525000Y-47812059D01*
X32656689Y-48129983D01*
X32900017Y-48373311D01*
X33217941Y-48505000D01*
X33562059Y-48505000D01*
X33879983Y-48373311D01*
X34123311Y-48129983D01*
X34255000Y-47812059D01*
X34255000Y-47467941D01*
X34123311Y-47150017D01*
X33879983Y-46906689D01*
X33562059Y-46775000D01*
X33217941Y-46775000D01*
X32900017Y-46906689D01*
X32656689Y-47150017D01*
X32525000Y-47467941D01*
X32477000Y-47467941D01*
X32477000Y-46719776D01*
X34814444Y-46719776D01*
X34814444Y-47063894D01*
X34946133Y-47381818D01*
X35189461Y-47625146D01*
X35507385Y-47756835D01*
X35851503Y-47756835D01*
X36169427Y-47625146D01*
X36412755Y-47381818D01*
X36544444Y-47063894D01*
X36544444Y-46719776D01*
X36412755Y-46401852D01*
X36198844Y-46187941D01*
X36825000Y-46187941D01*
X36825000Y-46532059D01*
X36956689Y-46849983D01*
X37200017Y-47093311D01*
X37517941Y-47225000D01*
X37862059Y-47225000D01*
X38179983Y-47093311D01*
X38423311Y-46849983D01*
X38555000Y-46532059D01*
X38555000Y-46187941D01*
X38423311Y-45870017D01*
X38179983Y-45626689D01*
X37862059Y-45495000D01*
X37517941Y-45495000D01*
X37200017Y-45626689D01*
X36956689Y-45870017D01*
X36825000Y-46187941D01*
X36198844Y-46187941D01*
X36169427Y-46158524D01*
X35851503Y-46026835D01*
X35507385Y-46026835D01*
X35189461Y-46158524D01*
X34946133Y-46401852D01*
X34814444Y-46719776D01*
X32477000Y-46719776D01*
X32477000Y-43476354D01*
X46950060Y-43402638D01*
X47093538Y-52221000D01*
X47093538Y-52221000D01*
G37*
X47093538Y-52221000D02*
X46817941Y-52221000D01*
X46500017Y-52352689D01*
X46256689Y-52596017D01*
X46156272Y-52838444D01*
X45892053Y-52729000D01*
X45547935Y-52729000D01*
X45230011Y-52860689D01*
X44986683Y-53104017D01*
X44854994Y-53421941D01*
X44854994Y-53766059D01*
X44986683Y-54083983D01*
X45230011Y-54327311D01*
X45547935Y-54459000D01*
X45885000Y-54459000D01*
X45885000Y-54672059D01*
X45928009Y-54775891D01*
X45892059Y-54761000D01*
X45547941Y-54761000D01*
X45230017Y-54892689D01*
X44986689Y-55136017D01*
X44855000Y-55453941D01*
X44855000Y-55798059D01*
X44986689Y-56115983D01*
X45155706Y-56285000D01*
X44947899Y-56285000D01*
X44629975Y-56416689D01*
X44386647Y-56660017D01*
X44254958Y-56977941D01*
X44254958Y-57322059D01*
X44305263Y-57443507D01*
X44254958Y-57564954D01*
X44254958Y-57909072D01*
X44386647Y-58226996D01*
X44629975Y-58470324D01*
X44947899Y-58602013D01*
X44964334Y-58602013D01*
X44986689Y-58655983D01*
X45230017Y-58899311D01*
X45547941Y-59031000D01*
X45892059Y-59031000D01*
X46209983Y-58899311D01*
X46453311Y-58655983D01*
X46585000Y-58338059D01*
X46585000Y-57993941D01*
X46453311Y-57676017D01*
X46209983Y-57432689D01*
X45978799Y-57336929D01*
X45984958Y-57322059D01*
X45984958Y-56977941D01*
X45853269Y-56660017D01*
X45684252Y-56491000D01*
X45892059Y-56491000D01*
X46209983Y-56359311D01*
X46453311Y-56115983D01*
X46585000Y-55798059D01*
X46585000Y-55453941D01*
X46541991Y-55350109D01*
X46577941Y-55365000D01*
X46922059Y-55365000D01*
X47143201Y-55273399D01*
X47158167Y-56193202D01*
X47122941Y-56193202D01*
X46805017Y-56324891D01*
X46561689Y-56568219D01*
X46430000Y-56886143D01*
X46430000Y-57230261D01*
X46561689Y-57548185D01*
X46805017Y-57791513D01*
X47122941Y-57923202D01*
X47186314Y-57923202D01*
X47270871Y-63120182D01*
X43290000Y-63034216D01*
X43290000Y-62776962D01*
X43158311Y-62459038D01*
X42914983Y-62215710D01*
X42597059Y-62084021D01*
X42252941Y-62084021D01*
X41935017Y-62215710D01*
X41691689Y-62459038D01*
X41560000Y-62776962D01*
X41560000Y-62996858D01*
X38232444Y-62925000D01*
X38452059Y-62925000D01*
X38769983Y-62793311D01*
X39013311Y-62549983D01*
X39145000Y-62232059D01*
X39145000Y-61887941D01*
X39013311Y-61570017D01*
X38769983Y-61326689D01*
X38452059Y-61195000D01*
X38107941Y-61195000D01*
X38002014Y-61238877D01*
X37855055Y-61178004D01*
X37510937Y-61178004D01*
X37193013Y-61309693D01*
X36949685Y-61553021D01*
X36817996Y-61870945D01*
X36817996Y-62215063D01*
X36949685Y-62532987D01*
X37193013Y-62776315D01*
X37510937Y-62908004D01*
X37855055Y-62908004D01*
X37960982Y-62864127D01*
X38101093Y-62922164D01*
X32477000Y-62800713D01*
X32477000Y-58267941D01*
X32515000Y-58267941D01*
X32515000Y-58612059D01*
X32646689Y-58929983D01*
X32890017Y-59173311D01*
X33207941Y-59305000D01*
X33552059Y-59305000D01*
X33869983Y-59173311D01*
X33874651Y-59168643D01*
X33979593Y-59421993D01*
X34222921Y-59665321D01*
X34540845Y-59797010D01*
X34884963Y-59797010D01*
X35202887Y-59665321D01*
X35446215Y-59421993D01*
X35577904Y-59104069D01*
X35577904Y-58759951D01*
X35446215Y-58442027D01*
X35202887Y-58198699D01*
X34884963Y-58067010D01*
X34540845Y-58067010D01*
X34222921Y-58198699D01*
X34218253Y-58203367D01*
X34113311Y-57950017D01*
X33869983Y-57706689D01*
X33552059Y-57575000D01*
X33207941Y-57575000D01*
X32890017Y-57706689D01*
X32646689Y-57950017D01*
X32515000Y-58267941D01*
X32477000Y-58267941D01*
X32477000Y-55355744D01*
X32569531Y-55579133D01*
X32812859Y-55822461D01*
X33130783Y-55954150D01*
X33474901Y-55954150D01*
X33792825Y-55822461D01*
X34036153Y-55579133D01*
X34167842Y-55261209D01*
X34167842Y-54917091D01*
X34133226Y-54833522D01*
X34135868Y-54832428D01*
X34379196Y-54589100D01*
X34510885Y-54271176D01*
X34510885Y-53927058D01*
X34485180Y-53865000D01*
X34672059Y-53865000D01*
X34989983Y-53733311D01*
X35233311Y-53489983D01*
X35266189Y-53410609D01*
X35334689Y-53575983D01*
X35578017Y-53819311D01*
X35895941Y-53951000D01*
X36240059Y-53951000D01*
X36557983Y-53819311D01*
X36801311Y-53575983D01*
X36933000Y-53258059D01*
X36933000Y-52913941D01*
X36801311Y-52596017D01*
X36557983Y-52352689D01*
X36240059Y-52221000D01*
X35895941Y-52221000D01*
X35743231Y-52284255D01*
X35853806Y-52173680D01*
X35985495Y-51855756D01*
X35985495Y-51511638D01*
X35853806Y-51193714D01*
X35610478Y-50950386D01*
X35292554Y-50818697D01*
X34948436Y-50818697D01*
X34630512Y-50950386D01*
X34387184Y-51193714D01*
X34255495Y-51511638D01*
X34255495Y-51855756D01*
X34371162Y-52135000D01*
X34327941Y-52135000D01*
X34010017Y-52266689D01*
X33766689Y-52510017D01*
X33635000Y-52827941D01*
X33635000Y-53172059D01*
X33660705Y-53234117D01*
X33473826Y-53234117D01*
X33155902Y-53365806D01*
X32912574Y-53609134D01*
X32780885Y-53927058D01*
X32780885Y-54271176D01*
X32815501Y-54354745D01*
X32812859Y-54355839D01*
X32569531Y-54599167D01*
X32477000Y-54822556D01*
X32477000Y-50622186D01*
X36082778Y-50622186D01*
X36082778Y-50966304D01*
X36214467Y-51284228D01*
X36457795Y-51527556D01*
X36775719Y-51659245D01*
X36887899Y-51659245D01*
X37023047Y-51794393D01*
X37340971Y-51926082D01*
X37685089Y-51926082D01*
X37709557Y-51915947D01*
X37834921Y-52041311D01*
X38152845Y-52173000D01*
X38496963Y-52173000D01*
X38814887Y-52041311D01*
X39046102Y-51810096D01*
X39197941Y-51872990D01*
X39542059Y-51872990D01*
X39859983Y-51741301D01*
X40103311Y-51497973D01*
X40235000Y-51180049D01*
X40235000Y-50835931D01*
X40103311Y-50518007D01*
X39859983Y-50274679D01*
X39542059Y-50142990D01*
X39197941Y-50142990D01*
X38880017Y-50274679D01*
X38648802Y-50505894D01*
X38496963Y-50443000D01*
X38152845Y-50443000D01*
X38128377Y-50453135D01*
X38003013Y-50327771D01*
X37685089Y-50196082D01*
X37572909Y-50196082D01*
X37437761Y-50060934D01*
X37119837Y-49929245D01*
X36775719Y-49929245D01*
X36457795Y-50060934D01*
X36214467Y-50304262D01*
X36082778Y-50622186D01*
X32477000Y-50622186D01*
X32477000Y-49835929D01*
X41273598Y-49835929D01*
X41273598Y-50180047D01*
X41405287Y-50497971D01*
X41648615Y-50741299D01*
X41966539Y-50872988D01*
X42310657Y-50872988D01*
X42628581Y-50741299D01*
X42871909Y-50497971D01*
X43003598Y-50180047D01*
X43003598Y-49835929D01*
X44683420Y-49835929D01*
X44683420Y-50180047D01*
X44815109Y-50497971D01*
X45058437Y-50741299D01*
X45376361Y-50872988D01*
X45720479Y-50872988D01*
X46038403Y-50741299D01*
X46281731Y-50497971D01*
X46413420Y-50180047D01*
X46413420Y-49835929D01*
X46281731Y-49518005D01*
X46038403Y-49274677D01*
X45720479Y-49142988D01*
X45376361Y-49142988D01*
X45058437Y-49274677D01*
X44815109Y-49518005D01*
X44683420Y-49835929D01*
X43003598Y-49835929D01*
X42871909Y-49518005D01*
X42628581Y-49274677D01*
X42310657Y-49142988D01*
X41966539Y-49142988D01*
X41648615Y-49274677D01*
X41405287Y-49518005D01*
X41273598Y-49835929D01*
X32477000Y-49835929D01*
X32477000Y-47467941D01*
X32525000Y-47467941D01*
X32525000Y-47812059D01*
X32656689Y-48129983D01*
X32900017Y-48373311D01*
X33217941Y-48505000D01*
X33562059Y-48505000D01*
X33879983Y-48373311D01*
X34123311Y-48129983D01*
X34255000Y-47812059D01*
X34255000Y-47467941D01*
X34123311Y-47150017D01*
X33879983Y-46906689D01*
X33562059Y-46775000D01*
X33217941Y-46775000D01*
X32900017Y-46906689D01*
X32656689Y-47150017D01*
X32525000Y-47467941D01*
X32477000Y-47467941D01*
X32477000Y-46719776D01*
X34814444Y-46719776D01*
X34814444Y-47063894D01*
X34946133Y-47381818D01*
X35189461Y-47625146D01*
X35507385Y-47756835D01*
X35851503Y-47756835D01*
X36169427Y-47625146D01*
X36412755Y-47381818D01*
X36544444Y-47063894D01*
X36544444Y-46719776D01*
X36412755Y-46401852D01*
X36198844Y-46187941D01*
X36825000Y-46187941D01*
X36825000Y-46532059D01*
X36956689Y-46849983D01*
X37200017Y-47093311D01*
X37517941Y-47225000D01*
X37862059Y-47225000D01*
X38179983Y-47093311D01*
X38423311Y-46849983D01*
X38555000Y-46532059D01*
X38555000Y-46187941D01*
X38423311Y-45870017D01*
X38179983Y-45626689D01*
X37862059Y-45495000D01*
X37517941Y-45495000D01*
X37200017Y-45626689D01*
X36956689Y-45870017D01*
X36825000Y-46187941D01*
X36198844Y-46187941D01*
X36169427Y-46158524D01*
X35851503Y-46026835D01*
X35507385Y-46026835D01*
X35189461Y-46158524D01*
X34946133Y-46401852D01*
X34814444Y-46719776D01*
X32477000Y-46719776D01*
X32477000Y-43476354D01*
X46950060Y-43402638D01*
X47093538Y-52221000D01*
G04 #@! TD*
M02*
