G04 #@! TF.GenerationSoftware,KiCad,Pcbnew,(5.0.0-rc3)*
G04 #@! TF.CreationDate,2018-08-22T20:47:19+02:00*
G04 #@! TF.ProjectId,Adapter,416461707465722E6B696361645F7063,rev?*
G04 #@! TF.SameCoordinates,Original*
G04 #@! TF.FileFunction,Copper,L3,Inr,Plane*
G04 #@! TF.FilePolarity,Positive*
%FSLAX46Y46*%
G04 Gerber Fmt 4.6, Leading zero omitted, Abs format (unit mm)*
G04 Created by KiCad (PCBNEW (5.0.0-rc3)) date Wed Aug 22 20:47:19 2018*
%MOMM*%
%LPD*%
G01*
G04 APERTURE LIST*
G04 #@! TA.AperFunction,ViaPad*
%ADD10C,2.400000*%
G04 #@! TD*
G04 #@! TA.AperFunction,ViaPad*
%ADD11C,1.000000*%
G04 #@! TD*
G04 #@! TA.AperFunction,ViaPad*
%ADD12R,1.000000X1.000000*%
G04 #@! TD*
G04 #@! TA.AperFunction,ViaPad*
%ADD13O,2.200000X1.200000*%
G04 #@! TD*
G04 #@! TA.AperFunction,ViaPad*
%ADD14O,1.700000X1.200000*%
G04 #@! TD*
G04 #@! TA.AperFunction,ViaPad*
%ADD15O,1.250000X0.950000*%
G04 #@! TD*
G04 #@! TA.AperFunction,ViaPad*
%ADD16O,1.000000X1.550000*%
G04 #@! TD*
G04 #@! TA.AperFunction,ViaPad*
%ADD17C,0.460000*%
G04 #@! TD*
G04 #@! TA.AperFunction,ViaPad*
%ADD18C,0.700000*%
G04 #@! TD*
G04 #@! TA.AperFunction,Conductor*
%ADD19C,0.254000*%
G04 #@! TD*
G04 APERTURE END LIST*
D10*
G04 #@! TO.N,GND*
G04 #@! TO.C,J2*
X44315575Y-23957256D03*
D11*
X37585575Y-18957256D03*
X37585575Y-20457256D03*
X37585575Y-21957256D03*
X37585575Y-23457256D03*
G04 #@! TO.N,/CONFIG2*
X37585575Y-24957256D03*
G04 #@! TO.N,/AUX-*
X37585575Y-26457256D03*
G04 #@! TO.N,/DP_PWR*
X37585575Y-27957256D03*
D12*
G04 #@! TO.N,/DP3-*
X36085575Y-18457256D03*
D11*
G04 #@! TO.N,/DP2-*
X36085575Y-19957256D03*
G04 #@! TO.N,/DP1-*
X36085575Y-21457256D03*
G04 #@! TO.N,/DP0-*
X36085575Y-22957256D03*
G04 #@! TO.N,/CONFIG1*
X36085575Y-24457256D03*
G04 #@! TO.N,GND*
X36085575Y-25957256D03*
G04 #@! TO.N,/RETPOW*
X36085575Y-27457256D03*
G04 #@! TO.N,/DP3+*
X34585575Y-19457256D03*
G04 #@! TO.N,/DP2+*
X34585575Y-20957256D03*
G04 #@! TO.N,/DP1+*
X34585575Y-22457256D03*
G04 #@! TO.N,/DP0+*
X34585575Y-23957256D03*
G04 #@! TO.N,/AUX+*
X34585575Y-25457256D03*
G04 #@! TO.N,/HPD*
X34585575Y-26957256D03*
D13*
G04 #@! TO.N,GND*
X43415575Y-15707256D03*
X43415575Y-32207256D03*
X36635575Y-15707256D03*
X36635575Y-32207256D03*
G04 #@! TD*
D14*
G04 #@! TO.N,GND*
G04 #@! TO.C,J3*
X26565575Y-19637256D03*
X18365575Y-19637256D03*
X18365575Y-22577256D03*
X26565575Y-22577256D03*
G04 #@! TD*
D15*
G04 #@! TO.N,N/C*
G04 #@! TO.C,J1*
X26515575Y-28857256D03*
X21515575Y-28857256D03*
D16*
X20515575Y-31557256D03*
X27515575Y-31557256D03*
G04 #@! TD*
D17*
G04 #@! TO.N,/D+*
X23417536Y-27092464D03*
X22673500Y-24910000D03*
G04 #@! TO.N,GND*
X41370000Y-18840000D03*
X41370000Y-20720000D03*
X41320000Y-22630000D03*
X41370000Y-25020000D03*
X41370000Y-27120000D03*
X41400000Y-29650000D03*
X34310000Y-29070000D03*
X34340000Y-30830000D03*
D18*
X19415575Y-29757256D03*
D17*
X25650000Y-18370000D03*
D18*
X43400000Y-17570000D03*
X25580000Y-27510000D03*
X25520000Y-30210000D03*
X19330000Y-23900000D03*
X19330000Y-20430000D03*
X26500000Y-23590000D03*
D17*
X34970000Y-28190000D03*
D18*
X29140002Y-29660000D03*
D17*
X30350000Y-23040000D03*
X30500000Y-19260002D03*
G04 #@! TO.N,/D-*
X23002464Y-27507536D03*
X22086500Y-24910000D03*
G04 #@! TO.N,/DP2+*
X26420000Y-24456500D03*
G04 #@! TO.N,/DP2-*
X26420000Y-25043500D03*
G04 #@! TO.N,/pAUX+*
X21630000Y-23810000D03*
G04 #@! TO.N,/pAUX-*
X23300000Y-18400000D03*
G04 #@! TD*
D19*
G04 #@! TO.N,GND*
G36*
X34945983Y-15351975D02*
X34942113Y-15389647D01*
X35066844Y-15580256D01*
X36508575Y-15580256D01*
X36508575Y-15560256D01*
X36762575Y-15560256D01*
X36762575Y-15580256D01*
X38204306Y-15580256D01*
X38329037Y-15389647D01*
X38325167Y-15351975D01*
X38214227Y-15142256D01*
X41836923Y-15142256D01*
X41725983Y-15351975D01*
X41722113Y-15389647D01*
X41846844Y-15580256D01*
X43288575Y-15580256D01*
X43288575Y-15560256D01*
X43542575Y-15560256D01*
X43542575Y-15580256D01*
X44984306Y-15580256D01*
X45109037Y-15389647D01*
X45105167Y-15351975D01*
X44994227Y-15142256D01*
X48230576Y-15142256D01*
X48230575Y-32372256D01*
X45009172Y-32372256D01*
X44984306Y-32334256D01*
X43542575Y-32334256D01*
X43542575Y-32354256D01*
X43288575Y-32354256D01*
X43288575Y-32334256D01*
X41846844Y-32334256D01*
X41821978Y-32372256D01*
X38229172Y-32372256D01*
X38204306Y-32334256D01*
X36762575Y-32334256D01*
X36762575Y-32354256D01*
X36508575Y-32354256D01*
X36508575Y-32334256D01*
X35066844Y-32334256D01*
X35041978Y-32372256D01*
X28519810Y-32372256D01*
X28584721Y-32275110D01*
X28650575Y-31944038D01*
X28650575Y-31889647D01*
X34942113Y-31889647D01*
X35066844Y-32080256D01*
X36508575Y-32080256D01*
X36508575Y-30972256D01*
X36762575Y-30972256D01*
X36762575Y-32080256D01*
X38204306Y-32080256D01*
X38329037Y-31889647D01*
X41722113Y-31889647D01*
X41846844Y-32080256D01*
X43288575Y-32080256D01*
X43288575Y-30972256D01*
X43542575Y-30972256D01*
X43542575Y-32080256D01*
X44984306Y-32080256D01*
X45109037Y-31889647D01*
X45105167Y-31851975D01*
X44878655Y-31423782D01*
X44505522Y-31114866D01*
X44042575Y-30972256D01*
X43542575Y-30972256D01*
X43288575Y-30972256D01*
X42788575Y-30972256D01*
X42325628Y-31114866D01*
X41952495Y-31423782D01*
X41725983Y-31851975D01*
X41722113Y-31889647D01*
X38329037Y-31889647D01*
X38325167Y-31851975D01*
X38098655Y-31423782D01*
X37725522Y-31114866D01*
X37262575Y-30972256D01*
X36762575Y-30972256D01*
X36508575Y-30972256D01*
X36008575Y-30972256D01*
X35545628Y-31114866D01*
X35172495Y-31423782D01*
X34945983Y-31851975D01*
X34942113Y-31889647D01*
X28650575Y-31889647D01*
X28650575Y-31170473D01*
X28584721Y-30839401D01*
X28333864Y-30463967D01*
X27958429Y-30213110D01*
X27515575Y-30125021D01*
X27072720Y-30213110D01*
X26697286Y-30463967D01*
X26446429Y-30839402D01*
X26380575Y-31170474D01*
X26380575Y-31944039D01*
X26446429Y-32275111D01*
X26511339Y-32372256D01*
X21519810Y-32372256D01*
X21584721Y-32275110D01*
X21650575Y-31944038D01*
X21650575Y-31170473D01*
X21584721Y-30839401D01*
X21333864Y-30463967D01*
X20958429Y-30213110D01*
X20515575Y-30125021D01*
X20072720Y-30213110D01*
X19697286Y-30463967D01*
X19446429Y-30839402D01*
X19380575Y-31170474D01*
X19380575Y-31944039D01*
X19446429Y-32275111D01*
X19511339Y-32372256D01*
X16500575Y-32372256D01*
X16500575Y-28857256D01*
X20233829Y-28857256D01*
X20319978Y-29290356D01*
X20565310Y-29657521D01*
X20932475Y-29902853D01*
X21256251Y-29967256D01*
X21774899Y-29967256D01*
X22098675Y-29902853D01*
X22465840Y-29657521D01*
X22711172Y-29290356D01*
X22797321Y-28857256D01*
X25233829Y-28857256D01*
X25319978Y-29290356D01*
X25565310Y-29657521D01*
X25932475Y-29902853D01*
X26256251Y-29967256D01*
X26774899Y-29967256D01*
X27098675Y-29902853D01*
X27465840Y-29657521D01*
X27711172Y-29290356D01*
X27797321Y-28857256D01*
X27711172Y-28424156D01*
X27465840Y-28056991D01*
X27098675Y-27811659D01*
X26774899Y-27747256D01*
X26256251Y-27747256D01*
X25932475Y-27811659D01*
X25565310Y-28056991D01*
X25319978Y-28424156D01*
X25233829Y-28857256D01*
X22797321Y-28857256D01*
X22711172Y-28424156D01*
X22617852Y-28284493D01*
X22830405Y-28372536D01*
X23174523Y-28372536D01*
X23492447Y-28240847D01*
X23735775Y-27997519D01*
X23786078Y-27876078D01*
X23907519Y-27825775D01*
X24150847Y-27582447D01*
X24282536Y-27264523D01*
X24282536Y-26920405D01*
X24150847Y-26602481D01*
X23907519Y-26359153D01*
X23589595Y-26227464D01*
X23245477Y-26227464D01*
X22927553Y-26359153D01*
X22684225Y-26602481D01*
X22633922Y-26723922D01*
X22512481Y-26774225D01*
X22269153Y-27017553D01*
X22137464Y-27335477D01*
X22137464Y-27679595D01*
X22227945Y-27898035D01*
X22098675Y-27811659D01*
X21774899Y-27747256D01*
X21256251Y-27747256D01*
X20932475Y-27811659D01*
X20565310Y-28056991D01*
X20319978Y-28424156D01*
X20233829Y-28857256D01*
X16500575Y-28857256D01*
X16500575Y-23226684D01*
X16779592Y-23342256D01*
X17146007Y-23342256D01*
X17183642Y-23406381D01*
X17571874Y-23699903D01*
X18042879Y-23822512D01*
X18238575Y-23659803D01*
X18238575Y-22704256D01*
X18492575Y-22704256D01*
X18492575Y-23659803D01*
X18688271Y-23822512D01*
X19159276Y-23699903D01*
X19241231Y-23637941D01*
X20765000Y-23637941D01*
X20765000Y-23982059D01*
X20896689Y-24299983D01*
X21140017Y-24543311D01*
X21278379Y-24600623D01*
X21221500Y-24737941D01*
X21221500Y-25082059D01*
X21353189Y-25399983D01*
X21596517Y-25643311D01*
X21914441Y-25775000D01*
X22258559Y-25775000D01*
X22380000Y-25724697D01*
X22501441Y-25775000D01*
X22845559Y-25775000D01*
X23163483Y-25643311D01*
X23406811Y-25399983D01*
X23538500Y-25082059D01*
X23538500Y-24737941D01*
X23406811Y-24420017D01*
X23163483Y-24176689D01*
X22845559Y-24045000D01*
X22501441Y-24045000D01*
X22462195Y-24061256D01*
X22495000Y-23982059D01*
X22495000Y-23637941D01*
X22363311Y-23320017D01*
X22119983Y-23076689D01*
X21802059Y-22945000D01*
X21457941Y-22945000D01*
X21140017Y-23076689D01*
X20896689Y-23320017D01*
X20765000Y-23637941D01*
X19241231Y-23637941D01*
X19547508Y-23406381D01*
X19793861Y-22986632D01*
X19809037Y-22894865D01*
X25122113Y-22894865D01*
X25137289Y-22986632D01*
X25383642Y-23406381D01*
X25771874Y-23699903D01*
X25915829Y-23737377D01*
X25686689Y-23966517D01*
X25555000Y-24284441D01*
X25555000Y-24628559D01*
X25605303Y-24750000D01*
X25555000Y-24871441D01*
X25555000Y-25215559D01*
X25686689Y-25533483D01*
X25930017Y-25776811D01*
X26247941Y-25908500D01*
X26592059Y-25908500D01*
X26909983Y-25776811D01*
X27153311Y-25533483D01*
X27285000Y-25215559D01*
X27285000Y-24871441D01*
X27234697Y-24750000D01*
X27285000Y-24628559D01*
X27285000Y-24284441D01*
X27153311Y-23966517D01*
X26984307Y-23797513D01*
X27359276Y-23699903D01*
X27747508Y-23406381D01*
X27785143Y-23342256D01*
X28151558Y-23342256D01*
X28495210Y-23199911D01*
X28758230Y-22936891D01*
X28900575Y-22593239D01*
X28900575Y-22221273D01*
X28758230Y-21877621D01*
X28495210Y-21614601D01*
X28151558Y-21472256D01*
X27779592Y-21472256D01*
X27523126Y-21578487D01*
X27359276Y-21454609D01*
X26888271Y-21332000D01*
X26692575Y-21494709D01*
X26692575Y-22450256D01*
X26712575Y-22450256D01*
X26712575Y-22704256D01*
X26692575Y-22704256D01*
X26692575Y-22724256D01*
X26438575Y-22724256D01*
X26438575Y-22704256D01*
X25246844Y-22704256D01*
X25122113Y-22894865D01*
X19809037Y-22894865D01*
X19684306Y-22704256D01*
X18492575Y-22704256D01*
X18238575Y-22704256D01*
X18218575Y-22704256D01*
X18218575Y-22450256D01*
X18238575Y-22450256D01*
X18238575Y-21494709D01*
X18492575Y-21494709D01*
X18492575Y-22450256D01*
X19684306Y-22450256D01*
X19809037Y-22259647D01*
X25122113Y-22259647D01*
X25246844Y-22450256D01*
X26438575Y-22450256D01*
X26438575Y-21494709D01*
X26242879Y-21332000D01*
X25771874Y-21454609D01*
X25383642Y-21748131D01*
X25137289Y-22167880D01*
X25122113Y-22259647D01*
X19809037Y-22259647D01*
X19793861Y-22167880D01*
X19547508Y-21748131D01*
X19159276Y-21454609D01*
X18688271Y-21332000D01*
X18492575Y-21494709D01*
X18238575Y-21494709D01*
X18042879Y-21332000D01*
X17571874Y-21454609D01*
X17408024Y-21578487D01*
X17151558Y-21472256D01*
X16779592Y-21472256D01*
X16500575Y-21587828D01*
X16500575Y-19954865D01*
X16922113Y-19954865D01*
X16937289Y-20046632D01*
X17183642Y-20466381D01*
X17571874Y-20759903D01*
X18042879Y-20882512D01*
X18238575Y-20719803D01*
X18238575Y-19764256D01*
X18492575Y-19764256D01*
X18492575Y-20719803D01*
X18688271Y-20882512D01*
X19159276Y-20759903D01*
X19547508Y-20466381D01*
X19793861Y-20046632D01*
X19809037Y-19954865D01*
X25122113Y-19954865D01*
X25137289Y-20046632D01*
X25383642Y-20466381D01*
X25771874Y-20759903D01*
X26242879Y-20882512D01*
X26438575Y-20719803D01*
X26438575Y-19764256D01*
X26692575Y-19764256D01*
X26692575Y-20719803D01*
X26888271Y-20882512D01*
X27359276Y-20759903D01*
X27747508Y-20466381D01*
X27993861Y-20046632D01*
X28009037Y-19954865D01*
X27884306Y-19764256D01*
X26692575Y-19764256D01*
X26438575Y-19764256D01*
X25246844Y-19764256D01*
X25122113Y-19954865D01*
X19809037Y-19954865D01*
X19684306Y-19764256D01*
X18492575Y-19764256D01*
X18238575Y-19764256D01*
X17046844Y-19764256D01*
X16922113Y-19954865D01*
X16500575Y-19954865D01*
X16500575Y-19319647D01*
X16922113Y-19319647D01*
X17046844Y-19510256D01*
X18238575Y-19510256D01*
X18238575Y-18554709D01*
X18492575Y-18554709D01*
X18492575Y-19510256D01*
X19684306Y-19510256D01*
X19809037Y-19319647D01*
X25122113Y-19319647D01*
X25246844Y-19510256D01*
X26438575Y-19510256D01*
X26438575Y-18554709D01*
X26692575Y-18554709D01*
X26692575Y-19510256D01*
X27884306Y-19510256D01*
X28009037Y-19319647D01*
X27994459Y-19231490D01*
X33450575Y-19231490D01*
X33450575Y-19683022D01*
X33623368Y-20100182D01*
X33730442Y-20207256D01*
X33623368Y-20314330D01*
X33450575Y-20731490D01*
X33450575Y-21183022D01*
X33623368Y-21600182D01*
X33730442Y-21707256D01*
X33623368Y-21814330D01*
X33450575Y-22231490D01*
X33450575Y-22683022D01*
X33623368Y-23100182D01*
X33730442Y-23207256D01*
X33623368Y-23314330D01*
X33450575Y-23731490D01*
X33450575Y-24183022D01*
X33623368Y-24600182D01*
X33730442Y-24707256D01*
X33623368Y-24814330D01*
X33450575Y-25231490D01*
X33450575Y-25683022D01*
X33623368Y-26100182D01*
X33730442Y-26207256D01*
X33623368Y-26314330D01*
X33450575Y-26731490D01*
X33450575Y-27183022D01*
X33623368Y-27600182D01*
X33942649Y-27919463D01*
X34359809Y-28092256D01*
X34811341Y-28092256D01*
X35074871Y-27983099D01*
X35123368Y-28100182D01*
X35442649Y-28419463D01*
X35859809Y-28592256D01*
X36311341Y-28592256D01*
X36574871Y-28483099D01*
X36623368Y-28600182D01*
X36942649Y-28919463D01*
X37359809Y-29092256D01*
X37811341Y-29092256D01*
X38228501Y-28919463D01*
X38547782Y-28600182D01*
X38720575Y-28183022D01*
X38720575Y-27731490D01*
X38547782Y-27314330D01*
X38440708Y-27207256D01*
X38547782Y-27100182D01*
X38720575Y-26683022D01*
X38720575Y-26231490D01*
X38547782Y-25814330D01*
X38440708Y-25707256D01*
X38547782Y-25600182D01*
X38690996Y-25254431D01*
X43198005Y-25254431D01*
X43321140Y-25542044D01*
X44003309Y-25801963D01*
X44733018Y-25781042D01*
X45310010Y-25542044D01*
X45433145Y-25254431D01*
X44315575Y-24136861D01*
X43198005Y-25254431D01*
X38690996Y-25254431D01*
X38720575Y-25183022D01*
X38720575Y-24731490D01*
X38547782Y-24314330D01*
X38454672Y-24221220D01*
X38491909Y-24183982D01*
X38375682Y-24067755D01*
X38590792Y-24030608D01*
X38719439Y-23644990D01*
X42470868Y-23644990D01*
X42491789Y-24374699D01*
X42730787Y-24951691D01*
X43018400Y-25074826D01*
X44135970Y-23957256D01*
X44495180Y-23957256D01*
X45612750Y-25074826D01*
X45900363Y-24951691D01*
X46160282Y-24269522D01*
X46139361Y-23539813D01*
X45900363Y-22962821D01*
X45612750Y-22839686D01*
X44495180Y-23957256D01*
X44135970Y-23957256D01*
X43018400Y-22839686D01*
X42730787Y-22962821D01*
X42470868Y-23644990D01*
X38719439Y-23644990D01*
X38733687Y-23602284D01*
X38701792Y-23151881D01*
X38590792Y-22883904D01*
X38375679Y-22846757D01*
X37765180Y-23457256D01*
X37779323Y-23471399D01*
X37599718Y-23651004D01*
X37585575Y-23636861D01*
X37571433Y-23651004D01*
X37391828Y-23471399D01*
X37405970Y-23457256D01*
X37391828Y-23443114D01*
X37571433Y-23263509D01*
X37585575Y-23277651D01*
X37782041Y-23081185D01*
X37890950Y-23073473D01*
X38158927Y-22962473D01*
X38196074Y-22747360D01*
X38155970Y-22707256D01*
X38196074Y-22667152D01*
X38194853Y-22660081D01*
X43198005Y-22660081D01*
X44315575Y-23777651D01*
X45433145Y-22660081D01*
X45310010Y-22372468D01*
X44627841Y-22112549D01*
X43898132Y-22133470D01*
X43321140Y-22372468D01*
X43198005Y-22660081D01*
X38194853Y-22660081D01*
X38158927Y-22452039D01*
X37771503Y-22322789D01*
X37585575Y-22136861D01*
X37571433Y-22151004D01*
X37391828Y-21971399D01*
X37405970Y-21957256D01*
X37765180Y-21957256D01*
X38375679Y-22567755D01*
X38590792Y-22530608D01*
X38733687Y-22102284D01*
X38701792Y-21651881D01*
X38590792Y-21383904D01*
X38375679Y-21346757D01*
X37765180Y-21957256D01*
X37405970Y-21957256D01*
X37391828Y-21943114D01*
X37571433Y-21763509D01*
X37585575Y-21777651D01*
X37782041Y-21581185D01*
X37890950Y-21573473D01*
X38158927Y-21462473D01*
X38196074Y-21247360D01*
X38155970Y-21207256D01*
X38196074Y-21167152D01*
X38158927Y-20952039D01*
X37771503Y-20822789D01*
X37585575Y-20636861D01*
X37571433Y-20651004D01*
X37391828Y-20471399D01*
X37405970Y-20457256D01*
X37765180Y-20457256D01*
X38375679Y-21067755D01*
X38590792Y-21030608D01*
X38733687Y-20602284D01*
X38701792Y-20151881D01*
X38590792Y-19883904D01*
X38375679Y-19846757D01*
X37765180Y-20457256D01*
X37405970Y-20457256D01*
X37391828Y-20443114D01*
X37571433Y-20263509D01*
X37585575Y-20277651D01*
X37782041Y-20081185D01*
X37890950Y-20073473D01*
X38158927Y-19962473D01*
X38196074Y-19747360D01*
X38155970Y-19707256D01*
X38196074Y-19667152D01*
X38158927Y-19452039D01*
X37771503Y-19322789D01*
X37585575Y-19136861D01*
X37571433Y-19151004D01*
X37391828Y-18971399D01*
X37405970Y-18957256D01*
X37765180Y-18957256D01*
X38375679Y-19567755D01*
X38590792Y-19530608D01*
X38733687Y-19102284D01*
X38701792Y-18651881D01*
X38590792Y-18383904D01*
X38375679Y-18346757D01*
X37765180Y-18957256D01*
X37405970Y-18957256D01*
X37391828Y-18943114D01*
X37571433Y-18763509D01*
X37585575Y-18777651D01*
X38196074Y-18167152D01*
X38158927Y-17952039D01*
X37730603Y-17809144D01*
X37280200Y-17841039D01*
X37215250Y-17867942D01*
X37183732Y-17709491D01*
X37043384Y-17499447D01*
X36833340Y-17359099D01*
X36585575Y-17309816D01*
X35585575Y-17309816D01*
X35337810Y-17359099D01*
X35127766Y-17499447D01*
X34987418Y-17709491D01*
X34938135Y-17957256D01*
X34938135Y-18374776D01*
X34811341Y-18322256D01*
X34359809Y-18322256D01*
X33942649Y-18495049D01*
X33623368Y-18814330D01*
X33450575Y-19231490D01*
X27994459Y-19231490D01*
X27993861Y-19227880D01*
X27747508Y-18808131D01*
X27359276Y-18514609D01*
X26888271Y-18392000D01*
X26692575Y-18554709D01*
X26438575Y-18554709D01*
X26242879Y-18392000D01*
X25771874Y-18514609D01*
X25383642Y-18808131D01*
X25137289Y-19227880D01*
X25122113Y-19319647D01*
X19809037Y-19319647D01*
X19793861Y-19227880D01*
X19547508Y-18808131D01*
X19159276Y-18514609D01*
X18688271Y-18392000D01*
X18492575Y-18554709D01*
X18238575Y-18554709D01*
X18042879Y-18392000D01*
X17571874Y-18514609D01*
X17183642Y-18808131D01*
X16937289Y-19227880D01*
X16922113Y-19319647D01*
X16500575Y-19319647D01*
X16500575Y-18227941D01*
X22435000Y-18227941D01*
X22435000Y-18572059D01*
X22566689Y-18889983D01*
X22810017Y-19133311D01*
X23127941Y-19265000D01*
X23472059Y-19265000D01*
X23789983Y-19133311D01*
X24033311Y-18889983D01*
X24165000Y-18572059D01*
X24165000Y-18227941D01*
X24033311Y-17910017D01*
X23789983Y-17666689D01*
X23472059Y-17535000D01*
X23127941Y-17535000D01*
X22810017Y-17666689D01*
X22566689Y-17910017D01*
X22435000Y-18227941D01*
X16500575Y-18227941D01*
X16500575Y-16024865D01*
X34942113Y-16024865D01*
X34945983Y-16062537D01*
X35172495Y-16490730D01*
X35545628Y-16799646D01*
X36008575Y-16942256D01*
X36508575Y-16942256D01*
X36508575Y-15834256D01*
X36762575Y-15834256D01*
X36762575Y-16942256D01*
X37262575Y-16942256D01*
X37725522Y-16799646D01*
X38098655Y-16490730D01*
X38325167Y-16062537D01*
X38329037Y-16024865D01*
X41722113Y-16024865D01*
X41725983Y-16062537D01*
X41952495Y-16490730D01*
X42325628Y-16799646D01*
X42788575Y-16942256D01*
X43288575Y-16942256D01*
X43288575Y-15834256D01*
X43542575Y-15834256D01*
X43542575Y-16942256D01*
X44042575Y-16942256D01*
X44505522Y-16799646D01*
X44878655Y-16490730D01*
X45105167Y-16062537D01*
X45109037Y-16024865D01*
X44984306Y-15834256D01*
X43542575Y-15834256D01*
X43288575Y-15834256D01*
X41846844Y-15834256D01*
X41722113Y-16024865D01*
X38329037Y-16024865D01*
X38204306Y-15834256D01*
X36762575Y-15834256D01*
X36508575Y-15834256D01*
X35066844Y-15834256D01*
X34942113Y-16024865D01*
X16500575Y-16024865D01*
X16500575Y-15142256D01*
X35056923Y-15142256D01*
X34945983Y-15351975D01*
X34945983Y-15351975D01*
G37*
X34945983Y-15351975D02*
X34942113Y-15389647D01*
X35066844Y-15580256D01*
X36508575Y-15580256D01*
X36508575Y-15560256D01*
X36762575Y-15560256D01*
X36762575Y-15580256D01*
X38204306Y-15580256D01*
X38329037Y-15389647D01*
X38325167Y-15351975D01*
X38214227Y-15142256D01*
X41836923Y-15142256D01*
X41725983Y-15351975D01*
X41722113Y-15389647D01*
X41846844Y-15580256D01*
X43288575Y-15580256D01*
X43288575Y-15560256D01*
X43542575Y-15560256D01*
X43542575Y-15580256D01*
X44984306Y-15580256D01*
X45109037Y-15389647D01*
X45105167Y-15351975D01*
X44994227Y-15142256D01*
X48230576Y-15142256D01*
X48230575Y-32372256D01*
X45009172Y-32372256D01*
X44984306Y-32334256D01*
X43542575Y-32334256D01*
X43542575Y-32354256D01*
X43288575Y-32354256D01*
X43288575Y-32334256D01*
X41846844Y-32334256D01*
X41821978Y-32372256D01*
X38229172Y-32372256D01*
X38204306Y-32334256D01*
X36762575Y-32334256D01*
X36762575Y-32354256D01*
X36508575Y-32354256D01*
X36508575Y-32334256D01*
X35066844Y-32334256D01*
X35041978Y-32372256D01*
X28519810Y-32372256D01*
X28584721Y-32275110D01*
X28650575Y-31944038D01*
X28650575Y-31889647D01*
X34942113Y-31889647D01*
X35066844Y-32080256D01*
X36508575Y-32080256D01*
X36508575Y-30972256D01*
X36762575Y-30972256D01*
X36762575Y-32080256D01*
X38204306Y-32080256D01*
X38329037Y-31889647D01*
X41722113Y-31889647D01*
X41846844Y-32080256D01*
X43288575Y-32080256D01*
X43288575Y-30972256D01*
X43542575Y-30972256D01*
X43542575Y-32080256D01*
X44984306Y-32080256D01*
X45109037Y-31889647D01*
X45105167Y-31851975D01*
X44878655Y-31423782D01*
X44505522Y-31114866D01*
X44042575Y-30972256D01*
X43542575Y-30972256D01*
X43288575Y-30972256D01*
X42788575Y-30972256D01*
X42325628Y-31114866D01*
X41952495Y-31423782D01*
X41725983Y-31851975D01*
X41722113Y-31889647D01*
X38329037Y-31889647D01*
X38325167Y-31851975D01*
X38098655Y-31423782D01*
X37725522Y-31114866D01*
X37262575Y-30972256D01*
X36762575Y-30972256D01*
X36508575Y-30972256D01*
X36008575Y-30972256D01*
X35545628Y-31114866D01*
X35172495Y-31423782D01*
X34945983Y-31851975D01*
X34942113Y-31889647D01*
X28650575Y-31889647D01*
X28650575Y-31170473D01*
X28584721Y-30839401D01*
X28333864Y-30463967D01*
X27958429Y-30213110D01*
X27515575Y-30125021D01*
X27072720Y-30213110D01*
X26697286Y-30463967D01*
X26446429Y-30839402D01*
X26380575Y-31170474D01*
X26380575Y-31944039D01*
X26446429Y-32275111D01*
X26511339Y-32372256D01*
X21519810Y-32372256D01*
X21584721Y-32275110D01*
X21650575Y-31944038D01*
X21650575Y-31170473D01*
X21584721Y-30839401D01*
X21333864Y-30463967D01*
X20958429Y-30213110D01*
X20515575Y-30125021D01*
X20072720Y-30213110D01*
X19697286Y-30463967D01*
X19446429Y-30839402D01*
X19380575Y-31170474D01*
X19380575Y-31944039D01*
X19446429Y-32275111D01*
X19511339Y-32372256D01*
X16500575Y-32372256D01*
X16500575Y-28857256D01*
X20233829Y-28857256D01*
X20319978Y-29290356D01*
X20565310Y-29657521D01*
X20932475Y-29902853D01*
X21256251Y-29967256D01*
X21774899Y-29967256D01*
X22098675Y-29902853D01*
X22465840Y-29657521D01*
X22711172Y-29290356D01*
X22797321Y-28857256D01*
X25233829Y-28857256D01*
X25319978Y-29290356D01*
X25565310Y-29657521D01*
X25932475Y-29902853D01*
X26256251Y-29967256D01*
X26774899Y-29967256D01*
X27098675Y-29902853D01*
X27465840Y-29657521D01*
X27711172Y-29290356D01*
X27797321Y-28857256D01*
X27711172Y-28424156D01*
X27465840Y-28056991D01*
X27098675Y-27811659D01*
X26774899Y-27747256D01*
X26256251Y-27747256D01*
X25932475Y-27811659D01*
X25565310Y-28056991D01*
X25319978Y-28424156D01*
X25233829Y-28857256D01*
X22797321Y-28857256D01*
X22711172Y-28424156D01*
X22617852Y-28284493D01*
X22830405Y-28372536D01*
X23174523Y-28372536D01*
X23492447Y-28240847D01*
X23735775Y-27997519D01*
X23786078Y-27876078D01*
X23907519Y-27825775D01*
X24150847Y-27582447D01*
X24282536Y-27264523D01*
X24282536Y-26920405D01*
X24150847Y-26602481D01*
X23907519Y-26359153D01*
X23589595Y-26227464D01*
X23245477Y-26227464D01*
X22927553Y-26359153D01*
X22684225Y-26602481D01*
X22633922Y-26723922D01*
X22512481Y-26774225D01*
X22269153Y-27017553D01*
X22137464Y-27335477D01*
X22137464Y-27679595D01*
X22227945Y-27898035D01*
X22098675Y-27811659D01*
X21774899Y-27747256D01*
X21256251Y-27747256D01*
X20932475Y-27811659D01*
X20565310Y-28056991D01*
X20319978Y-28424156D01*
X20233829Y-28857256D01*
X16500575Y-28857256D01*
X16500575Y-23226684D01*
X16779592Y-23342256D01*
X17146007Y-23342256D01*
X17183642Y-23406381D01*
X17571874Y-23699903D01*
X18042879Y-23822512D01*
X18238575Y-23659803D01*
X18238575Y-22704256D01*
X18492575Y-22704256D01*
X18492575Y-23659803D01*
X18688271Y-23822512D01*
X19159276Y-23699903D01*
X19241231Y-23637941D01*
X20765000Y-23637941D01*
X20765000Y-23982059D01*
X20896689Y-24299983D01*
X21140017Y-24543311D01*
X21278379Y-24600623D01*
X21221500Y-24737941D01*
X21221500Y-25082059D01*
X21353189Y-25399983D01*
X21596517Y-25643311D01*
X21914441Y-25775000D01*
X22258559Y-25775000D01*
X22380000Y-25724697D01*
X22501441Y-25775000D01*
X22845559Y-25775000D01*
X23163483Y-25643311D01*
X23406811Y-25399983D01*
X23538500Y-25082059D01*
X23538500Y-24737941D01*
X23406811Y-24420017D01*
X23163483Y-24176689D01*
X22845559Y-24045000D01*
X22501441Y-24045000D01*
X22462195Y-24061256D01*
X22495000Y-23982059D01*
X22495000Y-23637941D01*
X22363311Y-23320017D01*
X22119983Y-23076689D01*
X21802059Y-22945000D01*
X21457941Y-22945000D01*
X21140017Y-23076689D01*
X20896689Y-23320017D01*
X20765000Y-23637941D01*
X19241231Y-23637941D01*
X19547508Y-23406381D01*
X19793861Y-22986632D01*
X19809037Y-22894865D01*
X25122113Y-22894865D01*
X25137289Y-22986632D01*
X25383642Y-23406381D01*
X25771874Y-23699903D01*
X25915829Y-23737377D01*
X25686689Y-23966517D01*
X25555000Y-24284441D01*
X25555000Y-24628559D01*
X25605303Y-24750000D01*
X25555000Y-24871441D01*
X25555000Y-25215559D01*
X25686689Y-25533483D01*
X25930017Y-25776811D01*
X26247941Y-25908500D01*
X26592059Y-25908500D01*
X26909983Y-25776811D01*
X27153311Y-25533483D01*
X27285000Y-25215559D01*
X27285000Y-24871441D01*
X27234697Y-24750000D01*
X27285000Y-24628559D01*
X27285000Y-24284441D01*
X27153311Y-23966517D01*
X26984307Y-23797513D01*
X27359276Y-23699903D01*
X27747508Y-23406381D01*
X27785143Y-23342256D01*
X28151558Y-23342256D01*
X28495210Y-23199911D01*
X28758230Y-22936891D01*
X28900575Y-22593239D01*
X28900575Y-22221273D01*
X28758230Y-21877621D01*
X28495210Y-21614601D01*
X28151558Y-21472256D01*
X27779592Y-21472256D01*
X27523126Y-21578487D01*
X27359276Y-21454609D01*
X26888271Y-21332000D01*
X26692575Y-21494709D01*
X26692575Y-22450256D01*
X26712575Y-22450256D01*
X26712575Y-22704256D01*
X26692575Y-22704256D01*
X26692575Y-22724256D01*
X26438575Y-22724256D01*
X26438575Y-22704256D01*
X25246844Y-22704256D01*
X25122113Y-22894865D01*
X19809037Y-22894865D01*
X19684306Y-22704256D01*
X18492575Y-22704256D01*
X18238575Y-22704256D01*
X18218575Y-22704256D01*
X18218575Y-22450256D01*
X18238575Y-22450256D01*
X18238575Y-21494709D01*
X18492575Y-21494709D01*
X18492575Y-22450256D01*
X19684306Y-22450256D01*
X19809037Y-22259647D01*
X25122113Y-22259647D01*
X25246844Y-22450256D01*
X26438575Y-22450256D01*
X26438575Y-21494709D01*
X26242879Y-21332000D01*
X25771874Y-21454609D01*
X25383642Y-21748131D01*
X25137289Y-22167880D01*
X25122113Y-22259647D01*
X19809037Y-22259647D01*
X19793861Y-22167880D01*
X19547508Y-21748131D01*
X19159276Y-21454609D01*
X18688271Y-21332000D01*
X18492575Y-21494709D01*
X18238575Y-21494709D01*
X18042879Y-21332000D01*
X17571874Y-21454609D01*
X17408024Y-21578487D01*
X17151558Y-21472256D01*
X16779592Y-21472256D01*
X16500575Y-21587828D01*
X16500575Y-19954865D01*
X16922113Y-19954865D01*
X16937289Y-20046632D01*
X17183642Y-20466381D01*
X17571874Y-20759903D01*
X18042879Y-20882512D01*
X18238575Y-20719803D01*
X18238575Y-19764256D01*
X18492575Y-19764256D01*
X18492575Y-20719803D01*
X18688271Y-20882512D01*
X19159276Y-20759903D01*
X19547508Y-20466381D01*
X19793861Y-20046632D01*
X19809037Y-19954865D01*
X25122113Y-19954865D01*
X25137289Y-20046632D01*
X25383642Y-20466381D01*
X25771874Y-20759903D01*
X26242879Y-20882512D01*
X26438575Y-20719803D01*
X26438575Y-19764256D01*
X26692575Y-19764256D01*
X26692575Y-20719803D01*
X26888271Y-20882512D01*
X27359276Y-20759903D01*
X27747508Y-20466381D01*
X27993861Y-20046632D01*
X28009037Y-19954865D01*
X27884306Y-19764256D01*
X26692575Y-19764256D01*
X26438575Y-19764256D01*
X25246844Y-19764256D01*
X25122113Y-19954865D01*
X19809037Y-19954865D01*
X19684306Y-19764256D01*
X18492575Y-19764256D01*
X18238575Y-19764256D01*
X17046844Y-19764256D01*
X16922113Y-19954865D01*
X16500575Y-19954865D01*
X16500575Y-19319647D01*
X16922113Y-19319647D01*
X17046844Y-19510256D01*
X18238575Y-19510256D01*
X18238575Y-18554709D01*
X18492575Y-18554709D01*
X18492575Y-19510256D01*
X19684306Y-19510256D01*
X19809037Y-19319647D01*
X25122113Y-19319647D01*
X25246844Y-19510256D01*
X26438575Y-19510256D01*
X26438575Y-18554709D01*
X26692575Y-18554709D01*
X26692575Y-19510256D01*
X27884306Y-19510256D01*
X28009037Y-19319647D01*
X27994459Y-19231490D01*
X33450575Y-19231490D01*
X33450575Y-19683022D01*
X33623368Y-20100182D01*
X33730442Y-20207256D01*
X33623368Y-20314330D01*
X33450575Y-20731490D01*
X33450575Y-21183022D01*
X33623368Y-21600182D01*
X33730442Y-21707256D01*
X33623368Y-21814330D01*
X33450575Y-22231490D01*
X33450575Y-22683022D01*
X33623368Y-23100182D01*
X33730442Y-23207256D01*
X33623368Y-23314330D01*
X33450575Y-23731490D01*
X33450575Y-24183022D01*
X33623368Y-24600182D01*
X33730442Y-24707256D01*
X33623368Y-24814330D01*
X33450575Y-25231490D01*
X33450575Y-25683022D01*
X33623368Y-26100182D01*
X33730442Y-26207256D01*
X33623368Y-26314330D01*
X33450575Y-26731490D01*
X33450575Y-27183022D01*
X33623368Y-27600182D01*
X33942649Y-27919463D01*
X34359809Y-28092256D01*
X34811341Y-28092256D01*
X35074871Y-27983099D01*
X35123368Y-28100182D01*
X35442649Y-28419463D01*
X35859809Y-28592256D01*
X36311341Y-28592256D01*
X36574871Y-28483099D01*
X36623368Y-28600182D01*
X36942649Y-28919463D01*
X37359809Y-29092256D01*
X37811341Y-29092256D01*
X38228501Y-28919463D01*
X38547782Y-28600182D01*
X38720575Y-28183022D01*
X38720575Y-27731490D01*
X38547782Y-27314330D01*
X38440708Y-27207256D01*
X38547782Y-27100182D01*
X38720575Y-26683022D01*
X38720575Y-26231490D01*
X38547782Y-25814330D01*
X38440708Y-25707256D01*
X38547782Y-25600182D01*
X38690996Y-25254431D01*
X43198005Y-25254431D01*
X43321140Y-25542044D01*
X44003309Y-25801963D01*
X44733018Y-25781042D01*
X45310010Y-25542044D01*
X45433145Y-25254431D01*
X44315575Y-24136861D01*
X43198005Y-25254431D01*
X38690996Y-25254431D01*
X38720575Y-25183022D01*
X38720575Y-24731490D01*
X38547782Y-24314330D01*
X38454672Y-24221220D01*
X38491909Y-24183982D01*
X38375682Y-24067755D01*
X38590792Y-24030608D01*
X38719439Y-23644990D01*
X42470868Y-23644990D01*
X42491789Y-24374699D01*
X42730787Y-24951691D01*
X43018400Y-25074826D01*
X44135970Y-23957256D01*
X44495180Y-23957256D01*
X45612750Y-25074826D01*
X45900363Y-24951691D01*
X46160282Y-24269522D01*
X46139361Y-23539813D01*
X45900363Y-22962821D01*
X45612750Y-22839686D01*
X44495180Y-23957256D01*
X44135970Y-23957256D01*
X43018400Y-22839686D01*
X42730787Y-22962821D01*
X42470868Y-23644990D01*
X38719439Y-23644990D01*
X38733687Y-23602284D01*
X38701792Y-23151881D01*
X38590792Y-22883904D01*
X38375679Y-22846757D01*
X37765180Y-23457256D01*
X37779323Y-23471399D01*
X37599718Y-23651004D01*
X37585575Y-23636861D01*
X37571433Y-23651004D01*
X37391828Y-23471399D01*
X37405970Y-23457256D01*
X37391828Y-23443114D01*
X37571433Y-23263509D01*
X37585575Y-23277651D01*
X37782041Y-23081185D01*
X37890950Y-23073473D01*
X38158927Y-22962473D01*
X38196074Y-22747360D01*
X38155970Y-22707256D01*
X38196074Y-22667152D01*
X38194853Y-22660081D01*
X43198005Y-22660081D01*
X44315575Y-23777651D01*
X45433145Y-22660081D01*
X45310010Y-22372468D01*
X44627841Y-22112549D01*
X43898132Y-22133470D01*
X43321140Y-22372468D01*
X43198005Y-22660081D01*
X38194853Y-22660081D01*
X38158927Y-22452039D01*
X37771503Y-22322789D01*
X37585575Y-22136861D01*
X37571433Y-22151004D01*
X37391828Y-21971399D01*
X37405970Y-21957256D01*
X37765180Y-21957256D01*
X38375679Y-22567755D01*
X38590792Y-22530608D01*
X38733687Y-22102284D01*
X38701792Y-21651881D01*
X38590792Y-21383904D01*
X38375679Y-21346757D01*
X37765180Y-21957256D01*
X37405970Y-21957256D01*
X37391828Y-21943114D01*
X37571433Y-21763509D01*
X37585575Y-21777651D01*
X37782041Y-21581185D01*
X37890950Y-21573473D01*
X38158927Y-21462473D01*
X38196074Y-21247360D01*
X38155970Y-21207256D01*
X38196074Y-21167152D01*
X38158927Y-20952039D01*
X37771503Y-20822789D01*
X37585575Y-20636861D01*
X37571433Y-20651004D01*
X37391828Y-20471399D01*
X37405970Y-20457256D01*
X37765180Y-20457256D01*
X38375679Y-21067755D01*
X38590792Y-21030608D01*
X38733687Y-20602284D01*
X38701792Y-20151881D01*
X38590792Y-19883904D01*
X38375679Y-19846757D01*
X37765180Y-20457256D01*
X37405970Y-20457256D01*
X37391828Y-20443114D01*
X37571433Y-20263509D01*
X37585575Y-20277651D01*
X37782041Y-20081185D01*
X37890950Y-20073473D01*
X38158927Y-19962473D01*
X38196074Y-19747360D01*
X38155970Y-19707256D01*
X38196074Y-19667152D01*
X38158927Y-19452039D01*
X37771503Y-19322789D01*
X37585575Y-19136861D01*
X37571433Y-19151004D01*
X37391828Y-18971399D01*
X37405970Y-18957256D01*
X37765180Y-18957256D01*
X38375679Y-19567755D01*
X38590792Y-19530608D01*
X38733687Y-19102284D01*
X38701792Y-18651881D01*
X38590792Y-18383904D01*
X38375679Y-18346757D01*
X37765180Y-18957256D01*
X37405970Y-18957256D01*
X37391828Y-18943114D01*
X37571433Y-18763509D01*
X37585575Y-18777651D01*
X38196074Y-18167152D01*
X38158927Y-17952039D01*
X37730603Y-17809144D01*
X37280200Y-17841039D01*
X37215250Y-17867942D01*
X37183732Y-17709491D01*
X37043384Y-17499447D01*
X36833340Y-17359099D01*
X36585575Y-17309816D01*
X35585575Y-17309816D01*
X35337810Y-17359099D01*
X35127766Y-17499447D01*
X34987418Y-17709491D01*
X34938135Y-17957256D01*
X34938135Y-18374776D01*
X34811341Y-18322256D01*
X34359809Y-18322256D01*
X33942649Y-18495049D01*
X33623368Y-18814330D01*
X33450575Y-19231490D01*
X27994459Y-19231490D01*
X27993861Y-19227880D01*
X27747508Y-18808131D01*
X27359276Y-18514609D01*
X26888271Y-18392000D01*
X26692575Y-18554709D01*
X26438575Y-18554709D01*
X26242879Y-18392000D01*
X25771874Y-18514609D01*
X25383642Y-18808131D01*
X25137289Y-19227880D01*
X25122113Y-19319647D01*
X19809037Y-19319647D01*
X19793861Y-19227880D01*
X19547508Y-18808131D01*
X19159276Y-18514609D01*
X18688271Y-18392000D01*
X18492575Y-18554709D01*
X18238575Y-18554709D01*
X18042879Y-18392000D01*
X17571874Y-18514609D01*
X17183642Y-18808131D01*
X16937289Y-19227880D01*
X16922113Y-19319647D01*
X16500575Y-19319647D01*
X16500575Y-18227941D01*
X22435000Y-18227941D01*
X22435000Y-18572059D01*
X22566689Y-18889983D01*
X22810017Y-19133311D01*
X23127941Y-19265000D01*
X23472059Y-19265000D01*
X23789983Y-19133311D01*
X24033311Y-18889983D01*
X24165000Y-18572059D01*
X24165000Y-18227941D01*
X24033311Y-17910017D01*
X23789983Y-17666689D01*
X23472059Y-17535000D01*
X23127941Y-17535000D01*
X22810017Y-17666689D01*
X22566689Y-17910017D01*
X22435000Y-18227941D01*
X16500575Y-18227941D01*
X16500575Y-16024865D01*
X34942113Y-16024865D01*
X34945983Y-16062537D01*
X35172495Y-16490730D01*
X35545628Y-16799646D01*
X36008575Y-16942256D01*
X36508575Y-16942256D01*
X36508575Y-15834256D01*
X36762575Y-15834256D01*
X36762575Y-16942256D01*
X37262575Y-16942256D01*
X37725522Y-16799646D01*
X38098655Y-16490730D01*
X38325167Y-16062537D01*
X38329037Y-16024865D01*
X41722113Y-16024865D01*
X41725983Y-16062537D01*
X41952495Y-16490730D01*
X42325628Y-16799646D01*
X42788575Y-16942256D01*
X43288575Y-16942256D01*
X43288575Y-15834256D01*
X43542575Y-15834256D01*
X43542575Y-16942256D01*
X44042575Y-16942256D01*
X44505522Y-16799646D01*
X44878655Y-16490730D01*
X45105167Y-16062537D01*
X45109037Y-16024865D01*
X44984306Y-15834256D01*
X43542575Y-15834256D01*
X43288575Y-15834256D01*
X41846844Y-15834256D01*
X41722113Y-16024865D01*
X38329037Y-16024865D01*
X38204306Y-15834256D01*
X36762575Y-15834256D01*
X36508575Y-15834256D01*
X35066844Y-15834256D01*
X34942113Y-16024865D01*
X16500575Y-16024865D01*
X16500575Y-15142256D01*
X35056923Y-15142256D01*
X34945983Y-15351975D01*
G36*
X36279323Y-25943114D02*
X36265180Y-25957256D01*
X36279323Y-25971399D01*
X36099718Y-26151004D01*
X36085575Y-26136861D01*
X36071433Y-26151004D01*
X35891828Y-25971399D01*
X35905970Y-25957256D01*
X35891828Y-25943114D01*
X36071433Y-25763509D01*
X36085575Y-25777651D01*
X36099718Y-25763509D01*
X36279323Y-25943114D01*
X36279323Y-25943114D01*
G37*
X36279323Y-25943114D02*
X36265180Y-25957256D01*
X36279323Y-25971399D01*
X36099718Y-26151004D01*
X36085575Y-26136861D01*
X36071433Y-26151004D01*
X35891828Y-25971399D01*
X35905970Y-25957256D01*
X35891828Y-25943114D01*
X36071433Y-25763509D01*
X36085575Y-25777651D01*
X36099718Y-25763509D01*
X36279323Y-25943114D01*
G04 #@! TD*
M02*
