M48
;DRILL file {KiCad (5.0.0-rc3)} date Wed Feb 20 21:29:19 2019
;FORMAT={-:-/ absolute / inch / decimal}
FMAT,2
INCH,TZ
T1C0.0102
T2C0.0197
T3C0.0217
T4C0.0256
T5C0.0394
%
G90
G05
M72
T1
X1.11Y-2.01
X1.1449Y-2.3969
X1.1512Y-2.0287
X1.1598Y-2.3224
X1.226Y-2.1799
X1.228Y-1.8728
X1.2795Y-2.8858
X1.285Y-2.4295
X1.3111Y-2.1689
X1.3142Y-2.3008
X1.3146Y-1.8756
X1.3246Y-2.1299
X1.3583Y-2.0866
X1.3583Y-2.874
X1.3666Y-2.3202
X1.3827Y-2.0348
X1.3927Y-2.7165
X1.4Y-2.56
X1.4047Y-1.8461
X1.42Y-2.09
X1.4262Y-2.7165
X1.44Y-2.59
X1.4546Y-1.9998
X1.4656Y-2.7175
X1.4769Y-2.0103
X1.4836Y-2.4426
X1.4839Y-1.8252
X1.5Y-2.52
X1.5071Y-2.4433
X1.5089Y-2.02
X1.55Y-2.0082
X1.58Y-1.58
X1.58Y-3.09
X1.64Y-1.6
X1.659Y-1.9688
X1.6703Y-2.4783
X1.6929Y-2.7559
X1.7323Y-2.7559
X1.7717Y-1.5354
X1.7764Y-2.25
X1.7764Y-2.2731
X1.7874Y-2.5406
X1.7932Y-1.9688
X1.8Y-2.11
X1.8Y-2.19
X1.8Y-2.29
X1.8168Y-2.0082
X1.8258Y-2.4262
X1.8406Y-2.1457
X1.85Y-2.09
X1.862Y-2.2464
X1.8898Y-2.6496
X1.9Y-1.7
X1.9094Y-1.9291
X1.9153Y-1.79
X1.9279Y-1.9756
X1.95Y-1.9756
X2.0243Y-1.9749
X2.0266Y-2.498
X2.03Y-2.7
X2.0472Y-2.0279
X2.0866Y-2.5
X2.0929Y-2.1264
X2.1299Y-1.6073
X2.1341Y-2.6969
X2.1634Y-1.6919
X2.1756Y-1.6264
X2.185Y-1.7654
X2.1858Y-1.6975
X2.1929Y-2.3976
X2.1929Y-2.6969
X2.2156Y-1.6236
X2.2205Y-2.2835
X2.224Y-1.698
X2.2244Y-1.9524
X2.2314Y-1.6072
X2.2362Y-2.0197
X2.2366Y-2.1252
X2.2372Y-1.5586
X2.25Y-2.54
X2.252Y-2.6969
X2.2638Y-1.7638
X2.2826Y-1.6228
X2.2835Y-1.9291
X2.2835Y-2.0472
X2.2882Y-1.9834
X2.311Y-2.6969
X2.3228Y-2.0079
X2.33Y-1.61
X2.343Y-2.212
X2.3819Y-1.8307
X2.3976Y-2.3071
X2.3986Y-2.3701
X2.4016Y-1.8307
X2.4409Y-1.9291
X2.4803Y-2.5079
X2.5567Y-2.0563
X2.5787Y-1.752
X2.5945Y-1.9657
X2.6043Y-1.9941
T2
X1.2717Y-2.7441
X1.4685Y-3.0157
X1.4685Y-3.0591
T5
X1.452Y-1.4567
X1.552Y-1.4567
X1.652Y-1.4567
X1.752Y-1.4567
X1.852Y-1.4567
X1.1181Y-1.6516
X1.1181Y-1.7516
X1.1181Y-1.8516
T2
X2.0358Y-1.4276G85X2.0358Y-1.4039
G05
X2.05Y-1.6618G85X2.05Y-1.6382
G05
X2.3752Y-1.6618G85X2.3752Y-1.6382
G05
X2.3894Y-1.4276G85X2.3894Y-1.4039
G05
X1.3937Y-3.251G85X1.3937Y-3.2766
G05
X1.6693Y-3.251G85X1.6693Y-3.2766
G05
T3
X1.4272Y-3.1575G85X1.439Y-3.1575
G05
X1.624Y-3.1575G85X1.6358Y-3.1575
G05
T4
X1.7889Y-2.8512G85X1.7889Y-2.8905
G05
X1.7889Y-3.127G85X1.7889Y-3.1486
G05
X2.4385Y-2.8512G85X2.4385Y-2.8905
G05
X2.4385Y-3.127G85X2.4385Y-3.1486
G05
T0
M30
